<svg width="337" height="152" viewBox="0 0 337 152" fill="none" xmlns="http://www.w3.org/2000/svg">
<rect y="59" width="337" height="66" fill="white"/>
<mask id="path-2-outside-1_39_30" maskUnits="userSpaceOnUse" x="11" y="18" width="314" height="94" fill="black">
<rect fill="white" x="11" y="18" width="314" height="94"/>
<path d="M37.648 86.546C33.644 86.546 30.056 85.896 26.884 84.596C23.712 83.296 21.164 81.372 19.24 78.824C17.368 76.276 16.38 73.208 16.276 69.62H30.472C30.68 71.648 31.382 73.208 32.578 74.3C33.774 75.34 35.334 75.86 37.258 75.86C39.234 75.86 40.794 75.418 41.938 74.534C43.082 73.598 43.654 72.324 43.654 70.712C43.654 69.36 43.186 68.242 42.25 67.358C41.366 66.474 40.248 65.746 38.896 65.174C37.596 64.602 35.724 63.952 33.28 63.224C29.744 62.132 26.858 61.04 24.622 59.948C22.386 58.856 20.462 57.244 18.85 55.112C17.238 52.98 16.432 50.198 16.432 46.766C16.432 41.67 18.278 37.692 21.97 34.832C25.662 31.92 30.472 30.464 36.4 30.464C42.432 30.464 47.294 31.92 50.986 34.832C54.678 37.692 56.654 41.696 56.914 46.844H42.484C42.38 45.076 41.73 43.698 40.534 42.71C39.338 41.67 37.804 41.15 35.932 41.15C34.32 41.15 33.02 41.592 32.032 42.476C31.044 43.308 30.55 44.53 30.55 46.142C30.55 47.91 31.382 49.288 33.046 50.276C34.71 51.264 37.31 52.33 40.846 53.474C44.382 54.67 47.242 55.814 49.426 56.906C51.662 57.998 53.586 59.584 55.198 61.664C56.81 63.744 57.616 66.422 57.616 69.698C57.616 72.818 56.81 75.652 55.198 78.2C53.638 80.748 51.35 82.776 48.334 84.284C45.318 85.792 41.756 86.546 37.648 86.546ZM106.852 63.536C106.852 64.784 106.774 66.084 106.618 67.436H76.4323C76.6403 70.14 77.4983 72.22 79.0063 73.676C80.5663 75.08 82.4643 75.782 84.7003 75.782C88.0283 75.782 90.3423 74.378 91.6423 71.57H105.838C105.11 74.43 103.784 77.004 101.86 79.292C99.9883 81.58 97.6223 83.374 94.7623 84.674C91.9023 85.974 88.7043 86.624 85.1683 86.624C80.9043 86.624 77.1083 85.714 73.7803 83.894C70.4523 82.074 67.8523 79.474 65.9803 76.094C64.1083 72.714 63.1723 68.762 63.1723 64.238C63.1723 59.714 64.0823 55.762 65.9023 52.382C67.7743 49.002 70.3743 46.402 73.7023 44.582C77.0303 42.762 80.8523 41.852 85.1683 41.852C89.3803 41.852 93.1243 42.736 96.4003 44.504C99.6763 46.272 102.224 48.794 104.044 52.07C105.916 55.346 106.852 59.168 106.852 63.536ZM93.2023 60.026C93.2023 57.738 92.4223 55.918 90.8623 54.566C89.3023 53.214 87.3523 52.538 85.0123 52.538C82.7763 52.538 80.8783 53.188 79.3183 54.488C77.8103 55.788 76.8743 57.634 76.5103 60.026H93.2023ZM120.519 37.952C118.179 37.952 116.255 37.276 114.747 35.924C113.291 34.52 112.563 32.804 112.563 30.776C112.563 28.696 113.291 26.98 114.747 25.628C116.255 24.224 118.179 23.522 120.519 23.522C122.807 23.522 124.679 24.224 126.135 25.628C127.643 26.98 128.397 28.696 128.397 30.776C128.397 32.804 127.643 34.52 126.135 35.924C124.679 37.276 122.807 37.952 120.519 37.952ZM127.227 91.616C127.227 96.972 125.875 100.82 123.171 103.16C120.467 105.552 116.697 106.748 111.861 106.748H106.635V95.438H109.833C111.289 95.438 112.329 95.152 112.953 94.58C113.577 94.008 113.889 93.072 113.889 91.772V42.476H127.227V91.616ZM134.164 64.16C134.164 59.688 134.996 55.762 136.66 52.382C138.376 49.002 140.69 46.402 143.602 44.582C146.514 42.762 149.764 41.852 153.352 41.852C156.42 41.852 159.098 42.476 161.386 43.724C163.726 44.972 165.52 46.61 166.768 48.638V42.476H180.106V86H166.768V79.838C165.468 81.866 163.648 83.504 161.308 84.752C159.02 86 156.342 86.624 153.274 86.624C149.738 86.624 146.514 85.714 143.602 83.894C140.69 82.022 138.376 79.396 136.66 76.016C134.996 72.584 134.164 68.632 134.164 64.16ZM166.768 64.238C166.768 60.91 165.832 58.284 163.96 56.36C162.14 54.436 159.904 53.474 157.252 53.474C154.6 53.474 152.338 54.436 150.466 56.36C148.646 58.232 147.736 60.832 147.736 64.16C147.736 67.488 148.646 70.14 150.466 72.116C152.338 74.04 154.6 75.002 157.252 75.002C159.904 75.002 162.14 74.04 163.96 72.116C165.832 70.192 166.768 67.566 166.768 64.238ZM203.094 49.73C204.654 47.338 206.604 45.466 208.944 44.114C211.284 42.71 213.884 42.008 216.744 42.008V56.126H213.078C209.75 56.126 207.254 56.854 205.59 58.31C203.926 59.714 203.094 62.21 203.094 65.798V86H189.756V42.476H203.094V49.73ZM220.467 64.16C220.467 59.688 221.299 55.762 222.963 52.382C224.679 49.002 226.993 46.402 229.905 44.582C232.817 42.762 236.067 41.852 239.655 41.852C242.723 41.852 245.401 42.476 247.689 43.724C250.029 44.972 251.823 46.61 253.071 48.638V42.476H266.409V86H253.071V79.838C251.771 81.866 249.951 83.504 247.611 84.752C245.323 86 242.645 86.624 239.577 86.624C236.041 86.624 232.817 85.714 229.905 83.894C226.993 82.022 224.679 79.396 222.963 76.016C221.299 72.584 220.467 68.632 220.467 64.16ZM253.071 64.238C253.071 60.91 252.135 58.284 250.263 56.36C248.443 54.436 246.207 53.474 243.555 53.474C240.903 53.474 238.641 54.436 236.769 56.36C234.949 58.232 234.039 60.832 234.039 64.16C234.039 67.488 234.949 70.14 236.769 72.116C238.641 74.04 240.903 75.002 243.555 75.002C246.207 75.002 248.443 74.04 250.263 72.116C252.135 70.192 253.071 67.566 253.071 64.238ZM302.813 42.008C307.805 42.008 311.809 43.672 314.825 47C317.841 50.276 319.349 54.8 319.349 60.572V86H306.089V62.366C306.089 59.454 305.335 57.192 303.827 55.58C302.319 53.968 300.291 53.162 297.743 53.162C295.195 53.162 293.167 53.968 291.659 55.58C290.151 57.192 289.397 59.454 289.397 62.366V86H276.059V28.28H289.397V48.326C290.749 46.402 292.595 44.868 294.935 43.724C297.275 42.58 299.901 42.008 302.813 42.008Z"/>
</mask>
<path d="M37.648 86.546C33.644 86.546 30.056 85.896 26.884 84.596C23.712 83.296 21.164 81.372 19.24 78.824C17.368 76.276 16.38 73.208 16.276 69.62H30.472C30.68 71.648 31.382 73.208 32.578 74.3C33.774 75.34 35.334 75.86 37.258 75.86C39.234 75.86 40.794 75.418 41.938 74.534C43.082 73.598 43.654 72.324 43.654 70.712C43.654 69.36 43.186 68.242 42.25 67.358C41.366 66.474 40.248 65.746 38.896 65.174C37.596 64.602 35.724 63.952 33.28 63.224C29.744 62.132 26.858 61.04 24.622 59.948C22.386 58.856 20.462 57.244 18.85 55.112C17.238 52.98 16.432 50.198 16.432 46.766C16.432 41.67 18.278 37.692 21.97 34.832C25.662 31.92 30.472 30.464 36.4 30.464C42.432 30.464 47.294 31.92 50.986 34.832C54.678 37.692 56.654 41.696 56.914 46.844H42.484C42.38 45.076 41.73 43.698 40.534 42.71C39.338 41.67 37.804 41.15 35.932 41.15C34.32 41.15 33.02 41.592 32.032 42.476C31.044 43.308 30.55 44.53 30.55 46.142C30.55 47.91 31.382 49.288 33.046 50.276C34.71 51.264 37.31 52.33 40.846 53.474C44.382 54.67 47.242 55.814 49.426 56.906C51.662 57.998 53.586 59.584 55.198 61.664C56.81 63.744 57.616 66.422 57.616 69.698C57.616 72.818 56.81 75.652 55.198 78.2C53.638 80.748 51.35 82.776 48.334 84.284C45.318 85.792 41.756 86.546 37.648 86.546ZM106.852 63.536C106.852 64.784 106.774 66.084 106.618 67.436H76.4323C76.6403 70.14 77.4983 72.22 79.0063 73.676C80.5663 75.08 82.4643 75.782 84.7003 75.782C88.0283 75.782 90.3423 74.378 91.6423 71.57H105.838C105.11 74.43 103.784 77.004 101.86 79.292C99.9883 81.58 97.6223 83.374 94.7623 84.674C91.9023 85.974 88.7043 86.624 85.1683 86.624C80.9043 86.624 77.1083 85.714 73.7803 83.894C70.4523 82.074 67.8523 79.474 65.9803 76.094C64.1083 72.714 63.1723 68.762 63.1723 64.238C63.1723 59.714 64.0823 55.762 65.9023 52.382C67.7743 49.002 70.3743 46.402 73.7023 44.582C77.0303 42.762 80.8523 41.852 85.1683 41.852C89.3803 41.852 93.1243 42.736 96.4003 44.504C99.6763 46.272 102.224 48.794 104.044 52.07C105.916 55.346 106.852 59.168 106.852 63.536ZM93.2023 60.026C93.2023 57.738 92.4223 55.918 90.8623 54.566C89.3023 53.214 87.3523 52.538 85.0123 52.538C82.7763 52.538 80.8783 53.188 79.3183 54.488C77.8103 55.788 76.8743 57.634 76.5103 60.026H93.2023ZM120.519 37.952C118.179 37.952 116.255 37.276 114.747 35.924C113.291 34.52 112.563 32.804 112.563 30.776C112.563 28.696 113.291 26.98 114.747 25.628C116.255 24.224 118.179 23.522 120.519 23.522C122.807 23.522 124.679 24.224 126.135 25.628C127.643 26.98 128.397 28.696 128.397 30.776C128.397 32.804 127.643 34.52 126.135 35.924C124.679 37.276 122.807 37.952 120.519 37.952ZM127.227 91.616C127.227 96.972 125.875 100.82 123.171 103.16C120.467 105.552 116.697 106.748 111.861 106.748H106.635V95.438H109.833C111.289 95.438 112.329 95.152 112.953 94.58C113.577 94.008 113.889 93.072 113.889 91.772V42.476H127.227V91.616ZM134.164 64.16C134.164 59.688 134.996 55.762 136.66 52.382C138.376 49.002 140.69 46.402 143.602 44.582C146.514 42.762 149.764 41.852 153.352 41.852C156.42 41.852 159.098 42.476 161.386 43.724C163.726 44.972 165.52 46.61 166.768 48.638V42.476H180.106V86H166.768V79.838C165.468 81.866 163.648 83.504 161.308 84.752C159.02 86 156.342 86.624 153.274 86.624C149.738 86.624 146.514 85.714 143.602 83.894C140.69 82.022 138.376 79.396 136.66 76.016C134.996 72.584 134.164 68.632 134.164 64.16ZM166.768 64.238C166.768 60.91 165.832 58.284 163.96 56.36C162.14 54.436 159.904 53.474 157.252 53.474C154.6 53.474 152.338 54.436 150.466 56.36C148.646 58.232 147.736 60.832 147.736 64.16C147.736 67.488 148.646 70.14 150.466 72.116C152.338 74.04 154.6 75.002 157.252 75.002C159.904 75.002 162.14 74.04 163.96 72.116C165.832 70.192 166.768 67.566 166.768 64.238ZM203.094 49.73C204.654 47.338 206.604 45.466 208.944 44.114C211.284 42.71 213.884 42.008 216.744 42.008V56.126H213.078C209.75 56.126 207.254 56.854 205.59 58.31C203.926 59.714 203.094 62.21 203.094 65.798V86H189.756V42.476H203.094V49.73ZM220.467 64.16C220.467 59.688 221.299 55.762 222.963 52.382C224.679 49.002 226.993 46.402 229.905 44.582C232.817 42.762 236.067 41.852 239.655 41.852C242.723 41.852 245.401 42.476 247.689 43.724C250.029 44.972 251.823 46.61 253.071 48.638V42.476H266.409V86H253.071V79.838C251.771 81.866 249.951 83.504 247.611 84.752C245.323 86 242.645 86.624 239.577 86.624C236.041 86.624 232.817 85.714 229.905 83.894C226.993 82.022 224.679 79.396 222.963 76.016C221.299 72.584 220.467 68.632 220.467 64.16ZM253.071 64.238C253.071 60.91 252.135 58.284 250.263 56.36C248.443 54.436 246.207 53.474 243.555 53.474C240.903 53.474 238.641 54.436 236.769 56.36C234.949 58.232 234.039 60.832 234.039 64.16C234.039 67.488 234.949 70.14 236.769 72.116C238.641 74.04 240.903 75.002 243.555 75.002C246.207 75.002 248.443 74.04 250.263 72.116C252.135 70.192 253.071 67.566 253.071 64.238ZM302.813 42.008C307.805 42.008 311.809 43.672 314.825 47C317.841 50.276 319.349 54.8 319.349 60.572V86H306.089V62.366C306.089 59.454 305.335 57.192 303.827 55.58C302.319 53.968 300.291 53.162 297.743 53.162C295.195 53.162 293.167 53.968 291.659 55.58C290.151 57.192 289.397 59.454 289.397 62.366V86H276.059V28.28H289.397V48.326C290.749 46.402 292.595 44.868 294.935 43.724C297.275 42.58 299.901 42.008 302.813 42.008Z" fill="#4F6F52"/>
<path d="M26.884 84.596L24.9879 89.2225L26.884 84.596ZM19.24 78.824L15.2106 81.7844L15.23 81.8108L15.2498 81.837L19.24 78.824ZM16.276 69.62V64.62H11.129L11.2781 69.7649L16.276 69.62ZM30.472 69.62L35.4459 69.1099L34.9854 64.62H30.472V69.62ZM32.578 74.3L29.2067 77.9924L29.2514 78.0333L29.2971 78.073L32.578 74.3ZM41.938 74.534L44.9952 78.4904L45.0503 78.4479L45.1042 78.4038L41.938 74.534ZM42.25 67.358L38.7145 70.8935L38.765 70.944L38.8169 70.9931L42.25 67.358ZM38.896 65.174L36.8823 69.7506L36.915 69.7649L36.9478 69.7788L38.896 65.174ZM33.28 63.224L31.8046 68.0014L31.8286 68.0088L31.8526 68.0159L33.28 63.224ZM18.85 55.112L22.8383 52.0965L22.8383 52.0965L18.85 55.112ZM21.97 34.832L25.032 38.7847L25.0493 38.7714L25.0664 38.7578L21.97 34.832ZM50.986 34.832L47.8896 38.7578L47.9067 38.7714L47.924 38.7847L50.986 34.832ZM56.914 46.844V51.844H62.1729L61.9076 46.5918L56.914 46.844ZM42.484 46.844L37.4926 47.1376L37.7695 51.844H42.484V46.844ZM40.534 42.71L37.2531 46.483L37.3008 46.5245L37.3496 46.5648L40.534 42.71ZM32.032 42.476L35.2527 46.3006L35.3101 46.2522L35.366 46.2022L32.032 42.476ZM33.046 50.276L35.5987 45.9767L35.5987 45.9767L33.046 50.276ZM40.846 53.474L42.448 48.7376L42.4166 48.727L42.3851 48.7168L40.846 53.474ZM49.426 56.906L47.1899 61.3781L47.2108 61.3886L47.2318 61.3988L49.426 56.906ZM55.198 61.664L51.2459 64.7269L51.2459 64.7269L55.198 61.664ZM55.198 78.2L50.9726 75.5268L50.9529 75.5579L50.9337 75.5892L55.198 78.2ZM48.334 84.284L46.0979 79.8119H46.0979L48.334 84.284ZM37.648 81.546C34.1866 81.546 31.2581 80.9851 28.7801 79.9695L24.9879 89.2225C28.8539 90.8069 33.1014 91.546 37.648 91.546V81.546ZM28.7801 79.9695C26.3749 78.9837 24.5737 77.5902 23.2302 75.811L15.2498 81.837C17.7543 85.1538 21.0491 87.6083 24.9879 89.2225L28.7801 79.9695ZM23.2694 75.8636C22.0778 74.2417 21.3526 72.1903 21.2739 69.4751L11.2781 69.7649C11.4074 74.2257 12.6582 78.3103 15.2106 81.7844L23.2694 75.8636ZM16.276 74.62H30.472V64.62H16.276V74.62ZM25.4981 70.1301C25.7978 73.0522 26.887 75.8745 29.2067 77.9924L35.9493 70.6076C35.877 70.5415 35.5622 70.2438 35.4459 69.1099L25.4981 70.1301ZM29.2971 78.073C31.5876 80.0648 34.3977 80.86 37.258 80.86V70.86C36.2703 70.86 35.9604 70.6152 35.8589 70.527L29.2971 78.073ZM37.258 80.86C39.9396 80.86 42.7041 80.2609 44.9952 78.4904L38.8808 70.5776C38.8716 70.5847 38.7873 70.6498 38.547 70.7179C38.2947 70.7893 37.8818 70.86 37.258 70.86V80.86ZM45.1042 78.4038C47.5235 76.4243 48.654 73.669 48.654 70.712H38.654C38.654 70.8194 38.6445 70.8737 38.6422 70.8855C38.6402 70.8956 38.644 70.8724 38.6637 70.8286C38.6838 70.7838 38.7106 70.7393 38.7395 70.7021C38.7677 70.6659 38.7838 70.6544 38.7718 70.6642L45.1042 78.4038ZM48.654 70.712C48.654 68.0618 47.6742 65.6034 45.6831 63.7229L38.8169 70.9931C38.8184 70.9945 38.7989 70.9761 38.7706 70.9358C38.7418 70.8947 38.7136 70.8447 38.6908 70.7902C38.6681 70.7361 38.6577 70.6941 38.6537 70.6727C38.6498 70.6525 38.654 70.663 38.654 70.712H48.654ZM45.7855 63.8225C44.3742 62.4111 42.6876 61.349 40.8442 60.5692L36.9478 69.7788C37.8084 70.143 38.3578 70.5369 38.7145 70.8935L45.7855 63.8225ZM40.9097 60.5974C39.3256 59.9004 37.2209 59.1808 34.7074 58.4321L31.8526 68.0159C34.2271 68.7232 35.8664 69.3036 36.8823 69.7506L40.9097 60.5974ZM34.7554 58.4466C31.3594 57.3979 28.738 56.3937 26.8162 55.4552L22.4278 64.4408C24.978 65.6863 28.1286 66.8661 31.8046 68.0014L34.7554 58.4466ZM26.8162 55.4552C25.3376 54.7331 24.0125 53.6495 22.8383 52.0965L14.8617 58.1275C16.9115 60.8385 19.4344 62.9789 22.4278 64.4408L26.8162 55.4552ZM22.8383 52.0965C22.0486 51.052 21.432 49.4208 21.432 46.766H11.432C11.432 50.9752 12.4274 54.908 14.8617 58.1275L22.8383 52.0965ZM21.432 46.766C21.432 43.0542 22.6852 40.6027 25.032 38.7847L18.908 30.8792C13.8708 34.7813 11.432 40.2858 11.432 46.766H21.432ZM25.0664 38.7578C27.6676 36.7062 31.2972 35.464 36.4 35.464V25.464C29.6468 25.464 23.6564 27.1338 18.8736 30.9062L25.0664 38.7578ZM36.4 35.464C41.6302 35.464 45.3029 36.7176 47.8896 38.7578L54.0824 30.9062C49.2851 27.1224 43.2338 25.464 36.4 25.464V35.464ZM47.924 38.7847C50.3353 40.6526 51.7253 43.2344 51.9204 47.0962L61.9076 46.5918C61.5827 40.1576 59.0207 34.7314 54.048 30.8792L47.924 38.7847ZM56.914 41.844H42.484V51.844H56.914V41.844ZM47.4754 46.5504C47.3025 43.6118 46.1413 40.8567 43.7184 38.8552L37.3496 46.5648C37.3646 46.5772 37.3738 46.5861 37.3788 46.5912C37.3837 46.5962 37.3859 46.599 37.3865 46.5998C37.3871 46.6006 37.3877 46.6013 37.3886 46.6029C37.3896 46.6045 37.3923 46.609 37.3963 46.6176C37.4084 46.6432 37.4721 46.789 37.4926 47.1376L47.4754 46.5504ZM43.8149 38.937C41.5492 36.9668 38.7797 36.15 35.932 36.15V46.15C36.8283 46.15 37.1268 46.3732 37.2531 46.483L43.8149 38.937ZM35.932 36.15C33.3682 36.15 30.791 36.8771 28.698 38.7498L35.366 46.2022C35.3408 46.2247 35.321 46.2278 35.3575 46.2154C35.4079 46.1982 35.5805 46.15 35.932 46.15V36.15ZM28.8113 38.6514C26.4228 40.6629 25.55 43.4528 25.55 46.142H35.55C35.55 45.8391 35.5969 45.7893 35.5561 45.8904C35.5351 45.9423 35.4977 46.0165 35.4384 46.0987C35.3788 46.1813 35.3132 46.2496 35.2527 46.3006L28.8113 38.6514ZM25.55 46.142C25.55 49.8672 27.4854 52.7893 30.4933 54.5753L35.5987 45.9767C35.4632 45.8963 35.4047 45.8435 35.3938 45.8331C35.3854 45.8252 35.415 45.8521 35.4543 45.9172C35.4731 45.9482 35.4907 45.9826 35.5061 46.0189C35.5215 46.0552 35.5324 46.0885 35.5398 46.1165C35.5552 46.1748 35.55 46.1895 35.55 46.142H25.55ZM30.4933 54.5753C32.6484 55.8549 35.6775 57.057 39.3069 58.2312L42.3851 48.7168C38.9425 47.603 36.7716 46.6731 35.5987 45.9767L30.4933 54.5753ZM39.244 58.2104C42.6635 59.367 45.288 60.4272 47.1899 61.3781L51.6621 52.4339C49.196 51.2008 46.1005 49.973 42.448 48.7376L39.244 58.2104ZM47.2318 61.3988C48.7407 62.1357 50.0751 63.2161 51.2459 64.7269L59.1501 58.6011C57.0969 55.9519 54.5833 53.8603 51.6202 52.4132L47.2318 61.3988ZM51.2459 64.7269C52.0264 65.734 52.616 67.2538 52.616 69.698H62.616C62.616 65.5902 61.5936 61.754 59.1501 58.6011L51.2459 64.7269ZM52.616 69.698C52.616 71.9063 52.0604 73.8074 50.9726 75.5268L59.4234 80.8732C61.5596 77.4966 62.616 73.7297 62.616 69.698H52.616ZM50.9337 75.5892C49.9231 77.24 48.3876 78.667 46.0979 79.8119L50.5701 88.7561C54.3124 86.885 57.3529 84.256 59.4623 80.8108L50.9337 75.5892ZM46.0979 79.8119C43.9115 80.9051 41.1467 81.546 37.648 81.546V91.546C42.3653 91.546 46.7245 90.6789 50.5701 88.7561L46.0979 79.8119ZM106.618 67.436V72.436H111.075L111.585 68.0091L106.618 67.436ZM76.4323 67.436V62.436H71.0329L71.447 67.8195L76.4323 67.436ZM79.0063 73.676L75.5333 77.273L75.5963 77.3339L75.6615 77.3925L79.0063 73.676ZM91.6423 71.57V66.57H88.4473L87.1049 69.4694L91.6423 71.57ZM105.838 71.57L110.684 72.8034L112.27 66.57H105.838V71.57ZM101.86 79.292L98.0335 76.074L98.0118 76.0998L97.9905 76.1258L101.86 79.292ZM94.7623 84.674L96.8313 89.2258L94.7623 84.674ZM73.7803 83.894L71.3812 88.2809L73.7803 83.894ZM65.9803 76.094L70.3542 73.6715L65.9803 76.094ZM65.9023 52.382L61.5283 49.9595L61.514 49.9854L61.4999 50.0115L65.9023 52.382ZM73.7023 44.582L76.1013 48.9689H76.1013L73.7023 44.582ZM96.4003 44.504L94.0256 48.9041L96.4003 44.504ZM104.044 52.07L99.6735 54.4982L99.6881 54.5245L99.7031 54.5507L104.044 52.07ZM93.2023 60.026V65.026H98.2023V60.026H93.2023ZM90.8623 54.566L94.1369 50.7876L94.1369 50.7876L90.8623 54.566ZM79.3183 54.488L76.1174 50.6469L76.0852 50.6737L76.0536 50.701L79.3183 54.488ZM76.5103 60.026L71.5672 59.2738L70.6919 65.026H76.5103V60.026ZM101.852 63.536C101.852 64.5762 101.787 65.6843 101.651 66.8629L111.585 68.0091C111.761 66.4837 111.852 64.9918 111.852 63.536H101.852ZM106.618 62.436H76.4323V72.436H106.618V62.436ZM71.447 67.8195C71.7206 71.3759 72.9115 74.7417 75.5333 77.273L82.4793 70.079C82.085 69.6983 81.56 68.9041 81.4176 67.0525L71.447 67.8195ZM75.6615 77.3925C78.203 79.6799 81.3172 80.782 84.7003 80.782V70.782C83.6114 70.782 82.9295 70.4801 82.3511 69.9595L75.6615 77.3925ZM84.7003 80.782C87.0694 80.782 89.4249 80.2782 91.5254 79.0037C93.6493 77.7151 95.1738 75.8432 96.1796 73.6706L87.1049 69.4694C86.8108 70.1048 86.5283 70.3389 86.3381 70.4543C86.1247 70.5838 85.6592 70.782 84.7003 70.782V80.782ZM91.6423 76.57H105.838V66.57H91.6423V76.57ZM100.993 70.3366C100.453 72.4571 99.4793 74.3546 98.0335 76.074L105.687 82.51C108.089 79.6534 109.768 76.4029 110.684 72.8034L100.993 70.3366ZM97.9905 76.1258C96.6347 77.7829 94.8995 79.1193 92.6933 80.1222L96.8313 89.2258C100.345 87.6287 103.342 85.3772 105.73 82.4582L97.9905 76.1258ZM92.6933 80.1222C90.5601 81.0918 88.0804 81.624 85.1683 81.624V91.624C89.3282 91.624 93.2444 90.8562 96.8313 89.2258L92.6933 80.1222ZM85.1683 81.624C81.637 81.624 78.6842 80.877 76.1793 79.5071L71.3812 88.2809C75.5324 90.551 80.1716 91.624 85.1683 91.624V81.624ZM76.1793 79.5071C73.6986 78.1505 71.7763 76.2392 70.3542 73.6715L61.6063 78.5165C63.9282 82.7088 67.2059 85.9975 71.3812 88.2809L76.1793 79.5071ZM70.3542 73.6715C68.958 71.1506 68.1723 68.06 68.1723 64.238H58.1723C58.1723 69.464 59.2585 74.2774 61.6063 78.5165L70.3542 73.6715ZM68.1723 64.238C68.1723 60.3936 68.9415 57.2841 70.3046 54.7525L61.4999 50.0115C59.2231 54.2399 58.1723 59.0343 58.1723 64.238H68.1723ZM70.2762 54.8045C71.6983 52.2368 73.6206 50.3255 76.1013 48.9689L71.3032 40.1951C67.1279 42.4785 63.8502 45.7672 61.5283 49.9595L70.2762 54.8045ZM76.1013 48.9689C78.5975 47.6038 81.5737 46.852 85.1683 46.852V36.852C80.1309 36.852 75.4631 37.9202 71.3032 40.1951L76.1013 48.9689ZM85.1683 46.852C88.6617 46.852 91.5706 47.5792 94.0256 48.9041L98.7749 40.1039C94.678 37.8928 90.0989 36.852 85.1683 36.852V46.852ZM94.0256 48.9041C96.4557 50.2156 98.3137 52.0506 99.6735 54.4982L108.415 49.6418C106.135 45.5374 102.897 42.3284 98.7749 40.1039L94.0256 48.9041ZM99.7031 54.5507C101.079 56.9593 101.852 59.8994 101.852 63.536H111.852C111.852 58.4366 110.753 53.7327 108.386 49.5893L99.7031 54.5507ZM98.2023 60.026C98.2023 56.4643 96.9193 53.199 94.1369 50.7876L87.5876 58.3444C87.9252 58.637 88.2023 59.0117 88.2023 60.026H98.2023ZM94.1369 50.7876C91.5463 48.5423 88.384 47.538 85.0123 47.538V57.538C86.3206 57.538 87.0583 57.8857 87.5876 58.3444L94.1369 50.7876ZM85.0123 47.538C81.7331 47.538 78.6685 48.5209 76.1174 50.6469L82.5192 58.3291C83.088 57.8551 83.8195 57.538 85.0123 57.538V47.538ZM76.0536 50.701C73.4581 52.9385 72.0704 55.9669 71.5672 59.2738L81.4534 60.7782C81.6782 59.3011 82.1625 58.6375 82.583 58.275L76.0536 50.701ZM76.5103 65.026H93.2023V55.026H76.5103V65.026ZM114.747 35.924L111.276 39.5232L111.341 39.5862L111.409 39.6468L114.747 35.924ZM114.747 25.628L118.149 29.292L118.154 29.2875L114.747 25.628ZM126.135 25.628L122.664 29.2272L122.729 29.2902L122.797 29.3508L126.135 25.628ZM126.135 35.924L129.537 39.588L129.542 39.5835L126.135 35.924ZM123.171 103.16L119.899 99.3792L119.878 99.397L119.858 99.415L123.171 103.16ZM106.635 106.748H101.635V111.748H106.635V106.748ZM106.635 95.438V90.438H101.635V95.438H106.635ZM112.953 94.58L109.574 90.8942V90.8942L112.953 94.58ZM113.889 42.476V37.476H108.889V42.476H113.889ZM127.227 42.476H132.227V37.476H127.227V42.476ZM120.519 32.952C119.207 32.952 118.534 32.6041 118.084 32.2011L111.409 39.6468C113.976 41.9478 117.151 42.952 120.519 42.952V32.952ZM118.217 32.3248C117.742 31.866 117.563 31.4504 117.563 30.776H107.563C107.563 34.1575 108.84 37.174 111.276 39.5232L118.217 32.3248ZM117.563 30.776C117.563 30.0129 117.764 29.6491 118.149 29.292L111.344 21.964C108.817 24.3109 107.563 27.3791 107.563 30.776H117.563ZM118.154 29.2875C118.61 28.8631 119.258 28.522 120.519 28.522V18.522C117.099 18.522 113.9 19.5849 111.34 21.9685L118.154 29.2875ZM120.519 28.522C121.696 28.522 122.265 28.842 122.664 29.2272L129.605 22.0288C127.093 19.606 123.917 18.522 120.519 18.522V28.522ZM122.797 29.3508C123.215 29.7256 123.397 30.0731 123.397 30.776H133.397C133.397 27.3189 132.07 24.2344 129.472 21.9052L122.797 29.3508ZM123.397 30.776C123.397 31.391 123.238 31.7892 122.728 32.2645L129.542 39.5835C132.047 37.2508 133.397 34.217 133.397 30.776H123.397ZM122.732 32.26C122.341 32.6233 121.75 32.952 120.519 32.952V42.952C123.864 42.952 127.016 41.9287 129.537 39.588L122.732 32.26ZM122.227 91.616C122.227 96.2517 121.053 98.3808 119.899 99.3792L126.443 106.941C130.697 103.259 132.227 97.6923 132.227 91.616H122.227ZM119.858 99.415C118.34 100.758 115.896 101.748 111.861 101.748V111.748C117.497 111.748 122.594 110.346 126.484 106.905L119.858 99.415ZM111.861 101.748H106.635V111.748H111.861V101.748ZM111.635 106.748V95.438H101.635V106.748H111.635ZM106.635 100.438H109.833V90.438H106.635V100.438ZM109.833 100.438C111.71 100.438 114.316 100.113 116.331 98.2658L109.574 90.8942C109.985 90.5177 110.338 90.4137 110.379 90.4025C110.403 90.3957 110.374 90.4058 110.278 90.4169C110.181 90.4279 110.036 90.438 109.833 90.438V100.438ZM116.331 98.2658C118.433 96.3393 118.889 93.7285 118.889 91.772H108.889C108.889 92.045 108.853 92.0424 108.911 91.8679C108.979 91.6641 109.163 91.271 109.574 90.8942L116.331 98.2658ZM118.889 91.772V42.476H108.889V91.772H118.889ZM113.889 47.476H127.227V37.476H113.889V47.476ZM122.227 42.476V91.616H132.227V42.476H122.227ZM136.66 52.382L132.202 50.1185L132.188 50.146L132.175 50.1736L136.66 52.382ZM143.602 44.582L146.252 48.822H146.252L143.602 44.582ZM161.386 43.724L158.992 48.1135L159.013 48.1247L159.034 48.1358L161.386 43.724ZM166.768 48.638L162.51 51.2585L171.768 66.3032V48.638H166.768ZM166.768 42.476V37.476H161.768V42.476H166.768ZM180.106 42.476H185.106V37.476H180.106V42.476ZM180.106 86V91H185.106V86H180.106ZM166.768 86H161.768V91H166.768V86ZM166.768 79.838H171.768V62.773L162.559 77.1397L166.768 79.838ZM161.308 84.752L158.956 80.3402L158.935 80.3513L158.914 80.3625L161.308 84.752ZM143.602 83.894L140.899 88.0999L140.925 88.1171L140.952 88.134L143.602 83.894ZM136.66 76.016L132.161 78.1974L132.181 78.2386L132.202 78.2795L136.66 76.016ZM163.96 56.36L160.328 59.796L160.352 59.8216L160.377 59.8468L163.96 56.36ZM150.466 56.36L146.883 52.8732L146.882 52.8746L150.466 56.36ZM150.466 72.116L146.789 75.5034L146.835 75.5537L146.883 75.6028L150.466 72.116ZM163.96 72.116L160.377 68.6292L160.352 68.6544L160.328 68.68L163.96 72.116ZM139.164 64.16C139.164 60.3117 139.878 57.1664 141.146 54.5904L132.175 50.1736C130.115 54.3576 129.164 59.0643 129.164 64.16H139.164ZM141.119 54.6455C142.467 51.9897 144.19 50.1108 146.252 48.822L140.952 40.342C137.191 42.6932 134.286 46.0143 132.202 50.1185L141.119 54.6455ZM146.252 48.822C148.333 47.5215 150.657 46.852 153.352 46.852V36.852C148.871 36.852 144.696 38.0025 140.952 40.342L146.252 48.822ZM153.352 46.852C155.732 46.852 157.559 47.3316 158.992 48.1135L163.781 39.3345C160.638 37.6203 157.109 36.852 153.352 36.852V46.852ZM159.034 48.1358C160.682 49.0149 161.778 50.0695 162.51 51.2585L171.027 46.0175C169.262 43.1505 166.771 40.9291 163.739 39.3122L159.034 48.1358ZM171.768 48.638V42.476H161.768V48.638H171.768ZM166.768 47.476H180.106V37.476H166.768V47.476ZM175.106 42.476V86H185.106V42.476H175.106ZM180.106 81H166.768V91H180.106V81ZM171.768 86V79.838H161.768V86H171.768ZM162.559 77.1397C161.767 78.376 160.618 79.4534 158.956 80.3402L163.661 89.1638C166.679 87.5546 169.17 85.356 170.978 82.5363L162.559 77.1397ZM158.914 80.3625C157.481 81.1443 155.654 81.624 153.274 81.624V91.624C157.031 91.624 160.56 90.8557 163.703 89.1415L158.914 80.3625ZM153.274 81.624C150.646 81.624 148.345 80.962 146.252 79.654L140.952 88.134C144.684 90.466 148.831 91.624 153.274 91.624V81.624ZM146.306 79.6881C144.211 78.3412 142.472 76.4182 141.119 73.7525L132.202 78.2795C134.281 82.3738 137.17 85.7028 140.899 88.0999L146.306 79.6881ZM141.16 73.8346C139.877 71.1903 139.164 68.006 139.164 64.16H129.164C129.164 69.258 130.115 73.9777 132.161 78.1974L141.16 73.8346ZM171.768 64.238C171.768 59.9369 170.531 55.9427 167.544 52.8732L160.377 59.8468C161.134 60.6253 161.768 61.8831 161.768 64.238H171.768ZM167.593 52.924C164.827 50.0001 161.277 48.474 157.252 48.474V58.474C158.532 58.474 159.454 58.8719 160.328 59.796L167.593 52.924ZM157.252 48.474C153.232 48.474 149.683 49.9951 146.883 52.8732L154.05 59.8468C154.994 58.8769 155.969 58.474 157.252 58.474V48.474ZM146.882 52.8746C143.923 55.9173 142.736 59.9039 142.736 64.16H152.736C152.736 61.7601 153.37 60.5467 154.051 59.8454L146.882 52.8746ZM142.736 64.16C142.736 68.4295 143.928 72.3969 146.789 75.5034L154.144 68.7286C153.365 67.8831 152.736 66.5465 152.736 64.16H142.736ZM146.883 75.6028C149.683 78.4809 153.232 80.002 157.252 80.002V70.002C155.969 70.002 154.994 69.5991 154.05 68.6292L146.883 75.6028ZM157.252 80.002C161.277 80.002 164.827 78.4759 167.593 75.552L160.328 68.68C159.454 69.6041 158.532 70.002 157.252 70.002V80.002ZM167.544 75.6028C170.531 72.5333 171.768 68.5391 171.768 64.238H161.768C161.768 66.5929 161.134 67.8507 160.377 68.6292L167.544 75.6028ZM203.094 49.73H198.094V66.5497L207.282 52.4613L203.094 49.73ZM208.944 44.114L211.445 48.4433L211.481 48.4227L211.516 48.4015L208.944 44.114ZM216.744 42.008H221.744V37.008H216.744V42.008ZM216.744 56.126V61.126H221.744V56.126H216.744ZM205.59 58.31L208.814 62.1315L208.849 62.1025L208.882 62.0729L205.59 58.31ZM203.094 86V91H208.094V86H203.094ZM189.756 86H184.756V91H189.756V86ZM189.756 42.476V37.476H184.756V42.476H189.756ZM203.094 42.476H208.094V37.476H203.094V42.476ZM207.282 52.4613C208.438 50.6887 209.824 49.3802 211.445 48.4433L206.443 39.7847C203.384 41.5518 200.87 43.9873 198.906 46.9987L207.282 52.4613ZM211.516 48.4015C213.041 47.4866 214.745 47.008 216.744 47.008V37.008C213.023 37.008 209.527 37.9334 206.371 39.8265L211.516 48.4015ZM211.744 42.008V56.126H221.744V42.008H211.744ZM216.744 51.126H213.078V61.126H216.744V51.126ZM213.078 51.126C209.131 51.126 205.237 51.975 202.297 54.5471L208.882 62.0729C209.271 61.733 210.369 61.126 213.078 61.126V51.126ZM202.366 54.4885C199.018 57.3128 198.094 61.6686 198.094 65.798H208.094C208.094 64.3598 208.264 63.4067 208.461 62.8161C208.556 62.5318 208.648 62.359 208.709 62.263C208.768 62.1715 208.806 62.1388 208.814 62.1315L202.366 54.4885ZM198.094 65.798V86H208.094V65.798H198.094ZM203.094 81H189.756V91H203.094V81ZM194.756 86V42.476H184.756V86H194.756ZM189.756 47.476H203.094V37.476H189.756V47.476ZM198.094 42.476V49.73H208.094V42.476H198.094ZM222.963 52.382L218.505 50.1185L218.491 50.146L218.477 50.1736L222.963 52.382ZM229.905 44.582L232.555 48.822H232.555L229.905 44.582ZM247.689 43.724L245.295 48.1135L245.316 48.1247L245.336 48.1358L247.689 43.724ZM253.071 48.638L248.813 51.2585L258.071 66.3032V48.638H253.071ZM253.071 42.476V37.476H248.071V42.476H253.071ZM266.409 42.476H271.409V37.476H266.409V42.476ZM266.409 86V91H271.409V86H266.409ZM253.071 86H248.071V91H253.071V86ZM253.071 79.838H258.071V62.773L248.862 77.1397L253.071 79.838ZM247.611 84.752L245.258 80.3402L245.238 80.3513L245.217 80.3625L247.611 84.752ZM229.905 83.894L227.201 88.0999L227.228 88.1171L227.255 88.134L229.905 83.894ZM222.963 76.016L218.464 78.1974L218.484 78.2386L218.505 78.2795L222.963 76.016ZM250.263 56.36L246.631 59.796L246.655 59.8216L246.68 59.8468L250.263 56.36ZM236.769 56.36L233.186 52.8732L233.184 52.8746L236.769 56.36ZM236.769 72.116L233.091 75.5034L233.138 75.5537L233.186 75.6028L236.769 72.116ZM250.263 72.116L246.68 68.6292L246.655 68.6544L246.631 68.68L250.263 72.116ZM225.467 64.16C225.467 60.3117 226.181 57.1664 227.449 54.5904L218.477 50.1736C216.417 54.3576 215.467 59.0643 215.467 64.16H225.467ZM227.422 54.6455C228.77 51.9897 230.493 50.1108 232.555 48.822L227.255 40.342C223.493 42.6932 220.589 46.0143 218.505 50.1185L227.422 54.6455ZM232.555 48.822C234.636 47.5215 236.96 46.852 239.655 46.852V36.852C235.174 36.852 230.998 38.0025 227.255 40.342L232.555 48.822ZM239.655 46.852C242.035 46.852 243.862 47.3316 245.295 48.1135L250.083 39.3345C246.941 37.6203 243.411 36.852 239.655 36.852V46.852ZM245.336 48.1358C246.985 49.0149 248.081 50.0695 248.813 51.2585L257.329 46.0175C255.565 43.1505 253.074 40.9291 250.042 39.3122L245.336 48.1358ZM258.071 48.638V42.476H248.071V48.638H258.071ZM253.071 47.476H266.409V37.476H253.071V47.476ZM261.409 42.476V86H271.409V42.476H261.409ZM266.409 81H253.071V91H266.409V81ZM258.071 86V79.838H248.071V86H258.071ZM248.862 77.1397C248.069 78.376 246.921 79.4534 245.258 80.3402L249.964 89.1638C252.981 87.5546 255.473 85.356 257.281 82.5363L248.862 77.1397ZM245.217 80.3625C243.784 81.1443 241.957 81.624 239.577 81.624V91.624C243.333 91.624 246.863 90.8557 250.005 89.1415L245.217 80.3625ZM239.577 81.624C236.949 81.624 234.648 80.962 232.555 79.654L227.255 88.134C230.986 90.466 235.133 91.624 239.577 91.624V81.624ZM232.609 79.6881C230.514 78.3412 228.775 76.4182 227.422 73.7525L218.505 78.2795C220.584 82.3738 223.473 85.7028 227.201 88.0999L232.609 79.6881ZM227.462 73.8346C226.18 71.1903 225.467 68.006 225.467 64.16H215.467C215.467 69.258 216.418 73.9777 218.464 78.1974L227.462 73.8346ZM258.071 64.238C258.071 59.9369 256.833 55.9427 253.847 52.8732L246.68 59.8468C247.437 60.6253 248.071 61.8831 248.071 64.238H258.071ZM253.896 52.924C251.13 50.0001 247.579 48.474 243.555 48.474V58.474C244.835 58.474 245.757 58.8719 246.631 59.796L253.896 52.924ZM243.555 48.474C239.535 48.474 235.986 49.9951 233.186 52.8732L240.353 59.8468C241.297 58.8769 242.272 58.474 243.555 58.474V48.474ZM233.184 52.8746C230.226 55.9173 229.039 59.9039 229.039 64.16H239.039C239.039 61.7601 239.672 60.5467 240.354 59.8454L233.184 52.8746ZM229.039 64.16C229.039 68.4295 230.23 72.3969 233.091 75.5034L240.447 68.7286C239.668 67.8831 239.039 66.5465 239.039 64.16H229.039ZM233.186 75.6028C235.986 78.4809 239.535 80.002 243.555 80.002V70.002C242.272 70.002 241.297 69.5991 240.353 68.6292L233.186 75.6028ZM243.555 80.002C247.579 80.002 251.13 78.4759 253.896 75.552L246.631 68.68C245.757 69.6041 244.835 70.002 243.555 70.002V80.002ZM253.847 75.6028C256.833 72.5333 258.071 68.5391 258.071 64.238H248.071C248.071 66.5929 247.437 67.8507 246.68 68.6292L253.847 75.6028ZM314.825 47L311.12 50.3576L311.133 50.3721L311.146 50.3865L314.825 47ZM319.349 86V91H324.349V86H319.349ZM306.089 86H301.089V91H306.089V86ZM303.827 55.58L300.175 58.9958V58.9958L303.827 55.58ZM291.659 55.58L295.31 58.9958V58.9958L291.659 55.58ZM289.397 86V91H294.397V86H289.397ZM276.059 86H271.059V91H276.059V86ZM276.059 28.28V23.28H271.059V28.28H276.059ZM289.397 28.28H294.397V23.28H289.397V28.28ZM289.397 48.326H284.397V64.1379L293.488 51.2007L289.397 48.326ZM294.935 43.724L292.739 39.2321V39.2321L294.935 43.724ZM302.813 47.008C306.568 47.008 309.163 48.1986 311.12 50.3576L318.53 43.6424C314.454 39.1454 309.041 37.008 302.813 37.008V47.008ZM311.146 50.3865C313.084 52.4918 314.349 55.6717 314.349 60.572H324.349C324.349 53.9283 322.597 48.0602 318.503 43.6135L311.146 50.3865ZM314.349 60.572V86H324.349V60.572H314.349ZM319.349 81H306.089V91H319.349V81ZM311.089 86V62.366H301.089V86H311.089ZM311.089 62.366C311.089 58.6012 310.1 54.967 307.478 52.1642L300.175 58.9958C300.569 59.417 301.089 60.3068 301.089 62.366H311.089ZM307.478 52.1642C304.876 49.3826 301.441 48.162 297.743 48.162V58.162C299.141 58.162 299.761 58.5533 300.175 58.9958L307.478 52.1642ZM297.743 48.162C294.045 48.162 290.609 49.3826 288.007 52.1642L295.31 58.9958C295.724 58.5533 296.345 58.162 297.743 58.162V48.162ZM288.007 52.1642C285.385 54.967 284.397 58.6012 284.397 62.366H294.397C294.397 60.3068 294.916 59.417 295.31 58.9958L288.007 52.1642ZM284.397 62.366V86H294.397V62.366H284.397ZM289.397 81H276.059V91H289.397V81ZM281.059 86V28.28H271.059V86H281.059ZM276.059 33.28H289.397V23.28H276.059V33.28ZM284.397 28.28V48.326H294.397V28.28H284.397ZM293.488 51.2007C294.304 50.0391 295.465 49.0301 297.131 48.2159L292.739 39.2321C289.724 40.7059 287.193 42.7649 285.306 45.4513L293.488 51.2007ZM297.131 48.2159C298.71 47.4439 300.571 47.008 302.813 47.008V37.008C299.23 37.008 295.839 37.7161 292.739 39.2321L297.131 48.2159Z" fill="white" mask="url(#path-2-outside-1_39_30)"/>
<g opacity="0.2">
<mask id="path-4-outside-2_39_30" maskUnits="userSpaceOnUse" x="87" y="51" width="170" height="102" fill="black">
<rect fill="white" x="87" y="51" width="170" height="102"/>
<path d="M102.461 108.469C102.133 107.906 101.531 106.898 100.656 105.445C99.7188 103.93 99.0312 103.172 98.5938 103.172C98.25 103.172 97.9609 103.523 97.7266 104.227C97.5234 104.82 97.4219 105.312 97.4219 105.703C97.4219 106.781 97.7734 108.32 98.4766 110.32C99.2422 112.539 100.008 113.82 100.773 114.164C101.055 114.289 101.328 114.352 101.594 114.352C102.172 114.352 102.461 113.062 102.461 110.484V108.469ZM88.9609 116.883V88.7578C88.9609 86.0078 89.8125 83.8438 91.5156 82.2656C93.1719 80.7188 95.3828 79.9453 98.1484 79.9453C101.586 79.9453 104.062 80.5391 105.578 81.7266C107.281 83.0859 108.133 85.4297 108.133 88.7578V106.172C108.977 107.516 110.242 108.977 111.93 110.555C113.945 112.445 115.523 113.391 116.664 113.391C117.227 113.391 117.531 113.094 117.578 112.5C117.672 111.203 117.719 110.188 117.719 109.453V87.1172C117.719 82.0078 120.453 79.4531 125.922 79.4531C130.656 79.4531 133.023 81.9688 133.023 87V117.047H127.117V87.2812C127.117 84.2344 125.938 82.7109 123.578 82.7109C122.547 82.7109 121.586 83.1406 120.695 84C119.805 84.8438 119.359 85.7812 119.359 86.8125V107.836C119.359 110.93 119.188 112.961 118.844 113.93C118.109 115.992 116.43 117.023 113.805 117.023C112.992 117.023 111.945 116.352 110.664 115.008C110.07 114.352 109.18 113.359 107.992 112.031C108.195 115.312 106.344 116.953 102.438 116.953C102.188 116.953 101.805 116.945 101.289 116.93C100.789 116.898 100.414 116.883 100.164 116.883C98.1172 116.883 96.6094 115.133 95.6406 111.633C94.9219 109.023 94.6172 106.195 94.7266 103.148C94.8359 100.086 96.2266 98.5312 98.8984 98.4844C99.3203 98.4688 99.9531 99.0547 100.797 100.242L102.461 102.562V88.7578C102.461 84.3516 100.961 82.1484 97.9609 82.1484C95.8516 82.1484 94.1094 82.7109 92.7344 83.8359C91.2812 85.0391 90.5547 86.6797 90.5547 88.7578V116.883H88.9609ZM112.141 70.9453C112.219 71.0234 112.492 71.2031 112.961 71.4844L109.305 74.4375C108.727 74.9062 107.727 75.1406 106.305 75.1406C103.539 75.1406 101.273 74.6562 99.5078 73.6875C97.2734 72.4688 96.1562 70.5938 96.1562 68.0625C96.1562 64.5 98.0391 61.2812 101.805 58.4062C104.18 56.5938 106.953 55.125 110.125 54C113.359 52.8594 116.43 52.2891 119.336 52.2891C123.148 52.2891 126.242 53.2891 128.617 55.2891C130.07 56.5078 130.797 57.8984 130.797 59.4609C130.797 61.8984 129.109 64.5859 125.734 67.5234C124.859 68.2891 123.328 69.3672 121.141 70.7578C120.516 71.1641 119.164 72.0156 117.086 73.3125H115.938C116.625 72.75 117.836 71.9141 119.57 70.8047C121.164 69.7891 122.352 68.9375 123.133 68.25C125.477 66.1562 126.648 64.2188 126.648 62.4375C126.648 61.0781 125.969 59.8281 124.609 58.6875C122.188 56.6562 118.945 55.6406 114.883 55.6406C111.352 55.6406 108.023 56.375 104.898 57.8438C101.523 59.4375 99.8359 61.5234 99.8359 64.1016C99.8359 66.4297 101.008 68.3125 103.352 69.75C105.352 71 107.586 71.625 110.055 71.625C110.914 71.625 111.609 71.3984 112.141 70.9453ZM172.07 104.25V110.812C172.07 112.312 172.43 113.289 173.148 113.742L178.234 117H161.43C161.008 117 160.383 117.016 159.555 117.047C158.727 117.078 158.102 117.094 157.68 117.094C156.195 117.094 155.141 116.867 154.516 116.414C153.703 115.82 153.297 114.734 153.297 113.156V88.2188C153.297 85.1875 152.031 83.6719 149.5 83.6719C146.219 83.6719 144.578 85.3828 144.578 88.8047V117H142.961V88.8047C142.961 85.9453 143.93 83.7031 145.867 82.0781C147.68 80.5312 150.039 79.7578 152.945 79.7578C155.039 79.7578 156.688 80.6797 157.891 82.5234C158.938 84.1172 159.461 86.0156 159.461 88.2188V112.219C159.461 113.688 159.844 114.734 160.609 115.359C161.062 115.734 163.062 115.922 166.609 115.922C169.828 115.922 172.125 115.844 173.5 115.688C171.984 115.344 171.039 114.68 170.664 113.695C170.477 113.211 170.383 112.094 170.383 110.344V89.25C170.383 86.75 171.203 84.6094 172.844 82.8281C174.5 81.0312 176.57 80.0391 179.055 79.8516C180.773 79.7266 182.906 79.6641 185.453 79.6641C188.406 79.6641 189.883 79.8125 189.883 80.1094C186.914 83.6719 181.555 90.1328 173.805 99.4922C175.914 100.742 179.016 103.742 183.109 108.492C186.016 111.867 188.289 114.703 189.93 117H183.906C182.188 114.797 180.227 112.477 178.023 110.039C175.305 107.023 173.32 105.094 172.07 104.25ZM172.07 99.8438C173.305 98.3906 175.555 95.5781 178.82 91.4062C181.773 87.625 184.078 84.8594 185.734 83.1094C183.641 82.9219 182.023 82.8281 180.883 82.8281C177.211 82.8281 174.758 83.6406 173.523 85.2656C172.539 86.5625 172.047 88.9844 172.047 92.5312V94.5234L172.07 99.8438ZM227.898 117.023H221.945V86.6016C221.945 83.8672 221.25 82.5 219.859 82.5C218.547 82.5 216.633 83.1484 214.117 84.4453C211.961 85.5547 210.555 86.4375 209.898 87.0938V117.023H204.344V87.5156C204.344 85.7656 204.281 84.6406 204.156 84.1406C203.875 83.0156 203.227 82.4531 202.211 82.4531C200.883 82.4531 199.781 82.7969 198.906 83.4844C198.203 84.0312 197.477 84.9531 196.727 86.25H194.945C195.648 84.0156 197.086 82.3125 199.258 81.1406C201.148 80.1094 203.359 79.5938 205.891 79.5938C208.5 79.5938 209.836 81.4531 209.898 85.1719L214.07 82.0781C216.82 80.3906 219.742 79.5625 222.836 79.5938C224.773 79.6094 226.117 80.0391 226.867 80.8828C227.555 81.6797 227.898 83.0625 227.898 85.0312V117.023ZM234.906 90.1875C234.906 91.8438 234.953 92.8359 235.047 93.1641L232.234 100.406C232.047 99.7031 231.953 98.9453 231.953 98.1328C231.953 96.5547 232.281 94.8984 232.938 93.1641L232.984 93.0938L235.656 86.1562C236.375 84.2969 237.547 82.7734 239.172 81.5859C240.812 80.3828 242.617 79.7812 244.586 79.7812C247.242 79.7812 249.266 80.7266 250.656 82.6172C251.875 84.3047 252.484 86.5234 252.484 89.2734C252.484 93.3984 250.555 98.2188 246.695 103.734C246.258 104.359 244.508 106.656 241.445 110.625C244.68 110.281 247.008 110.445 248.43 111.117C250.695 112.18 252.508 114.484 253.867 118.031C255.023 121.047 255.602 124.008 255.602 126.914C255.602 136.805 252.211 144.391 245.43 149.672C243.93 150.844 242.914 151.516 242.383 151.688C248.914 145.969 252.18 139.062 252.18 130.969C252.18 130.328 252.164 129.742 252.133 129.211C252.008 127.07 251.297 124.734 250 122.203C248.578 119.438 247 117.641 245.266 116.812C244.328 116.359 242.875 116.133 240.906 116.133C238.859 116.133 236.703 116.344 234.438 116.766L238.141 111.117C240.422 109.133 242.695 106.508 244.961 103.242C248.008 98.8516 249.531 95.2188 249.531 92.3438C249.531 90.5 248.922 88.9297 247.703 87.6328C246.5 86.3203 244.984 85.6641 243.156 85.6641C241.938 85.6641 240.32 86.1328 238.305 87.0703C236.039 88.1172 234.906 89.1562 234.906 90.1875Z"/>
</mask>
<path d="M102.461 108.469C102.133 107.906 101.531 106.898 100.656 105.445C99.7188 103.93 99.0312 103.172 98.5938 103.172C98.25 103.172 97.9609 103.523 97.7266 104.227C97.5234 104.82 97.4219 105.312 97.4219 105.703C97.4219 106.781 97.7734 108.32 98.4766 110.32C99.2422 112.539 100.008 113.82 100.773 114.164C101.055 114.289 101.328 114.352 101.594 114.352C102.172 114.352 102.461 113.062 102.461 110.484V108.469ZM88.9609 116.883V88.7578C88.9609 86.0078 89.8125 83.8438 91.5156 82.2656C93.1719 80.7188 95.3828 79.9453 98.1484 79.9453C101.586 79.9453 104.062 80.5391 105.578 81.7266C107.281 83.0859 108.133 85.4297 108.133 88.7578V106.172C108.977 107.516 110.242 108.977 111.93 110.555C113.945 112.445 115.523 113.391 116.664 113.391C117.227 113.391 117.531 113.094 117.578 112.5C117.672 111.203 117.719 110.188 117.719 109.453V87.1172C117.719 82.0078 120.453 79.4531 125.922 79.4531C130.656 79.4531 133.023 81.9688 133.023 87V117.047H127.117V87.2812C127.117 84.2344 125.938 82.7109 123.578 82.7109C122.547 82.7109 121.586 83.1406 120.695 84C119.805 84.8438 119.359 85.7812 119.359 86.8125V107.836C119.359 110.93 119.188 112.961 118.844 113.93C118.109 115.992 116.43 117.023 113.805 117.023C112.992 117.023 111.945 116.352 110.664 115.008C110.07 114.352 109.18 113.359 107.992 112.031C108.195 115.312 106.344 116.953 102.438 116.953C102.188 116.953 101.805 116.945 101.289 116.93C100.789 116.898 100.414 116.883 100.164 116.883C98.1172 116.883 96.6094 115.133 95.6406 111.633C94.9219 109.023 94.6172 106.195 94.7266 103.148C94.8359 100.086 96.2266 98.5312 98.8984 98.4844C99.3203 98.4688 99.9531 99.0547 100.797 100.242L102.461 102.562V88.7578C102.461 84.3516 100.961 82.1484 97.9609 82.1484C95.8516 82.1484 94.1094 82.7109 92.7344 83.8359C91.2812 85.0391 90.5547 86.6797 90.5547 88.7578V116.883H88.9609ZM112.141 70.9453C112.219 71.0234 112.492 71.2031 112.961 71.4844L109.305 74.4375C108.727 74.9062 107.727 75.1406 106.305 75.1406C103.539 75.1406 101.273 74.6562 99.5078 73.6875C97.2734 72.4688 96.1562 70.5938 96.1562 68.0625C96.1562 64.5 98.0391 61.2812 101.805 58.4062C104.18 56.5938 106.953 55.125 110.125 54C113.359 52.8594 116.43 52.2891 119.336 52.2891C123.148 52.2891 126.242 53.2891 128.617 55.2891C130.07 56.5078 130.797 57.8984 130.797 59.4609C130.797 61.8984 129.109 64.5859 125.734 67.5234C124.859 68.2891 123.328 69.3672 121.141 70.7578C120.516 71.1641 119.164 72.0156 117.086 73.3125H115.938C116.625 72.75 117.836 71.9141 119.57 70.8047C121.164 69.7891 122.352 68.9375 123.133 68.25C125.477 66.1562 126.648 64.2188 126.648 62.4375C126.648 61.0781 125.969 59.8281 124.609 58.6875C122.188 56.6562 118.945 55.6406 114.883 55.6406C111.352 55.6406 108.023 56.375 104.898 57.8438C101.523 59.4375 99.8359 61.5234 99.8359 64.1016C99.8359 66.4297 101.008 68.3125 103.352 69.75C105.352 71 107.586 71.625 110.055 71.625C110.914 71.625 111.609 71.3984 112.141 70.9453ZM172.07 104.25V110.812C172.07 112.312 172.43 113.289 173.148 113.742L178.234 117H161.43C161.008 117 160.383 117.016 159.555 117.047C158.727 117.078 158.102 117.094 157.68 117.094C156.195 117.094 155.141 116.867 154.516 116.414C153.703 115.82 153.297 114.734 153.297 113.156V88.2188C153.297 85.1875 152.031 83.6719 149.5 83.6719C146.219 83.6719 144.578 85.3828 144.578 88.8047V117H142.961V88.8047C142.961 85.9453 143.93 83.7031 145.867 82.0781C147.68 80.5312 150.039 79.7578 152.945 79.7578C155.039 79.7578 156.688 80.6797 157.891 82.5234C158.938 84.1172 159.461 86.0156 159.461 88.2188V112.219C159.461 113.688 159.844 114.734 160.609 115.359C161.062 115.734 163.062 115.922 166.609 115.922C169.828 115.922 172.125 115.844 173.5 115.688C171.984 115.344 171.039 114.68 170.664 113.695C170.477 113.211 170.383 112.094 170.383 110.344V89.25C170.383 86.75 171.203 84.6094 172.844 82.8281C174.5 81.0312 176.57 80.0391 179.055 79.8516C180.773 79.7266 182.906 79.6641 185.453 79.6641C188.406 79.6641 189.883 79.8125 189.883 80.1094C186.914 83.6719 181.555 90.1328 173.805 99.4922C175.914 100.742 179.016 103.742 183.109 108.492C186.016 111.867 188.289 114.703 189.93 117H183.906C182.188 114.797 180.227 112.477 178.023 110.039C175.305 107.023 173.32 105.094 172.07 104.25ZM172.07 99.8438C173.305 98.3906 175.555 95.5781 178.82 91.4062C181.773 87.625 184.078 84.8594 185.734 83.1094C183.641 82.9219 182.023 82.8281 180.883 82.8281C177.211 82.8281 174.758 83.6406 173.523 85.2656C172.539 86.5625 172.047 88.9844 172.047 92.5312V94.5234L172.07 99.8438ZM227.898 117.023H221.945V86.6016C221.945 83.8672 221.25 82.5 219.859 82.5C218.547 82.5 216.633 83.1484 214.117 84.4453C211.961 85.5547 210.555 86.4375 209.898 87.0938V117.023H204.344V87.5156C204.344 85.7656 204.281 84.6406 204.156 84.1406C203.875 83.0156 203.227 82.4531 202.211 82.4531C200.883 82.4531 199.781 82.7969 198.906 83.4844C198.203 84.0312 197.477 84.9531 196.727 86.25H194.945C195.648 84.0156 197.086 82.3125 199.258 81.1406C201.148 80.1094 203.359 79.5938 205.891 79.5938C208.5 79.5938 209.836 81.4531 209.898 85.1719L214.07 82.0781C216.82 80.3906 219.742 79.5625 222.836 79.5938C224.773 79.6094 226.117 80.0391 226.867 80.8828C227.555 81.6797 227.898 83.0625 227.898 85.0312V117.023ZM234.906 90.1875C234.906 91.8438 234.953 92.8359 235.047 93.1641L232.234 100.406C232.047 99.7031 231.953 98.9453 231.953 98.1328C231.953 96.5547 232.281 94.8984 232.938 93.1641L232.984 93.0938L235.656 86.1562C236.375 84.2969 237.547 82.7734 239.172 81.5859C240.812 80.3828 242.617 79.7812 244.586 79.7812C247.242 79.7812 249.266 80.7266 250.656 82.6172C251.875 84.3047 252.484 86.5234 252.484 89.2734C252.484 93.3984 250.555 98.2188 246.695 103.734C246.258 104.359 244.508 106.656 241.445 110.625C244.68 110.281 247.008 110.445 248.43 111.117C250.695 112.18 252.508 114.484 253.867 118.031C255.023 121.047 255.602 124.008 255.602 126.914C255.602 136.805 252.211 144.391 245.43 149.672C243.93 150.844 242.914 151.516 242.383 151.688C248.914 145.969 252.18 139.062 252.18 130.969C252.18 130.328 252.164 129.742 252.133 129.211C252.008 127.07 251.297 124.734 250 122.203C248.578 119.438 247 117.641 245.266 116.812C244.328 116.359 242.875 116.133 240.906 116.133C238.859 116.133 236.703 116.344 234.438 116.766L238.141 111.117C240.422 109.133 242.695 106.508 244.961 103.242C248.008 98.8516 249.531 95.2188 249.531 92.3438C249.531 90.5 248.922 88.9297 247.703 87.6328C246.5 86.3203 244.984 85.6641 243.156 85.6641C241.938 85.6641 240.32 86.1328 238.305 87.0703C236.039 88.1172 234.906 89.1562 234.906 90.1875Z" fill="white"/>
<path d="M102.461 108.469H103.461V108.198L103.325 107.965L102.461 108.469ZM100.656 105.445L101.513 104.929L101.507 104.919L100.656 105.445ZM97.7266 104.227L98.6728 104.55L98.6752 104.543L97.7266 104.227ZM98.4766 110.32L99.4219 109.994L99.42 109.989L98.4766 110.32ZM100.773 114.164L100.364 115.076L100.367 115.078L100.773 114.164ZM88.9609 116.883H87.9609V117.883H88.9609V116.883ZM91.5156 82.2656L92.1953 82.9991L92.1982 82.9965L91.5156 82.2656ZM105.578 81.7266L106.202 80.945L106.195 80.9394L105.578 81.7266ZM108.133 106.172H107.133V106.46L107.286 106.704L108.133 106.172ZM111.93 110.555L112.614 109.825L112.613 109.824L111.93 110.555ZM117.578 112.5L118.575 112.579L118.576 112.572L117.578 112.5ZM133.023 117.047V118.047H134.023V117.047H133.023ZM127.117 117.047H126.117V118.047H127.117V117.047ZM120.695 84L121.383 84.726L121.39 84.7196L120.695 84ZM118.844 113.93L119.786 114.265L119.786 114.264L118.844 113.93ZM110.664 115.008L109.923 115.679L109.931 115.688L109.94 115.698L110.664 115.008ZM107.992 112.031L108.738 111.365L106.816 109.215L106.994 112.093L107.992 112.031ZM101.289 116.93L101.227 117.928L101.243 117.929L101.259 117.929L101.289 116.93ZM95.6406 111.633L94.6765 111.898L94.6769 111.9L95.6406 111.633ZM94.7266 103.148L95.7259 103.184L95.7259 103.184L94.7266 103.148ZM98.8984 98.4844L98.916 99.4842L98.9257 99.4841L98.9354 99.4837L98.8984 98.4844ZM100.797 100.242L99.9817 100.821L99.9843 100.825L100.797 100.242ZM102.461 102.562L101.648 103.145L103.461 105.673V102.562H102.461ZM92.7344 83.8359L92.1011 83.062L92.0966 83.0657L92.7344 83.8359ZM90.5547 116.883V117.883H91.5547V116.883H90.5547ZM103.325 107.965C102.993 107.396 102.388 106.382 101.513 104.929L99.7996 105.961C100.675 107.415 101.273 108.417 101.597 108.973L103.325 107.965ZM101.507 104.919C101.026 104.142 100.582 103.514 100.178 103.068C99.9766 102.846 99.7594 102.641 99.5274 102.485C99.3059 102.335 98.984 102.172 98.5938 102.172V104.172C98.4223 104.172 98.3503 104.103 98.4101 104.143C98.4593 104.177 98.5547 104.255 98.6969 104.412C98.9804 104.725 99.3493 105.233 99.8058 105.971L101.507 104.919ZM98.5938 102.172C98.0326 102.172 97.6154 102.474 97.3467 102.8C97.0908 103.112 96.9126 103.506 96.7779 103.91L98.6752 104.543C98.7228 104.4 98.768 104.291 98.8083 104.21C98.8493 104.127 98.8792 104.086 98.8916 104.071C98.9038 104.056 98.8867 104.081 98.8318 104.112C98.7705 104.146 98.6868 104.172 98.5938 104.172V102.172ZM96.7804 103.903C96.5605 104.546 96.4219 105.156 96.4219 105.703H98.4219C98.4219 105.469 98.4864 105.095 98.6727 104.55L96.7804 103.903ZM96.4219 105.703C96.4219 106.957 96.8215 108.628 97.5332 110.652L99.42 109.989C98.7253 108.013 98.4219 106.605 98.4219 105.703H96.4219ZM97.5313 110.647C97.9253 111.789 98.3344 112.735 98.7666 113.458C99.1827 114.155 99.6976 114.777 100.364 115.076L101.183 113.252C101.084 113.207 100.833 113.017 100.483 112.432C100.15 111.874 99.7934 111.071 99.4219 109.994L97.5313 110.647ZM100.367 115.078C100.756 115.251 101.168 115.352 101.594 115.352V113.352C101.489 113.352 101.353 113.327 101.18 113.25L100.367 115.078ZM101.594 115.352C102.18 115.352 102.579 115.001 102.803 114.668C103.013 114.356 103.137 113.974 103.22 113.604C103.389 112.848 103.461 111.791 103.461 110.484H101.461C101.461 111.755 101.388 112.632 101.268 113.166C101.24 113.294 101.211 113.39 101.185 113.458C101.159 113.528 101.142 113.553 101.143 113.552C101.15 113.541 101.296 113.352 101.594 113.352V115.352ZM103.461 110.484V108.469H101.461V110.484H103.461ZM89.9609 116.883V88.7578H87.9609V116.883H89.9609ZM89.9609 88.7578C89.9609 86.2304 90.7341 84.3531 92.1953 82.9991L90.8359 81.5321C88.8909 83.3344 87.9609 85.7852 87.9609 88.7578H89.9609ZM92.1982 82.9965C93.6303 81.6589 95.5774 80.9453 98.1484 80.9453V78.9453C95.1882 78.9453 92.7134 79.7786 90.8331 81.5348L92.1982 82.9965ZM98.1484 80.9453C101.518 80.9453 103.714 81.5365 104.961 82.5137L106.195 80.9394C104.411 79.5416 101.654 78.9453 98.1484 78.9453V80.9453ZM104.954 82.5081C106.316 83.5951 107.133 85.5706 107.133 88.7578H109.133C109.133 85.2887 108.246 82.5768 106.202 80.945L104.954 82.5081ZM107.133 88.7578V106.172H109.133V88.7578H107.133ZM107.286 106.704C108.191 108.145 109.522 109.672 111.247 111.285L112.613 109.824C110.962 108.281 109.762 106.886 108.98 105.64L107.286 106.704ZM111.246 111.284C112.282 112.256 113.239 113.017 114.111 113.54C114.97 114.054 115.834 114.391 116.664 114.391V112.391C116.354 112.391 115.858 112.255 115.139 111.824C114.433 111.401 113.593 110.744 112.614 109.825L111.246 111.284ZM116.664 114.391C117.119 114.391 117.619 114.267 118.012 113.884C118.397 113.51 118.54 113.021 118.575 112.579L116.581 112.421C116.575 112.494 116.564 112.523 116.564 112.522C116.566 112.519 116.58 112.488 116.617 112.452C116.634 112.435 116.653 112.42 116.672 112.409C116.69 112.398 116.705 112.392 116.714 112.389C116.73 112.383 116.719 112.391 116.664 112.391V114.391ZM118.576 112.572C118.67 111.266 118.719 110.223 118.719 109.453H116.719C116.719 110.152 116.674 111.14 116.581 112.428L118.576 112.572ZM118.719 109.453V87.1172H116.719V109.453H118.719ZM118.719 87.1172C118.719 84.7347 119.353 83.1268 120.452 82.0998C121.564 81.0609 123.325 80.4531 125.922 80.4531V78.4531C123.05 78.4531 120.709 79.1226 119.087 80.6384C117.452 82.1662 116.719 84.3903 116.719 87.1172H118.719ZM125.922 80.4531C128.119 80.4531 129.587 81.0339 130.52 82.0251C131.463 83.0278 132.023 84.6239 132.023 87H134.023C134.023 84.3449 133.4 82.1675 131.976 80.6545C130.542 79.1302 128.459 78.4531 125.922 78.4531V80.4531ZM132.023 87V117.047H134.023V87H132.023ZM133.023 116.047H127.117V118.047H133.023V116.047ZM128.117 117.047V87.2812H126.117V117.047H128.117ZM128.117 87.2812C128.117 85.6565 127.807 84.2541 127.023 83.2413C126.201 82.1798 124.99 81.7109 123.578 81.7109V83.7109C124.526 83.7109 125.084 84.0038 125.442 84.4658C125.837 84.9763 126.117 85.8591 126.117 87.2812H128.117ZM123.578 81.7109C122.237 81.7109 121.038 82.2795 120.001 83.2804L121.39 84.7196C122.134 84.0018 122.856 83.7109 123.578 83.7109V81.7109ZM120.008 83.274C118.959 84.2679 118.359 85.455 118.359 86.8125H120.359C120.359 86.1075 120.651 85.4196 121.383 84.726L120.008 83.274ZM118.359 86.8125V107.836H120.359V86.8125H118.359ZM118.359 107.836C118.359 109.367 118.317 110.618 118.234 111.595C118.15 112.592 118.029 113.237 117.901 113.595L119.786 114.264C120.003 113.654 120.139 112.799 120.227 111.764C120.316 110.71 120.359 109.398 120.359 107.836H118.359ZM117.902 113.594C117.602 114.436 117.134 115.015 116.51 115.398C115.872 115.79 114.992 116.023 113.805 116.023V118.023C115.242 118.023 116.515 117.742 117.556 117.102C118.612 116.454 119.351 115.486 119.786 114.265L117.902 113.594ZM113.805 116.023C113.666 116.023 113.392 115.961 112.95 115.678C112.518 115.401 111.998 114.957 111.388 114.318L109.94 115.698C110.612 116.402 111.255 116.967 111.87 117.361C112.475 117.75 113.131 118.023 113.805 118.023V116.023ZM111.406 114.337C110.814 113.683 109.925 112.693 108.738 111.365L107.247 112.698C108.434 114.026 109.327 115.02 109.923 115.679L111.406 114.337ZM106.994 112.093C107.083 113.535 106.717 114.421 106.093 114.974C105.43 115.561 104.281 115.953 102.438 115.953V117.953C104.5 117.953 106.23 117.525 107.419 116.471C108.646 115.384 109.104 113.808 108.99 111.969L106.994 112.093ZM102.438 115.953C102.203 115.953 101.833 115.946 101.319 115.93L101.259 117.929C101.776 117.945 102.172 117.953 102.438 117.953V115.953ZM101.351 115.932C100.847 115.9 100.446 115.883 100.164 115.883V117.883C100.382 117.883 100.731 117.897 101.227 117.928L101.351 115.932ZM100.164 115.883C99.471 115.883 98.8469 115.604 98.2556 114.918C97.6376 114.2 97.0696 113.047 96.6044 111.366L94.6769 111.9C95.1804 113.719 95.8507 115.19 96.7405 116.223C97.657 117.287 98.8102 117.883 100.164 117.883V115.883ZM96.6047 111.367C95.9162 108.867 95.6197 106.142 95.7259 103.184L93.7272 103.113C93.6146 106.248 93.9276 109.179 94.6765 111.898L96.6047 111.367ZM95.7259 103.184C95.7761 101.78 96.116 100.89 96.5969 100.352C97.0577 99.8371 97.7754 99.5042 98.916 99.4842L98.8809 97.4845C97.3496 97.5114 96.0361 97.9793 95.1062 99.0189C94.1965 100.036 93.7864 101.454 93.7272 103.113L95.7259 103.184ZM98.9354 99.4837C98.8027 99.4886 98.7415 99.445 98.7787 99.4651C98.8124 99.4833 98.889 99.5338 99.01 99.6459C99.2533 99.8711 99.5764 100.251 99.9817 100.821L101.612 99.663C101.174 99.0458 100.758 98.5391 100.369 98.1783C100.032 97.8665 99.5047 97.4612 98.8614 97.4851L98.9354 99.4837ZM99.9843 100.825L101.648 103.145L103.274 101.98L101.609 99.6594L99.9843 100.825ZM103.461 102.562V88.7578H101.461V102.562H103.461ZM103.461 88.7578C103.461 86.4724 103.078 84.582 102.163 83.238C101.201 81.8251 99.7433 81.1484 97.9609 81.1484V83.1484C99.1785 83.1484 99.9713 83.5733 100.509 84.3636C101.094 85.2227 101.461 86.6369 101.461 88.7578H103.461ZM97.9609 81.1484C95.6658 81.1484 93.6868 81.7646 92.1011 83.062L93.3676 84.6099C94.5319 83.6573 96.0373 83.1484 97.9609 83.1484V81.1484ZM92.0966 83.0657C90.3889 84.4796 89.5547 86.4161 89.5547 88.7578H91.5547C91.5547 86.9433 92.1736 85.5985 93.3721 84.6062L92.0966 83.0657ZM89.5547 88.7578V116.883H91.5547V88.7578H89.5547ZM90.5547 115.883H88.9609V117.883H90.5547V115.883ZM112.141 70.9453L112.848 70.2382L112.195 69.585L111.492 70.1845L112.141 70.9453ZM112.961 71.4844L113.589 72.2623L114.703 71.3631L113.475 70.6269L112.961 71.4844ZM109.305 74.4375L108.676 73.6596L108.675 73.6607L109.305 74.4375ZM99.5078 73.6875L99.9888 72.8108L99.9867 72.8096L99.5078 73.6875ZM101.805 58.4062L101.198 57.6113L101.198 57.6114L101.805 58.4062ZM110.125 54L109.792 53.0569L109.791 53.0575L110.125 54ZM128.617 55.2891L127.973 56.054L127.975 56.0553L128.617 55.2891ZM125.734 67.5234L125.078 66.7691L125.076 66.7709L125.734 67.5234ZM121.141 70.7578L120.604 69.9139L120.596 69.9194L121.141 70.7578ZM117.086 73.3125V74.3125H117.372L117.615 74.1609L117.086 73.3125ZM115.938 73.3125L115.304 72.5385L113.136 74.3125H115.938V73.3125ZM119.57 70.8047L119.033 69.9614L119.031 69.9623L119.57 70.8047ZM123.133 68.25L123.793 69.0007L123.799 68.9958L123.133 68.25ZM124.609 58.6875L125.252 57.9214L125.252 57.9213L124.609 58.6875ZM104.898 57.8438L104.473 56.9387L104.471 56.9395L104.898 57.8438ZM103.352 69.75L103.882 68.902L103.874 68.8976L103.352 69.75ZM111.434 71.6524C111.557 71.7757 111.732 71.8936 111.855 71.9744C112.008 72.075 112.207 72.1982 112.446 72.3419L113.475 70.6269C113.246 70.4893 113.074 70.382 112.953 70.303C112.893 70.2633 112.852 70.235 112.827 70.2165C112.793 70.1914 112.811 70.202 112.848 70.2382L111.434 71.6524ZM112.333 70.7064L108.676 73.6596L109.933 75.2154L113.589 72.2623L112.333 70.7064ZM108.675 73.6607C108.377 73.9022 107.677 74.1406 106.305 74.1406V76.1406C107.776 76.1406 109.076 75.9103 109.934 75.2143L108.675 73.6607ZM106.305 74.1406C103.647 74.1406 101.562 73.6741 99.9888 72.8108L99.0268 74.5642C100.985 75.6384 103.431 76.1406 106.305 76.1406V74.1406ZM99.9867 72.8096C99.0003 72.2716 98.3059 71.615 97.8532 70.8553C97.4007 70.0959 97.1562 69.1771 97.1562 68.0625H95.1562C95.1562 69.4791 95.4704 70.7634 96.1351 71.879C96.7996 72.9944 97.781 73.8847 99.029 74.5654L99.9867 72.8096ZM97.1562 68.0625C97.1562 64.9083 98.8052 61.9544 102.412 59.2011L101.198 57.6114C97.2729 60.6081 95.1562 64.0917 95.1562 68.0625H97.1562ZM102.411 59.2012C104.694 57.4591 107.373 56.0371 110.459 54.9425L109.791 53.0575C106.533 54.2129 103.665 55.7284 101.198 57.6113L102.411 59.2012ZM110.458 54.9431C113.604 53.8335 116.561 53.2891 119.336 53.2891V51.2891C116.298 51.2891 113.115 51.8852 109.792 53.0569L110.458 54.9431ZM119.336 53.2891C122.968 53.2891 125.817 54.2382 127.973 56.054L129.261 54.5242C126.668 52.34 123.328 51.2891 119.336 51.2891V53.2891ZM127.975 56.0553C129.254 57.1286 129.797 58.2571 129.797 59.4609H131.797C131.797 57.5398 130.886 55.887 129.26 54.5229L127.975 56.0553ZM129.797 59.4609C129.797 61.4429 128.403 63.8749 125.078 66.7691L126.391 68.2777C129.816 65.297 131.797 62.354 131.797 59.4609H129.797ZM125.076 66.7709C124.263 67.4822 122.788 68.5257 120.604 69.9139L121.677 71.6017C123.868 70.2086 125.456 69.0959 126.393 68.276L125.076 66.7709ZM120.596 69.9194C119.98 70.3196 118.636 71.1661 116.557 72.4641L117.615 74.1609C119.692 72.8651 121.051 72.0085 121.686 71.5963L120.596 69.9194ZM117.086 72.3125H115.938V74.3125H117.086V72.3125ZM116.571 74.0865C117.209 73.5643 118.376 72.7555 120.109 71.6471L119.031 69.9623C117.296 71.0726 116.041 71.9357 115.304 72.5385L116.571 74.0865ZM120.108 71.648C121.716 70.6232 122.954 69.7391 123.793 69.0007L122.472 67.4993C121.749 68.1359 120.612 68.955 119.033 69.9614L120.108 71.648ZM123.799 68.9958C126.203 66.8483 127.648 64.6582 127.648 62.4375H125.648C125.648 63.7793 124.75 65.4642 122.467 67.5042L123.799 68.9958ZM127.648 62.4375C127.648 60.6978 126.764 59.1899 125.252 57.9214L123.967 59.4536C125.174 60.4663 125.648 61.4584 125.648 62.4375H127.648ZM125.252 57.9213C122.604 55.7002 119.112 54.6406 114.883 54.6406V56.6406C118.779 56.6406 121.771 57.6123 123.967 59.4537L125.252 57.9213ZM114.883 54.6406C111.208 54.6406 107.734 55.406 104.473 56.9387L105.324 58.7488C108.313 57.344 111.495 56.6406 114.883 56.6406V54.6406ZM104.471 56.9395C100.926 58.6138 98.8359 60.9714 98.8359 64.1016H100.836C100.836 62.0755 102.121 60.2612 105.325 58.748L104.471 56.9395ZM98.8359 64.1016C98.8359 66.8454 100.251 69.0217 102.829 70.6024L103.874 68.8976C101.764 67.6033 100.836 66.0139 100.836 64.1016H98.8359ZM102.822 70.598C104.988 71.9521 107.408 72.625 110.055 72.625V70.625C107.764 70.625 105.715 70.0479 103.882 68.902L102.822 70.598ZM110.055 72.625C111.095 72.625 112.038 72.347 112.79 71.7061L111.492 70.1845C111.18 70.4499 110.733 70.625 110.055 70.625V72.625ZM172.07 104.25L172.63 103.421L171.07 102.369V104.25H172.07ZM173.148 113.742L173.688 112.9L173.682 112.896L173.148 113.742ZM178.234 117V118H181.649L178.774 116.158L178.234 117ZM154.516 116.414L153.926 117.221L153.929 117.224L154.516 116.414ZM144.578 117V118H145.578V117H144.578ZM142.961 117H141.961V118H142.961V117ZM145.867 82.0781L146.51 82.8443L146.516 82.8388L145.867 82.0781ZM157.891 82.5234L157.053 83.0699L157.055 83.0725L157.891 82.5234ZM160.609 115.359L161.247 114.589L161.242 114.585L160.609 115.359ZM173.5 115.688L173.613 116.681L173.721 114.712L173.5 115.688ZM170.664 113.695L171.599 113.339L171.597 113.334L170.664 113.695ZM172.844 82.8281L172.108 82.1504L172.108 82.1506L172.844 82.8281ZM179.055 79.8516L178.982 78.8542L178.979 78.8544L179.055 79.8516ZM189.883 80.1094L190.651 80.7496L190.883 80.4714V80.1094H189.883ZM173.805 99.4922L173.034 98.8544L172.288 99.7558L173.295 100.352L173.805 99.4922ZM183.109 108.492L183.867 107.84L183.867 107.839L183.109 108.492ZM189.93 117V118H191.873L190.743 116.419L189.93 117ZM183.906 117L183.118 117.615L183.418 118H183.906V117ZM178.023 110.039L177.281 110.709L177.282 110.71L178.023 110.039ZM172.07 99.8438L171.07 99.8482L171.082 102.552L172.832 100.491L172.07 99.8438ZM178.82 91.4062L179.608 92.0226L179.608 92.0218L178.82 91.4062ZM185.734 83.1094L186.461 83.7968L187.88 82.2975L185.824 82.1134L185.734 83.1094ZM173.523 85.2656L172.727 84.6607L172.727 84.661L173.523 85.2656ZM172.047 94.5234H171.047L171.047 94.5278L172.047 94.5234ZM171.07 104.25V110.812H173.07V104.25H171.07ZM171.07 110.812C171.07 112.394 171.438 113.846 172.615 114.588L173.682 112.896C173.421 112.732 173.07 112.231 173.07 110.812H171.07ZM172.609 114.584L177.695 117.842L178.774 116.158L173.688 112.9L172.609 114.584ZM178.234 116H161.43V118H178.234V116ZM161.43 116C160.988 116 160.348 116.016 159.517 116.048L159.592 118.046C160.417 118.015 161.027 118 161.43 118V116ZM159.517 116.048C158.692 116.079 158.082 116.094 157.68 116.094V118.094C158.121 118.094 158.761 118.078 159.592 118.046L159.517 116.048ZM157.68 116.094C156.241 116.094 155.459 115.863 155.103 115.604L153.929 117.224C154.822 117.871 156.15 118.094 157.68 118.094V116.094ZM155.106 115.607C154.671 115.289 154.297 114.601 154.297 113.156H152.297C152.297 114.868 152.736 116.352 153.926 117.221L155.106 115.607ZM154.297 113.156V88.2188H152.297V113.156H154.297ZM154.297 88.2188C154.297 86.5885 153.96 85.1796 153.115 84.1676C152.241 83.1211 150.972 82.6719 149.5 82.6719V84.6719C150.559 84.6719 151.188 84.9804 151.58 85.4496C152.001 85.9532 152.297 86.8178 152.297 88.2188H154.297ZM149.5 82.6719C147.694 82.6719 146.159 83.1448 145.087 84.263C144.022 85.3733 143.578 86.9499 143.578 88.8047H145.578C145.578 87.2376 145.954 86.2478 146.53 85.6472C147.099 85.0544 148.024 84.6719 149.5 84.6719V82.6719ZM143.578 88.8047V117H145.578V88.8047H143.578ZM144.578 116H142.961V118H144.578V116ZM143.961 117V88.8047H141.961V117H143.961ZM143.961 88.8047C143.961 86.1976 144.83 84.2531 146.51 82.8443L145.225 81.3119C143.029 83.1532 141.961 85.693 141.961 88.8047H143.961ZM146.516 82.8388C148.11 81.4784 150.223 80.7578 152.945 80.7578V78.7578C149.855 78.7578 147.249 79.5841 145.218 81.3175L146.516 82.8388ZM152.945 80.7578C154.681 80.7578 156.023 81.4916 157.053 83.0699L158.728 81.977C157.352 79.8677 155.397 78.7578 152.945 78.7578V80.7578ZM157.055 83.0725C157.979 84.479 158.461 86.1796 158.461 88.2188H160.461C160.461 85.8516 159.896 83.7554 158.726 81.9744L157.055 83.0725ZM158.461 88.2188V112.219H160.461V88.2188H158.461ZM158.461 112.219C158.461 113.838 158.883 115.241 159.977 116.134L161.242 114.585C160.804 114.227 160.461 113.537 160.461 112.219H158.461ZM159.972 116.13C160.279 116.384 160.692 116.506 161.016 116.58C161.383 116.664 161.835 116.728 162.356 116.777C163.402 116.875 164.824 116.922 166.609 116.922V114.922C164.847 114.922 163.497 114.875 162.543 114.786C162.064 114.741 161.709 114.687 161.463 114.631C161.173 114.564 161.166 114.522 161.247 114.589L159.972 116.13ZM166.609 116.922C169.83 116.922 172.176 116.844 173.613 116.681L173.387 114.694C172.074 114.843 169.827 114.922 166.609 114.922V116.922ZM173.721 114.712C172.367 114.405 171.805 113.88 171.599 113.339L169.73 114.051C170.274 115.479 171.602 116.282 173.279 116.663L173.721 114.712ZM171.597 113.334C171.558 113.235 171.496 112.958 171.45 112.411C171.406 111.891 171.383 111.204 171.383 110.344H169.383C169.383 111.233 169.407 111.98 169.457 112.578C169.504 113.148 169.582 113.671 169.731 114.056L171.597 113.334ZM171.383 110.344V89.25H169.383V110.344H171.383ZM171.383 89.25C171.383 86.9921 172.115 85.0957 173.579 83.5056L172.108 82.1506C170.292 84.123 169.383 86.5079 169.383 89.25H171.383ZM173.579 83.5059C175.06 81.8992 176.893 81.0176 179.13 80.8487L178.979 78.8544C176.248 79.0605 173.94 80.1633 172.108 82.1504L173.579 83.5059ZM179.127 80.8489C180.813 80.7263 182.92 80.6641 185.453 80.6641V78.6641C182.892 78.6641 180.733 78.7268 178.982 78.8542L179.127 80.8489ZM185.453 80.6641C186.922 80.6641 187.989 80.7013 188.675 80.7704C189.028 80.8058 189.227 80.8448 189.317 80.872C189.369 80.8875 189.32 80.8804 189.238 80.8228C189.163 80.7696 188.883 80.5413 188.883 80.1094H190.883C190.883 79.6032 190.557 79.3053 190.389 79.1872C190.215 79.0646 190.028 78.9973 189.895 78.9571C189.616 78.873 189.261 78.8192 188.875 78.7804C188.086 78.701 186.937 78.6641 185.453 78.6641V80.6641ZM189.115 79.4692C186.145 83.033 180.784 89.4951 173.034 98.8544L174.575 100.13C182.325 90.7705 187.683 84.3107 190.651 80.7496L189.115 79.4692ZM173.295 100.352C175.246 101.509 178.252 104.388 182.352 109.145L183.867 107.839C179.779 103.096 176.582 99.9756 174.314 98.6319L173.295 100.352ZM182.352 109.145C185.248 112.508 187.5 115.319 189.116 117.581L190.743 116.419C189.078 114.087 186.783 111.226 183.867 107.84L182.352 109.145ZM189.93 116H183.906V118H189.93V116ZM184.695 116.385C182.959 114.16 180.982 111.821 178.765 109.369L177.282 110.71C179.471 113.132 181.416 115.434 183.118 117.615L184.695 116.385ZM178.766 109.369C176.055 106.362 173.995 104.343 172.63 103.421L171.511 105.079C172.645 105.845 174.554 107.685 177.281 110.709L178.766 109.369ZM172.832 100.491C174.082 99.0205 176.343 96.1928 179.608 92.0226L178.033 90.7899C174.766 94.9635 172.528 97.7607 171.308 99.1963L172.832 100.491ZM179.608 92.0218C182.557 88.2462 184.838 85.5111 186.461 83.7968L185.008 82.422C183.318 84.2077 180.99 87.0038 178.032 90.7907L179.608 92.0218ZM185.824 82.1134C183.72 81.925 182.068 81.8281 180.883 81.8281V83.8281C181.979 83.8281 183.561 83.9187 185.645 84.1054L185.824 82.1134ZM180.883 81.8281C177.137 81.8281 174.259 82.6442 172.727 84.6607L174.32 85.8705C175.257 84.6371 177.285 83.8281 180.883 83.8281V81.8281ZM172.727 84.661C172.109 85.475 171.698 86.5667 171.436 87.8555C171.172 89.1535 171.047 90.7172 171.047 92.5312H173.047C173.047 90.7985 173.168 89.3777 173.396 88.2538C173.626 87.1208 173.953 86.3532 174.32 85.8702L172.727 84.661ZM171.047 92.5312V94.5234H173.047V92.5312H171.047ZM171.047 94.5278L171.07 99.8482L173.07 99.8393L173.047 94.519L171.047 94.5278ZM227.898 117.023V118.023H228.898V117.023H227.898ZM221.945 117.023H220.945V118.023H221.945V117.023ZM214.117 84.4453L214.575 85.3345L214.575 85.3342L214.117 84.4453ZM209.898 87.0938L209.191 86.3866L208.898 86.6795V87.0938H209.898ZM209.898 117.023V118.023H210.898V117.023H209.898ZM204.344 117.023H203.344V118.023H204.344V117.023ZM198.906 83.4844L199.52 84.2737L199.524 84.2707L198.906 83.4844ZM196.727 86.25V87.25H197.303L197.592 86.7506L196.727 86.25ZM194.945 86.25L193.991 85.9498L193.582 87.25H194.945V86.25ZM199.258 81.1406L199.733 82.0207L199.737 82.0185L199.258 81.1406ZM209.898 85.1719L208.899 85.1887L208.931 87.1341L210.494 85.9751L209.898 85.1719ZM214.07 82.0781L213.547 81.2258L213.51 81.2488L213.475 81.2749L214.07 82.0781ZM222.836 79.5938L222.826 80.5937L222.828 80.5937L222.836 79.5938ZM226.867 80.8828L227.624 80.2296L227.62 80.224L227.615 80.2184L226.867 80.8828ZM227.898 116.023H221.945V118.023H227.898V116.023ZM222.945 117.023V86.6016H220.945V117.023H222.945ZM222.945 86.6016C222.945 85.182 222.77 83.9668 222.315 83.0721C222.08 82.6103 221.757 82.2061 221.32 81.92C220.878 81.6303 220.379 81.5 219.859 81.5V83.5C220.035 83.5 220.144 83.5406 220.224 83.5927C220.309 83.6483 220.42 83.7568 220.532 83.9787C220.773 84.4512 220.945 85.2868 220.945 86.6016H222.945ZM219.859 81.5C218.288 81.5 216.189 82.2524 213.659 83.5565L214.575 85.3342C217.077 84.0445 218.806 83.5 219.859 83.5V81.5ZM213.66 83.5561C211.514 84.6603 209.972 85.6055 209.191 86.3866L210.606 87.8009C211.137 87.2695 212.408 86.4491 214.575 85.3345L213.66 83.5561ZM208.898 87.0938V117.023H210.898V87.0938H208.898ZM209.898 116.023H204.344V118.023H209.898V116.023ZM205.344 117.023V87.5156H203.344V117.023H205.344ZM205.344 87.5156C205.344 85.7983 205.287 84.5409 205.126 83.8981L203.186 84.3832C203.275 84.7403 203.344 85.733 203.344 87.5156H205.344ZM205.126 83.8981C204.953 83.2049 204.64 82.5753 204.114 82.1196C203.576 81.6526 202.913 81.4531 202.211 81.4531V83.4531C202.524 83.4531 202.694 83.5349 202.804 83.6304C202.927 83.7372 203.078 83.9513 203.186 84.3832L205.126 83.8981ZM202.211 81.4531C200.704 81.4531 199.372 81.8467 198.288 82.6981L199.524 84.2707C200.191 83.747 201.062 83.4531 202.211 83.4531V81.4531ZM198.292 82.695C197.441 83.3571 196.637 84.4066 195.861 85.7494L197.592 86.7506C198.316 85.4996 198.965 84.7054 199.52 84.2737L198.292 82.695ZM196.727 85.25H194.945V87.25H196.727V85.25ZM195.899 86.5502C196.52 84.5784 197.776 83.0763 199.733 82.0207L198.783 80.2606C196.396 81.5487 194.777 83.4528 193.991 85.9498L195.899 86.5502ZM199.737 82.0185C201.457 81.0804 203.497 80.5938 205.891 80.5938V78.5938C203.221 78.5938 200.84 79.1384 198.779 80.2627L199.737 82.0185ZM205.891 80.5938C206.925 80.5938 207.586 80.943 208.037 81.5718C208.533 82.2619 208.869 83.4169 208.899 85.1887L210.898 85.1551C210.866 83.2081 210.502 81.574 209.662 80.4048C208.778 79.1742 207.465 78.5938 205.891 78.5938V80.5938ZM210.494 85.9751L214.666 82.8814L213.475 81.2749L209.303 84.3686L210.494 85.9751ZM214.593 82.9304C217.19 81.3369 219.928 80.5644 222.826 80.5937L222.846 78.5938C219.556 78.5606 216.45 79.4444 213.547 81.2258L214.593 82.9304ZM222.828 80.5937C224.675 80.6086 225.656 81.025 226.12 81.5472L227.615 80.2184C226.579 79.0531 224.872 78.6101 222.844 78.5938L222.828 80.5937ZM226.11 81.536C226.553 82.0489 226.898 83.1189 226.898 85.0312H228.898C228.898 83.0061 228.557 81.3105 227.624 80.2296L226.11 81.536ZM226.898 85.0312V117.023H228.898V85.0312H226.898ZM235.047 93.1641L235.979 93.5261L236.101 93.2126L236.008 92.8893L235.047 93.1641ZM232.234 100.406L231.268 100.664L232.058 103.624L233.167 100.768L232.234 100.406ZM232.938 93.1641L232.105 92.6094L232.042 92.7039L232.002 92.8102L232.938 93.1641ZM232.984 93.0938L233.816 93.6485L233.878 93.5564L233.918 93.4532L232.984 93.0938ZM235.656 86.1562L234.724 85.7957L234.723 85.7968L235.656 86.1562ZM239.172 81.5859L239.762 82.3933L239.763 82.3923L239.172 81.5859ZM250.656 82.6172L251.467 82.0317L251.462 82.0247L250.656 82.6172ZM246.695 103.734L247.515 104.308L247.515 104.308L246.695 103.734ZM241.445 110.625L240.654 110.014L239.224 111.867L241.551 111.619L241.445 110.625ZM248.43 111.117L248.002 112.021L248.005 112.023L248.43 111.117ZM253.867 118.031L252.933 118.389L252.933 118.389L253.867 118.031ZM245.43 149.672L244.815 148.883L244.814 148.884L245.43 149.672ZM242.383 151.688L241.724 150.935L242.691 152.639L242.383 151.688ZM252.133 129.211L251.135 129.269L251.135 129.27L252.133 129.211ZM250 122.203L250.89 121.747L250.889 121.746L250 122.203ZM245.266 116.812L244.83 117.713L244.835 117.715L245.266 116.812ZM234.438 116.766L233.601 116.217L232.316 118.178L234.621 117.749L234.438 116.766ZM238.141 111.117L237.484 110.363L237.38 110.453L237.304 110.569L238.141 111.117ZM244.961 103.242L244.139 102.672L244.139 102.672L244.961 103.242ZM247.703 87.6328L246.966 88.3086L246.974 88.3176L247.703 87.6328ZM238.305 87.0703L238.724 87.9781L238.726 87.977L238.305 87.0703ZM233.906 90.1875C233.906 91.0225 233.918 91.7023 233.943 92.221C233.965 92.6997 234.002 93.1453 234.085 93.4388L236.008 92.8893C236.009 92.8925 235.996 92.8382 235.98 92.6875C235.965 92.549 235.951 92.3636 235.94 92.1266C235.918 91.6531 235.906 91.0088 235.906 90.1875H233.906ZM234.115 92.8021L231.302 100.044L233.167 100.768L235.979 93.5261L234.115 92.8021ZM233.201 100.149C233.038 99.5386 232.953 98.8683 232.953 98.1328H230.953C230.953 99.0223 231.056 99.8676 231.268 100.664L233.201 100.149ZM232.953 98.1328C232.953 96.6947 233.252 95.1587 233.873 93.518L232.002 92.8102C231.311 94.6382 230.953 96.4146 230.953 98.1328H232.953ZM233.77 93.7188L233.816 93.6485L232.152 92.5391L232.105 92.6094L233.77 93.7188ZM233.918 93.4532L236.589 86.5157L234.723 85.7968L232.051 92.7343L233.918 93.4532ZM236.589 86.5168C237.238 84.8379 238.29 83.4689 239.762 82.3933L238.582 80.7785C236.804 82.0779 235.512 83.7558 234.724 85.7957L236.589 86.5168ZM239.763 82.3923C241.238 81.3105 242.837 80.7812 244.586 80.7812V78.7812C242.397 78.7812 240.387 79.4551 238.581 80.7795L239.763 82.3923ZM244.586 80.7812C246.972 80.7812 248.675 81.6117 249.851 83.2097L251.462 82.0247C249.856 79.8414 247.512 78.7812 244.586 78.7812V80.7812ZM249.846 83.2027C250.907 84.6725 251.484 86.6667 251.484 89.2734H253.484C253.484 86.3802 252.843 83.9369 251.467 82.0317L249.846 83.2027ZM251.484 89.2734C251.484 93.1005 249.685 97.7167 245.876 103.161L247.515 104.308C251.424 98.7208 253.484 93.6964 253.484 89.2734H251.484ZM245.876 103.161C245.456 103.761 243.726 106.033 240.654 110.014L242.237 111.236C245.29 107.28 247.06 104.957 247.515 104.308L245.876 103.161ZM241.551 111.619C244.76 111.278 246.847 111.475 248.002 112.021L248.857 110.213C247.168 109.415 244.599 109.284 241.34 109.631L241.551 111.619ZM248.005 112.023C249.94 112.93 251.62 114.961 252.933 118.389L254.801 117.673C253.396 114.007 251.451 111.429 248.854 110.212L248.005 112.023ZM252.933 118.389C254.051 121.303 254.602 124.143 254.602 126.914H256.602C256.602 123.873 255.996 120.79 254.801 117.673L252.933 118.389ZM254.602 126.914C254.602 136.549 251.315 143.821 244.815 148.883L246.044 150.461C253.107 144.96 256.602 137.06 256.602 126.914H254.602ZM244.814 148.884C244.075 149.462 243.469 149.905 242.991 150.221C242.492 150.551 242.202 150.695 242.075 150.736L242.691 152.639C243.095 152.508 243.579 152.23 244.095 151.889C244.633 151.533 245.285 151.054 246.045 150.46L244.814 148.884ZM243.042 152.44C249.772 146.547 253.18 139.374 253.18 130.969H251.18C251.18 138.751 248.056 145.391 241.724 150.935L243.042 152.44ZM253.18 130.969C253.18 130.312 253.164 129.706 253.131 129.152L251.135 129.27C251.164 129.778 251.18 130.344 251.18 130.969H253.18ZM253.131 129.153C252.996 126.836 252.231 124.364 250.89 121.747L249.11 122.659C250.363 125.105 251.02 127.305 251.135 129.269L253.131 129.153ZM250.889 121.746C249.425 118.897 247.717 116.875 245.697 115.91L244.835 117.715C246.283 118.406 247.732 119.978 249.111 122.66L250.889 121.746ZM245.701 115.912C244.554 115.358 242.915 115.133 240.906 115.133V117.133C242.835 117.133 244.102 117.361 244.83 117.713L245.701 115.912ZM240.906 115.133C238.791 115.133 236.573 115.351 234.254 115.783L234.621 117.749C236.833 117.337 238.928 117.133 240.906 117.133V115.133ZM235.274 117.314L238.977 111.665L237.304 110.569L233.601 116.217L235.274 117.314ZM238.797 111.872C241.157 109.819 243.484 107.126 245.783 103.812L244.139 102.672C241.907 105.89 239.687 108.447 237.484 110.363L238.797 111.872ZM245.783 103.812C248.86 99.3778 250.531 95.5337 250.531 92.3438H248.531C248.531 94.9038 247.156 98.3253 244.139 102.672L245.783 103.812ZM250.531 92.3438C250.531 90.2557 249.832 88.4376 248.432 86.948L246.974 88.3176C248.012 89.4218 248.531 90.7443 248.531 92.3438H250.531ZM248.44 86.9571C247.042 85.4318 245.256 84.6641 243.156 84.6641V86.6641C244.713 86.6641 245.958 87.2089 246.966 88.3085L248.44 86.9571ZM243.156 84.6641C241.717 84.6641 239.939 85.2071 237.883 86.1636L238.726 87.977C240.701 87.0585 242.158 86.6641 243.156 86.6641V84.6641ZM237.885 86.1625C236.709 86.7059 235.755 87.2787 235.08 87.8978C234.409 88.5134 233.906 89.2783 233.906 90.1875H235.906C235.906 90.0654 235.97 89.7951 236.432 89.3717C236.89 88.9518 237.634 88.4816 238.724 87.9781L237.885 86.1625Z" fill="#3A4D39" mask="url(#path-4-outside-2_39_30)"/>
</g>
</svg>
