<svg width="1916" height="1253" viewBox="0 0 1916 1253" fill="none" xmlns="http://www.w3.org/2000/svg">
<g clip-path="url(#clip0_42_80)">
<g opacity="0.3">
<path d="M-1 1177.34L4.08195 1182.45V1187.57L9.1639 1192.68L14.2459 1197.79V1202.91L19.3278 1208.02V1213.13V1218.25V1223.36L24.4098 1228.47V1233.59V1238.7V1243.81L29.4917 1248.93" stroke="white" stroke-width="5" stroke-linecap="round" stroke-linejoin="round"/>
<path d="M1319.42 1248.93V1243.86V1238.78V1233.71L1324.46 1228.64V1223.57V1218.49V1213.42V1208.35V1203.28L1329.5 1198.2V1193.13V1188.06V1182.99L1334.54 1177.92V1172.84V1167.77L1339.57 1162.7V1157.63L1344.61 1152.55L1349.65 1147.48V1142.41L1354.69 1137.34H1359.73L1364.76 1132.26H1369.8H1374.84L1379.88 1137.34L1384.91 1142.41L1389.95 1147.48L1394.99 1152.55L1400.03 1157.63V1162.7L1405.07 1167.77V1172.84V1177.92L1410.1 1182.99V1188.06V1193.13L1415.14 1198.2V1203.28V1208.35V1213.42V1218.49V1223.57L1420.18 1228.64V1233.71V1238.78V1243.86V1248.93" stroke="white" stroke-width="5" stroke-linecap="round" stroke-linejoin="round"/>
<path d="M1809.94 1252.91V1247.85L1804.89 1242.79L1799.83 1237.73L1794.78 1232.68L1789.72 1227.62V1222.56L1784.67 1217.5L1779.62 1212.45L1774.56 1207.39V1202.33L1769.51 1197.27L1764.45 1192.22L1759.4 1187.16L1754.34 1182.1L1749.29 1177.04L1744.24 1171.99L1739.18 1166.93L1734.13 1161.87L1729.07 1156.81L1724.02 1151.76L1718.96 1146.7H1713.91L1708.86 1141.64L1703.8 1136.59L1698.75 1131.53H1693.69L1688.64 1126.47H1683.58H1678.53L1673.47 1121.41H1668.42H1663.37L1658.31 1116.36H1653.26H1648.2H1643.15H1638.09H1633.04H1627.99H1622.93H1617.88H1612.82L1607.77 1121.41H1602.71L1597.66 1126.47L1592.61 1131.53V1136.59L1587.55 1141.64V1146.7V1151.76L1582.5 1156.81V1161.87V1166.93V1171.99L1577.44 1177.04V1182.1V1187.16V1192.22V1197.27V1202.33L1572.39 1207.39V1212.45V1217.5V1222.56L1567.33 1227.62V1232.68V1237.73V1242.79V1247.85" stroke="white" stroke-width="5" stroke-linecap="round" stroke-linejoin="round"/>
<path d="M-1 1091.17L4.05433 1096.26H9.10866H14.163L19.2173 1101.35H24.2717L29.326 1106.43H34.3803L39.4346 1111.52L44.489 1116.61L49.5433 1121.7L54.5976 1126.79V1131.88L59.652 1136.97V1142.06L64.7063 1147.15V1152.24V1157.32L69.7606 1162.41V1167.5V1172.59V1177.68L74.815 1182.77V1187.86V1192.95V1198.04V1203.13V1208.22V1213.3L79.8693 1218.39V1223.48V1228.57V1233.66V1238.75V1243.84V1248.93" stroke="white" stroke-width="5" stroke-linecap="round" stroke-linejoin="round"/>
<path d="M894.464 1010.3L899.553 1015.39H904.642H909.731L914.82 1020.48L919.909 1025.57L924.998 1030.66L930.087 1035.75L935.176 1040.84V1045.93L940.266 1051.02V1056.11V1061.21V1066.3V1071.39V1076.48V1081.57V1086.66L935.176 1091.75V1096.84L930.087 1101.93L924.998 1107.02L919.909 1112.11L914.82 1117.2L909.731 1122.29H904.642L899.553 1127.39H894.464H889.375L884.286 1132.48H879.197H874.108H869.018H863.929H858.84L853.751 1137.57H848.662H843.573H838.484H833.395H828.306H823.217H818.128H813.039L807.95 1132.48H802.86L797.771 1127.39L792.682 1122.29L787.593 1117.2V1112.11L782.504 1107.02V1101.93V1096.84V1091.75V1086.66V1081.57V1076.48V1071.39V1066.3V1061.21L787.593 1056.11V1051.02V1045.93L792.682 1040.84L797.771 1035.75L802.86 1030.66L807.95 1025.57L813.039 1020.48L818.128 1015.39H823.217H828.306L833.395 1010.3H838.484H843.573H848.662H853.751H858.84H863.929H869.018H874.108H879.197H884.286H889.375H894.464Z" stroke="white" stroke-width="5" stroke-linecap="round" stroke-linejoin="round"/>
<path d="M1896.11 1252.91V1247.84L1891.06 1242.78L1886 1237.72V1232.66L1880.94 1227.6V1222.53L1875.88 1217.47V1212.41L1870.83 1207.35V1202.29L1865.77 1197.23V1192.16V1187.1L1860.71 1182.04V1176.98L1855.65 1171.92V1166.85L1850.6 1161.79V1156.73L1845.54 1151.67V1146.61L1840.48 1141.54L1835.43 1136.48V1131.42L1830.37 1126.36L1825.31 1121.3L1820.25 1116.24L1815.2 1111.17V1106.11L1810.14 1101.05L1805.08 1095.99L1800.02 1090.93L1794.97 1085.86L1789.91 1080.8L1784.85 1075.74L1779.79 1070.68L1774.74 1065.62L1769.68 1060.55L1764.62 1055.49L1759.56 1050.43L1754.51 1045.37H1749.45L1744.39 1040.31H1739.33L1734.28 1035.25H1729.22L1724.16 1030.18H1719.11L1714.05 1025.12H1708.99H1703.93L1698.88 1020.06H1693.82H1688.76L1683.7 1015H1678.65H1673.59H1668.53L1663.47 1009.94H1658.42H1653.36L1648.3 1004.87H1643.24H1638.19H1633.13L1628.07 999.812H1623.01L1617.96 994.751H1612.9H1607.84L1602.78 989.689H1597.73H1592.67L1587.61 984.627H1582.56H1577.5L1572.44 979.565H1567.38H1562.33H1557.27L1552.21 974.503H1547.15H1542.1H1537.04H1531.98L1526.92 979.565H1521.87L1516.81 984.627H1511.75V989.689L1506.69 994.751L1501.64 999.812V1004.87L1496.58 1009.94V1015L1491.52 1020.06V1025.12V1030.18L1486.46 1035.25V1040.31V1045.37V1050.43V1055.49V1060.55V1065.62V1070.68V1075.74V1080.8V1085.86V1090.93V1095.99V1101.05V1106.11V1111.17V1116.24L1491.52 1121.3V1126.36V1131.42V1136.48V1141.54V1146.61V1151.67V1156.73L1496.58 1161.79V1166.85V1171.92V1176.98V1182.04V1187.1V1192.16V1197.23V1202.29V1207.35L1501.64 1212.41V1217.47V1222.53V1227.6V1232.66V1237.72V1242.78V1247.84" stroke="white" stroke-width="5" stroke-linecap="round" stroke-linejoin="round"/>
<path d="M1238.25 1248.93V1243.86L1243.3 1238.8V1233.73V1228.66V1223.6V1218.53L1248.35 1213.47V1208.4V1203.33V1198.27V1193.2V1188.13V1183.07L1253.39 1178V1172.94V1167.87V1162.8V1157.74V1152.67V1147.6V1142.54V1137.47V1132.41L1258.44 1127.34V1122.27V1117.21V1112.14V1107.08V1102.01V1096.94V1091.88V1086.81V1081.74V1076.68V1071.61V1066.55V1061.48L1253.39 1056.41V1051.35V1046.28V1041.22V1036.15V1031.08L1248.35 1026.02V1020.95V1015.88L1243.3 1010.82V1005.75L1238.25 1000.69V995.62L1233.21 990.554L1228.16 985.488L1223.12 980.421L1218.07 975.355L1213.02 970.289H1207.98H1202.93L1197.88 965.223H1192.84H1187.79H1182.75H1177.7H1172.65H1167.61H1162.56L1157.51 970.289H1152.47H1147.42L1142.37 975.355H1137.33L1132.28 980.421L1127.24 985.488H1122.19L1117.14 990.554V995.62L1112.1 1000.69L1107.05 1005.75V1010.82L1102 1015.88V1020.95V1026.02V1031.08V1036.15V1041.22V1046.28V1051.35V1056.41V1061.48V1066.55L1107.05 1071.61V1076.68V1081.74L1112.1 1086.81V1091.88V1096.94L1117.14 1102.01V1107.08L1122.19 1112.14V1117.21V1122.27L1127.24 1127.34V1132.41L1132.28 1137.47V1142.54V1147.6L1137.33 1152.67V1157.74V1162.8L1142.37 1167.87V1172.94V1178L1147.42 1183.07V1188.13V1193.2L1152.47 1198.27V1203.33V1208.4V1213.47L1157.51 1218.53V1223.6V1228.66V1233.73L1162.56 1238.8V1243.86V1248.93" stroke="white" stroke-width="5" stroke-linecap="round" stroke-linejoin="round"/>
<path d="M712.108 1248.93L707.048 1243.85L701.988 1238.77L696.929 1233.69V1228.62L691.869 1223.54V1218.46L686.809 1213.38V1208.3V1203.22V1198.15L681.749 1193.07V1187.99V1182.91V1177.83V1172.76V1167.68V1162.6V1157.52V1152.44V1147.36V1142.29V1137.21V1132.13V1127.05V1121.97V1116.89L686.809 1111.82V1106.74V1101.66V1096.58V1091.5L691.869 1086.43V1081.35V1076.27L696.929 1071.19V1066.11V1061.03V1055.96L701.988 1050.88V1045.8V1040.72L707.048 1035.64V1030.57V1025.49L712.108 1020.41V1015.33L717.168 1010.25V1005.17L722.228 1000.1V995.018L727.288 989.94V984.862L732.348 979.783V974.705L737.407 969.627L742.467 964.549L747.527 959.471L752.587 954.392H757.647L762.707 949.314H767.766H772.826H777.886H782.946H788.006H793.066H798.126H803.185L808.245 954.392H813.305H818.365H823.425L828.485 959.471H833.545H838.604H843.664H848.724L853.784 964.549H858.844H863.904H868.964H874.023L879.083 969.627H884.143H889.203H894.263H899.323L904.383 974.705H909.442H914.502L919.562 979.783H924.622H929.682L934.742 984.862H939.802L944.861 989.94L949.921 995.018L954.981 1000.1L960.041 1005.17L965.101 1010.25L970.161 1015.33L975.221 1020.41V1025.49L980.28 1030.57V1035.64V1040.72L985.34 1045.8V1050.88V1055.96V1061.03V1066.11V1071.19V1076.27V1081.35V1086.43V1091.5V1096.58V1101.66V1106.74V1111.82V1116.89V1121.97V1127.05L980.28 1132.13V1137.21L975.221 1142.29V1147.36L970.161 1152.44L965.101 1157.52L960.041 1162.6L954.981 1167.68H949.921L944.861 1172.76H939.802H934.742L929.682 1177.83H924.622H919.562H914.502L909.442 1182.91H904.383H899.323H894.263L889.203 1187.99H884.143H879.083L874.023 1193.07H868.964L863.904 1198.15H858.844L853.784 1203.22H848.724L843.664 1208.3L838.604 1213.38L833.545 1218.46H828.485L823.425 1223.54L818.365 1228.62L813.305 1233.69L808.245 1238.77L803.185 1243.85H798.126L793.066 1248.93" stroke="white" stroke-width="5" stroke-linecap="round" stroke-linejoin="round"/>
<path d="M640.815 1248.93L635.745 1243.86V1238.79L630.674 1233.72V1228.65V1223.58L625.604 1218.51V1213.45V1208.38V1203.31V1198.24L620.533 1193.17V1188.1V1183.03V1177.96V1172.89L615.463 1167.83V1162.76V1157.69V1152.62V1147.55V1142.48V1137.41V1132.34V1127.27V1122.2V1117.14V1112.07V1107V1101.93V1096.86L620.533 1091.79V1086.72V1081.65V1076.58L625.604 1071.52V1066.45L630.674 1061.38V1056.31V1051.24L635.745 1046.17L640.815 1041.1V1036.03L645.886 1030.96V1025.89L650.957 1020.83L656.027 1015.76V1010.69L661.098 1005.62V1000.55L666.168 995.481V990.412L671.239 985.343V980.274L676.309 975.205V970.136L681.38 965.067V959.998L686.45 954.929V949.86V944.791L691.521 939.722V934.653L696.592 929.584V924.515V919.446L701.662 914.377V909.309V904.24V899.171L706.733 894.102V889.033L711.803 883.964V878.895V873.826L716.874 868.757V863.688L721.944 858.619L727.015 853.55L732.086 848.481L737.156 843.412L742.227 838.343L747.297 833.274L752.368 828.205H757.438L762.509 823.136H767.579H772.65H777.721L782.791 818.067H787.862H792.932L798.003 823.136H803.073L808.144 828.205L813.215 833.274V838.343L818.285 843.412V848.481L823.356 853.55V858.619V863.688L828.426 868.757V873.826V878.895L833.497 883.964V889.033L838.567 894.102L843.638 899.171V904.24L848.708 909.309L853.779 914.377H858.85L863.92 919.446H868.991L874.061 924.515H879.132L884.202 929.584H889.273H894.343H899.414H904.485L909.555 934.653H914.626H919.696H924.767L929.837 939.722H934.908H939.979H945.049L950.12 944.791H955.19H960.261L965.331 949.86H970.402L975.472 954.929H980.543L985.614 959.998L990.684 965.067L995.755 970.136L1000.83 975.205L1005.9 980.274V985.343L1010.97 990.412V995.481L1016.04 1000.55V1005.62V1010.69L1021.11 1015.76V1020.83V1025.89L1026.18 1030.96V1036.03V1041.1V1046.17V1051.24V1056.31L1031.25 1061.38V1066.45V1071.52V1076.58L1036.32 1081.65V1086.72V1091.79V1096.86L1041.39 1101.93V1107L1046.46 1112.07V1117.14L1051.53 1122.2V1127.27L1056.6 1132.34L1061.67 1137.41V1142.48L1066.74 1147.55L1071.81 1152.62V1157.69L1076.88 1162.76L1081.95 1167.83V1172.89L1087.02 1177.96V1183.03L1092.1 1188.1V1193.17V1198.24L1097.17 1203.31V1208.38V1213.45L1102.24 1218.51V1223.58V1228.65V1233.72L1107.31 1238.79V1243.86V1248.93" stroke="white" stroke-width="5" stroke-linecap="round" stroke-linejoin="round"/>
<path d="M-1 995.715H4.0709H9.14181H14.2127H19.2836H24.3545H29.4254H34.4963H39.5672H44.6381H49.709H54.7799H59.8508H64.9217L69.9926 990.633H75.0635H80.1344H85.2053H90.2763H95.3472H100.418H105.489H110.56L115.631 985.551H120.702H125.773H130.843H135.914L140.985 980.469H146.056H151.127L156.198 975.387H161.269H166.34L171.411 970.305H176.482L181.553 965.223L186.623 960.141L191.694 955.059L196.765 949.977V944.895L201.836 939.813V934.731V929.649V924.567V919.485V914.403V909.321V904.239V899.158V894.076L196.765 888.994V883.912L191.694 878.83L186.623 873.748L181.553 868.666H176.482L171.411 863.584L166.34 858.502H161.269H156.198L151.127 853.42H146.056H140.985L135.914 848.338H130.843H125.773H120.702H115.631L110.56 843.256H105.489H100.418H95.3472H90.2763L85.2053 838.174H80.1344H75.0635H69.9926L64.9217 833.092H59.8508H54.7799L49.709 828.01H44.6381H39.5672L34.4963 822.928H29.4254L24.3545 817.846H19.2836H14.2127L9.14181 812.764H4.0709H-1" stroke="white" stroke-width="5" stroke-linecap="round" stroke-linejoin="round"/>
<path d="M1916 803.484H1911.14L1906.28 798.371V793.257L1901.42 788.144V783.03V777.917V772.803V767.69V762.576V757.463V752.349V747.236L1906.28 742.122V737.009L1911.14 731.895H1916" stroke="white" stroke-width="5" stroke-linecap="round" stroke-linejoin="round"/>
<path d="M444.318 701.403H439.267L434.217 706.53H429.167H424.116H419.066L414.015 711.656H408.965L403.915 716.782L398.864 721.908L393.814 727.034V732.16L388.763 737.286V742.413V747.539L393.814 752.665V757.791L398.864 762.917L403.915 768.043H408.965L414.015 773.169H419.066H424.116L429.167 778.296H434.217H439.267H444.318H449.368H454.418H459.469L464.519 773.169H469.57H474.62L479.67 768.043L484.721 762.917L489.771 757.791V752.665L494.822 747.539V742.413V737.286L489.771 732.16V727.034L484.721 721.908V716.782H479.67L474.62 711.656H469.57L464.519 706.53H459.469H454.418H449.368L444.318 701.403Z" stroke="white" stroke-width="5" stroke-linecap="round" stroke-linejoin="round"/>
<path d="M494.722 670.912H489.651H484.58H479.509H474.439H469.368H464.297H459.226H454.155H449.084H444.013H438.942H433.871H428.8H423.73H418.659L413.588 675.978H408.517H403.446L398.375 681.044H393.304L388.233 686.11H383.162L378.091 691.176L373.02 696.243L367.95 701.309L362.879 706.375L357.808 711.441L352.737 716.507V721.573L347.666 726.64V731.706V736.772V741.838V746.904V751.97V757.037V762.103V767.169L352.737 772.235L357.808 777.301V782.367L362.879 787.434H367.95L373.02 792.5L378.091 797.566H383.162H388.233L393.304 802.632H398.375H403.446L408.517 807.698H413.588H418.659H423.73H428.8H433.871H438.942L444.013 812.764H449.084H454.155H459.226H464.297H469.368H474.439H479.509H484.58H489.651H494.722H499.793H504.864H509.935H515.006H520.077H525.148H530.218L535.289 807.698H540.36L545.431 802.632V797.566L550.502 792.5V787.434V782.367V777.301V772.235V767.169V762.103V757.037V751.97V746.904V741.838V736.772V731.706V726.64L545.431 721.573V716.507L540.36 711.441V706.375L535.289 701.309V696.243L530.218 691.176L525.148 686.11H520.077L515.006 681.044H509.935L504.864 675.978H499.793L494.722 670.912Z" stroke="white" stroke-width="5" stroke-linecap="round" stroke-linejoin="round"/>
<path d="M555.499 631.14H550.441H545.383H540.325H535.266H530.208H525.15H520.092H515.034H509.976H504.918H499.859H494.801L489.743 636.208H484.685H479.627H474.569H469.51H464.452H459.394L454.336 641.275H449.278H444.22H439.161H434.103H429.045L423.987 646.343H418.929H413.871H408.813L403.754 651.411H398.696H393.638L388.58 656.478H383.522L378.464 661.546H373.405L368.347 666.614H363.289L358.231 671.681L353.173 676.749H348.115L343.057 681.817L337.998 686.885L332.94 691.952L327.882 697.02L322.824 702.088V707.155L317.766 712.223L312.708 717.291V722.358L307.649 727.426V732.494V737.561L302.591 742.629V747.697V752.765V757.832V762.9V767.968V773.035V778.103V783.171L307.649 788.238V793.306L312.708 798.374V803.442L317.766 808.509L322.824 813.577H327.882L332.94 818.645H337.998L343.057 823.712H348.115L353.173 828.78H358.231H363.289H368.347H373.405L378.464 833.848H383.522H388.58H393.638H398.696H403.754L408.813 838.915H413.871H418.929H423.987H429.045H434.103H439.161H444.22L449.278 843.983H454.336H459.394H464.452L469.51 849.051H474.569H479.627L484.685 854.118H489.743L494.801 859.186L499.859 864.254H504.918L509.976 869.322L515.034 874.389L520.092 879.457V884.525L525.15 889.592L530.208 894.66V899.728L535.266 904.795V909.863L540.325 914.931L545.383 919.999V925.066L550.441 930.134L555.499 935.202H560.557L565.615 940.269H570.674L575.732 945.337H580.79L585.848 940.269H590.906H595.964L601.022 935.202L606.081 930.134L611.139 925.066L616.197 919.999V914.931L621.255 909.863V904.795V899.728L626.313 894.66V889.592V884.525V879.457V874.389L631.371 869.322V864.254V859.186V854.118V849.051V843.983V838.915V833.848V828.78V823.712V818.645V813.577V808.509V803.442V798.374V793.306V788.238V783.171V778.103L626.313 773.035V767.968V762.9V757.832V752.765L621.255 747.697V742.629V737.561V732.494L616.197 727.426V722.358V717.291L611.139 712.223V707.155L606.081 702.088V697.02V691.952L601.022 686.885V681.817L595.964 676.749V671.681L590.906 666.614V661.546L585.848 656.478L580.79 651.411L575.732 646.343L570.674 641.275L565.615 636.208H560.557L555.499 631.14Z" stroke="white" stroke-width="5" stroke-linecap="round" stroke-linejoin="round"/>
<path d="M1278.57 1248.93L1283.65 1243.87V1238.8V1233.74V1228.68V1223.61V1218.55V1213.49V1208.43L1288.72 1203.36V1198.3V1193.24V1188.18V1183.11V1178.05V1172.99L1293.8 1167.92V1162.86V1157.8V1152.74V1147.67V1142.61L1298.87 1137.55V1132.49V1127.42V1122.36V1117.3L1303.95 1112.23V1107.17V1102.11V1097.05L1309.02 1091.98V1086.92V1081.86V1076.8V1071.73V1066.67L1314.1 1061.61V1056.54V1051.48V1046.42V1041.36V1036.29V1031.23V1026.17V1021.11V1016.04V1010.98L1309.02 1005.92V1000.85V995.792V990.729V985.666V980.603L1303.95 975.541V970.478V965.415V960.352L1298.87 955.29V950.227V945.164L1293.8 940.101V935.039V929.976L1288.72 924.913V919.851V914.788L1283.65 909.725V904.662L1278.57 899.6V894.537L1273.5 889.474V884.411L1268.42 879.349L1263.35 874.286V869.223L1258.27 864.16L1253.2 859.098H1248.12L1243.05 854.035L1237.97 848.972H1232.9L1227.82 843.909H1222.75L1217.67 838.847H1212.6L1207.52 833.784H1202.45H1197.37L1192.3 828.721H1187.22L1182.15 823.659H1177.07L1172 818.596L1166.92 813.533H1161.85L1156.77 808.47L1151.7 803.408L1146.62 798.345V793.282L1141.55 788.219V783.157L1136.47 778.094V773.031V767.968V762.906V757.843V752.78V747.717V742.655V737.592L1141.55 732.529V727.467L1146.62 722.404V717.341L1151.7 712.278V707.216L1156.77 702.153L1161.85 697.09L1166.92 692.027V686.965L1172 681.902L1177.07 676.839L1182.15 671.776L1187.22 666.714L1192.3 661.651L1197.37 656.588L1202.45 651.525L1207.52 646.463L1212.6 641.4H1217.67L1222.75 636.337L1227.82 631.275L1232.9 626.212L1237.97 621.149L1243.05 616.086L1248.12 611.024V605.961L1253.2 600.898L1258.27 595.835L1263.35 590.773L1268.42 585.71L1273.5 580.647L1278.57 575.584H1283.65L1288.72 570.522L1293.8 565.459H1298.87L1303.95 560.396H1309.02H1314.1H1319.17L1324.25 555.333H1329.32H1334.4H1339.47H1344.55H1349.62L1354.7 550.271H1359.78H1364.85H1369.93H1375H1380.08H1385.15L1390.23 555.333H1395.3H1400.38H1405.45H1410.53L1415.6 560.396H1420.68L1425.75 565.459H1430.83L1435.9 570.522L1440.98 575.584L1446.05 580.647L1451.13 585.71V590.773L1456.2 595.835V600.898L1461.28 605.961V611.024V616.086V621.149V626.212V631.275V636.337V641.4V646.463V651.525V656.588L1456.2 661.651V666.714V671.776V676.839V681.902L1451.13 686.965V692.027V697.09V702.153L1446.05 707.216V712.278V717.341V722.404L1440.98 727.467V732.529V737.592V742.655V747.717V752.78V757.843V762.906V767.968V773.031L1446.05 778.094V783.157V788.219V793.282V798.345V803.408V808.47V813.533V818.596V823.659L1451.13 828.721V833.784V838.847V843.909V848.972V854.035V859.098V864.16V869.223V874.286V879.349V884.411V889.474V894.537V899.6L1446.05 904.662V909.725V914.788V919.851V924.913L1440.98 929.976V935.039V940.101V945.164L1435.9 950.227V955.29V960.352V965.415L1430.83 970.478V975.541V980.603V985.666V990.729V995.792L1425.75 1000.85V1005.92V1010.98V1016.04V1021.11V1026.17V1031.23V1036.29V1041.36V1046.42V1051.48V1056.54V1061.61L1430.83 1066.67V1071.73V1076.8V1081.86V1086.92L1435.9 1091.98V1097.05V1102.11V1107.17L1440.98 1112.23V1117.3V1122.36V1127.42L1446.05 1132.49V1137.55V1142.61V1147.67L1451.13 1152.74V1157.8V1162.86V1167.92L1456.2 1172.99V1178.05V1183.11V1188.18V1193.24V1198.3V1203.36V1208.43L1461.28 1213.49V1218.55V1223.61V1228.68V1233.74V1238.8V1243.87V1248.93" stroke="white" stroke-width="5" stroke-linecap="round" stroke-linejoin="round"/>
<path d="M1850.24 530.385H1845.21H1840.17H1835.13H1830.09H1825.06L1820.02 535.435H1814.98L1809.94 540.486H1804.9L1799.87 545.536V550.586L1794.83 555.637L1789.79 560.687V565.737V570.788V575.838L1784.75 580.889V585.939V590.989L1789.79 596.04V601.09V606.141L1794.83 611.191V616.241L1799.87 621.292L1804.9 626.342L1809.94 631.392H1814.98L1820.02 636.443H1825.06H1830.09H1835.13H1840.17H1845.21H1850.24L1855.28 631.392L1860.32 626.342H1865.36L1870.39 621.292L1875.43 616.241L1880.47 611.191V606.141L1885.51 601.09V596.04V590.989V585.939V580.889V575.838V570.788V565.737V560.687L1880.47 555.637V550.586L1875.43 545.536L1870.39 540.486H1865.36L1860.32 535.435H1855.28L1850.24 530.385Z" stroke="white" stroke-width="5" stroke-linecap="round" stroke-linejoin="round"/>
<path d="M398.956 1248.93H393.893L388.831 1243.86H383.768L378.705 1238.79L373.643 1233.72H368.58L363.517 1228.65L358.454 1223.59L353.392 1218.52L348.329 1213.45L343.266 1208.38V1203.31L338.203 1198.24V1193.18L333.141 1188.11V1183.04V1177.97L328.078 1172.9V1167.83V1162.77V1157.7V1152.63L333.141 1147.56V1142.49V1137.42V1132.35V1127.29L338.203 1122.22V1117.15V1112.08L343.266 1107.01V1101.94V1096.88V1091.81L348.329 1086.74V1081.67V1076.6V1071.53V1066.47V1061.4V1056.33V1051.26V1046.19V1041.12L343.266 1036.05V1030.99V1025.92L338.203 1020.85V1015.78V1010.71L333.141 1005.64V1000.58V995.507L328.078 990.439V985.37V980.302V975.233L323.015 970.165V965.097V960.028V954.96V949.891V944.823V939.755V934.686V929.618V924.549V919.481V914.412V909.344L328.078 904.276V899.207L333.141 894.139L338.203 889.07L343.266 884.002L348.329 878.933H353.392L358.454 873.865H363.517H368.58L373.643 868.797H378.705H383.768H388.831H393.893H398.956H404.019H409.082H414.144H419.207H424.27H429.333H434.395L439.458 873.865H444.521H449.584L454.646 878.933H459.709L464.772 884.002L469.834 889.07L474.897 894.139L479.96 899.207V904.276L485.023 909.344V914.412L490.085 919.481V924.549L495.148 929.618V934.686L500.211 939.755V944.823V949.891L505.274 954.96V960.028L510.336 965.097V970.165L515.399 975.233V980.302L520.462 985.37V990.439L525.525 995.507L530.587 1000.58H535.65L540.713 1005.64H545.776L550.838 1010.71H555.901H560.964H566.026H571.089H576.152H581.215L586.277 1005.64H591.34L596.403 1000.58H601.466L606.528 995.507L611.591 990.439H616.654L621.717 985.37L626.779 980.302V975.233L631.842 970.165L636.905 965.097L641.968 960.028V954.96L647.03 949.891V944.823L652.093 939.755V934.686L657.156 929.618V924.549V919.481L662.218 914.412V909.344V904.276V899.207L667.281 894.139V889.07V884.002V878.933L672.344 873.865V868.797V863.728V858.66L677.407 853.591V848.523V843.455V838.386L682.469 833.318V828.249V823.181V818.112L687.532 813.044V807.976V802.907L692.595 797.839V792.77V787.702V782.633L697.658 777.565V772.497V767.428V762.36V757.291V752.223V747.154V742.086L692.595 737.018V731.949V726.881L687.532 721.812V716.744L682.469 711.676L677.407 706.607V701.539L672.344 696.47L667.281 691.402V686.333L662.218 681.265V676.197L657.156 671.128V666.06L652.093 660.991L647.03 655.923V650.854V645.786L641.968 640.718V635.649L636.905 630.581V625.512L631.842 620.444V615.376V610.307L626.779 605.239V600.17V595.102L621.717 590.033V584.965V579.897L616.654 574.828V569.76V564.691L611.591 559.623V554.554L606.528 549.486V544.418V539.349L601.466 534.281L596.403 529.212V524.144L591.34 519.076L586.277 514.007L581.215 508.939H576.152L571.089 503.87H566.026H560.964H555.901L550.838 508.939H545.776L540.713 514.007L535.65 519.076L530.587 524.144L525.525 529.212L520.462 534.281V539.349L515.399 544.418L510.336 549.486V554.554L505.274 559.623L500.211 564.691V569.76L495.148 574.828L490.085 579.897L485.023 584.965L479.96 590.033H474.897L469.834 595.102L464.772 600.17H459.709H454.646L449.584 605.239H444.521H439.458L434.395 610.307H429.333H424.27L419.207 615.376H414.144H409.082H404.019L398.956 620.444H393.893L388.831 625.512H383.768H378.705L373.643 630.581H368.58L363.517 635.649H358.454L353.392 640.718H348.329L343.266 645.786H338.203L333.141 650.854L328.078 655.923H323.015L317.952 660.991L312.89 666.06L307.827 671.128H302.764L297.701 676.197L292.639 681.265L287.576 686.333L282.513 691.402L277.451 696.47L272.388 701.539H267.325L262.262 706.607L257.2 711.676L252.137 716.744L247.074 721.812L242.011 726.881L236.949 731.949L231.886 737.018L226.823 742.086L221.76 747.154L216.698 752.223L211.635 757.291L206.572 762.36L201.509 767.428H196.447L191.384 772.497H186.321L181.259 777.565H176.196H171.133H166.07L161.008 782.633H155.945H150.882H145.819H140.757H135.694H130.631H125.568H120.506H115.443H110.38H105.317H100.255L95.192 777.565H90.1293H85.0665L80.0038 772.497H74.941L69.8783 767.428H64.8156L59.7528 762.36L54.6901 757.291L49.6274 752.223L44.5646 747.154L39.5019 742.086L34.4392 737.018L29.3764 731.949L24.3137 726.881L19.2509 721.812V716.744L14.1882 711.676L9.12547 706.607L4.06274 701.539L-1 696.47V691.402" stroke="white" stroke-width="5" stroke-linecap="round" stroke-linejoin="round"/>
<path d="M1102.05 489.287H1097H1091.94H1086.88H1081.82H1076.77L1071.71 494.363H1066.65H1061.59L1056.54 499.439L1051.48 504.514H1046.42V509.59L1041.36 514.666L1036.31 519.741V524.817L1031.25 529.892V534.968L1026.19 540.044V545.119V550.195V555.271L1021.13 560.346V565.422V570.498V575.573V580.649V585.724V590.8V595.876V600.951V606.027V611.103L1026.19 616.178V621.254V626.33V631.405L1031.25 636.481V641.556L1036.31 646.632V651.708L1041.36 656.783L1046.42 661.859L1051.48 666.935H1056.54H1061.59H1066.65H1071.71H1076.77H1081.82L1086.88 661.859H1091.94L1097 656.783L1102.05 651.708H1107.11L1112.17 646.632L1117.23 641.556L1122.28 636.481L1127.34 631.405L1132.4 626.33V621.254L1137.46 616.178L1142.51 611.103V606.027L1147.57 600.951L1152.63 595.876V590.8V585.724L1157.68 580.649V575.573V570.498V565.422V560.346V555.271V550.195V545.119V540.044L1152.63 534.968V529.892L1147.57 524.817V519.741L1142.51 514.666L1137.46 509.59L1132.4 504.514L1127.34 499.439H1122.28L1117.23 494.363H1112.17H1107.11L1102.05 489.287Z" stroke="white" stroke-width="5" stroke-linecap="round" stroke-linejoin="round"/>
<path d="M1910.7 494.737L1905.65 489.67L1900.61 484.603H1895.56L1890.52 479.536H1885.47H1880.43L1875.38 474.469H1870.34H1865.29H1860.25H1855.2L1850.16 469.401H1845.11H1840.07H1835.02H1829.98H1824.93H1819.88L1814.84 474.469H1809.79H1804.75H1799.7L1794.66 479.536H1789.61L1784.57 484.603H1779.52L1774.48 489.67H1769.43L1764.39 494.737L1759.34 499.805L1754.3 504.872L1749.25 509.939V515.006L1744.21 520.074V525.141L1739.16 530.208V535.275V540.342L1734.12 545.41V550.477V555.544V560.611L1729.07 565.679V570.746V575.813V580.88V585.947V591.015V596.082V601.149L1734.12 606.216V611.284V616.351V621.418V626.485L1739.16 631.552V636.62V641.687L1744.21 646.754V651.821L1749.25 656.888L1754.3 661.956V667.023L1759.34 672.09L1764.39 677.157L1769.43 682.225H1774.48L1779.52 687.292H1784.57L1789.61 692.359H1794.66H1799.7L1804.75 697.426H1809.79H1814.84H1819.88H1824.93H1829.98H1835.02H1840.07L1845.11 692.359H1850.16H1855.2L1860.25 687.292H1865.29L1870.34 682.225H1875.38L1880.43 677.157L1885.47 672.09L1890.52 667.023H1895.56L1900.61 661.956L1905.65 656.888L1910.7 651.821" stroke="white" stroke-width="5" stroke-linecap="round" stroke-linejoin="round"/>
<path d="M1582.36 255.959L1587.44 261.073L1592.52 266.187V271.3V276.414V281.527L1587.44 286.641L1582.36 291.754H1577.28L1572.2 286.641L1567.11 281.527L1562.03 276.414V271.3V266.187L1567.11 261.073L1572.2 255.959H1577.28H1582.36Z" stroke="white" stroke-width="5" stroke-linecap="round" stroke-linejoin="round"/>
<path d="M4.3029 196.302L9.34066 201.332L14.3784 206.362L19.4162 211.392L24.4539 216.422L29.4917 221.452L34.5295 226.482V231.511L39.5672 236.541L44.605 241.571V246.601L49.6427 251.631V256.661L54.6805 261.691V266.721V271.751V276.781V281.811V286.841V291.871V296.901V301.931V306.961V311.991V317.021L49.6427 322.051V327.081V332.111L44.605 337.141L39.5672 342.171V347.201L34.5295 352.231L29.4917 357.26H24.4539L19.4162 362.29H14.3784L9.34066 367.32H4.3029" stroke="white" stroke-width="5" stroke-linecap="round" stroke-linejoin="round"/>
<path d="M798.227 175.09L803.292 180.154H808.356H813.42L818.484 185.219L823.549 190.283L828.613 195.347V200.412L833.677 205.476V210.54V215.604L838.741 220.669V225.733V230.797V235.861V240.926L843.806 245.99V251.054V256.119V261.183V266.247V271.311V276.376V281.44V286.504V291.569V296.633V301.697V306.761V311.826V316.89V321.954V327.018L838.741 332.083V337.147V342.211V347.276V352.34V357.404V362.468V367.533V372.597V377.661V382.725V387.79V392.854V397.918V402.983V408.047V413.111L843.806 418.175V423.24V428.304L848.87 433.368V438.432L853.934 443.497V448.561L858.999 453.625L864.063 458.69L869.127 463.754L874.191 468.818L879.256 473.882L884.32 478.947L889.384 484.011L894.448 489.075L899.513 494.139L904.577 499.204L909.641 504.268L914.706 509.332V514.397L919.77 519.461V524.525L924.834 529.589V534.654V539.718L929.898 544.782V549.846V554.911V559.975L934.963 565.039V570.104V575.168V580.232V585.296V590.361V595.425V600.489V605.553V610.618L929.898 615.682V620.746V625.811V630.875V635.939L924.834 641.003V646.068V651.132L919.77 656.196V661.26L914.706 666.325L909.641 671.389L904.577 676.453L899.513 681.518H894.448H889.384H884.32H879.256H874.191H869.127H864.063H858.999H853.934H848.87L843.806 676.453H838.741H833.677L828.613 671.389H823.549L818.484 666.325H813.42H808.356L803.292 661.26H798.227L793.163 656.196H788.099L783.034 651.132H777.97L772.906 646.068H767.842L762.777 641.003H757.713L752.649 635.939L747.585 630.875H742.52L737.456 625.811L732.392 620.746L727.327 615.682L722.263 610.618L717.199 605.553V600.489L712.135 595.425V590.361L707.07 585.296V580.232V575.168L702.006 570.104V565.039V559.975V554.911L696.942 549.846V544.782V539.718V534.654V529.589V524.525V519.461V514.397L691.878 509.332V504.268V499.204V494.139V489.075V484.011V478.947V473.882V468.818V463.754V458.69V453.625V448.561V443.497V438.432V433.368L686.813 428.304V423.24V418.175V413.111V408.047V402.983V397.918V392.854V387.79V382.725V377.661V372.597V367.533V362.468L681.749 357.404V352.34V347.276V342.211V337.147V332.083V327.018V321.954V316.89L686.813 311.826V306.761V301.697V296.633V291.569V286.504V281.44V276.376V271.311V266.247L691.878 261.183V256.119V251.054V245.99L696.942 240.926V235.861L702.006 230.797V225.733L707.07 220.669V215.604L712.135 210.54L717.199 205.476L722.263 200.412L727.327 195.347L732.392 190.283H737.456L742.52 185.219H747.585L752.649 180.154H757.713H762.777H767.842L772.906 175.09H777.97H783.034H788.099H793.163H798.227Z" stroke="white" stroke-width="5" stroke-linecap="round" stroke-linejoin="round"/>
<path d="M4.3029 59.7521H9.36159L14.4203 64.8091L19.479 69.8661L24.5377 74.9231V79.9801L29.5964 85.0371V90.0941L34.6551 95.1511V100.208L39.7137 105.265V110.322L44.7724 115.379V120.436L49.8311 125.493V130.55L54.8898 135.607L59.9485 140.664L65.0072 145.721V150.778L70.0659 155.835L75.1246 160.892L80.1833 165.949L85.242 171.006L90.3007 176.063L95.3593 181.12L100.418 186.177H105.477L110.535 191.234H115.594L120.653 196.291H125.711H130.77L135.829 201.348H140.888H145.946H151.005H156.064H161.122H166.181H171.24L176.298 196.291H181.357H186.416H191.474H196.533L201.592 191.234H206.651H211.709H216.768H221.827L226.885 186.177H231.944H237.003H242.061H247.12H252.179H257.237H262.296H267.355H272.414H277.472L282.531 191.234H287.59H292.648H297.707L302.766 196.291H307.824L312.883 201.348H317.942L323 206.405L328.059 211.462L333.118 216.519L338.177 221.576L343.235 226.633V231.69L348.294 236.747V241.804L353.353 246.861V251.918V256.975V262.032V267.089V272.146V277.203V282.26L348.294 287.317V292.374V297.431L343.235 302.488L338.177 307.545V312.602L333.118 317.659L328.059 322.716H323L317.942 327.773L312.883 332.83H307.824L302.766 337.887H297.707L292.648 342.944H287.59L282.531 348.001H277.472H272.414L267.355 353.058H262.296L257.237 358.115H252.179H247.12L242.061 363.172H237.003L231.944 368.229L226.885 373.286H221.827L216.768 378.343L211.709 383.4L206.651 388.457V393.514L201.592 398.571V403.628V408.685L196.533 413.742V418.799V423.856V428.913V433.97L201.592 439.027V444.084L206.651 449.141V454.198L211.709 459.255L216.768 464.312L221.827 469.369L226.885 474.426L231.944 479.483H237.003L242.061 484.54H247.12L252.179 489.597H257.237L262.296 494.654H267.355H272.414H277.472L282.531 499.711H287.59H292.648H297.707H302.766L307.824 504.768H312.883H317.942H323H328.059L333.118 509.825H338.177H343.235H348.294L353.353 514.882H358.411H363.47L368.529 519.939L373.587 524.996H378.646L383.705 530.053V535.11L388.763 540.167V545.224V550.281V555.338L383.705 560.395L378.646 565.452V570.509L373.587 575.566L368.529 580.623H363.47L358.411 585.68L353.353 590.737L348.294 595.794H343.235L338.177 600.851L333.118 605.908H328.059L323 610.965H317.942L312.883 616.022H307.824L302.766 621.079L297.707 626.136H292.648L287.59 631.193H282.531L277.472 636.25H272.414L267.355 641.307H262.296L257.237 646.364H252.179H247.12L242.061 651.421H237.003L231.944 656.478H226.885L221.827 661.535H216.768H211.709L206.651 666.592H201.592L196.533 671.649H191.474H186.416L181.357 676.707H176.298H171.24L166.181 681.764H161.122H156.064H151.005H145.946H140.888H135.829L130.77 686.821L125.711 681.764H120.653H115.594H110.535L105.477 676.707H100.418L95.3593 671.649L90.3007 666.592L85.242 661.535L80.1833 656.478V651.421L75.1246 646.364L70.0659 641.307V636.25L65.0072 631.193L59.9485 626.136V621.079L54.8898 616.022V610.965L49.8311 605.908L44.7724 600.851V595.794L39.7137 590.737V585.68L34.6551 580.623L29.5964 575.566V570.509L24.5377 565.452L19.479 560.395L14.4203 555.338V550.281L9.36159 545.224L4.3029 540.167V535.11" stroke="white" stroke-width="5" stroke-linecap="round" stroke-linejoin="round"/>
<path d="M1213.37 43.8433H1208.33H1203.29L1198.25 48.881L1193.21 53.9188V58.9565L1188.18 63.9943V69.0321V74.0698V79.1076V84.1453V89.1831V94.2208V99.2586V104.296V109.334V114.372L1193.21 119.41V124.447L1198.25 129.485V134.523L1203.29 139.561L1208.33 144.598H1213.37H1218.4H1223.44L1228.48 139.561L1233.52 134.523L1238.55 129.485V124.447V119.41V114.372V109.334V104.296V99.2586V94.2208V89.1831V84.1453V79.1076L1233.52 74.0698V69.0321V63.9943L1228.48 58.9565L1223.44 53.9188L1218.4 48.881L1213.37 43.8433Z" stroke="white" stroke-width="5" stroke-linecap="round" stroke-linejoin="round"/>
<path d="M1916 1091.17H1910.94L1905.89 1086.11V1081.05V1075.99V1070.93L1900.83 1065.87V1060.81L1895.77 1055.75V1050.69L1890.71 1045.64V1040.58L1885.66 1035.52V1030.46L1880.6 1025.4L1875.54 1020.34V1015.28L1870.48 1010.22L1865.43 1005.16L1860.37 1000.1H1855.31L1850.25 995.046L1845.2 989.987H1840.14L1835.08 984.928H1830.02H1824.97L1819.91 979.869H1814.85L1809.79 974.81H1804.74H1799.68H1794.62L1789.56 969.75H1784.51H1779.45H1774.39L1769.34 964.691H1764.28H1759.22H1754.16H1749.11L1744.05 959.632H1738.99H1733.93H1728.88H1723.82L1718.76 954.573H1713.7H1708.65H1703.59H1698.53L1693.47 949.514H1688.42H1683.36H1678.3L1673.24 944.455H1668.19H1663.13L1658.07 939.396H1653.02L1647.96 934.337H1642.9L1637.84 929.278L1632.79 924.219L1627.73 919.16L1622.67 914.101L1617.61 909.042L1612.56 903.983L1607.5 898.924L1602.44 893.865V888.806V883.747L1597.38 878.688V873.629V868.57V863.511V858.452L1592.33 853.393V848.334V843.275V838.216L1597.38 833.157V828.098V823.039V817.98V812.921V807.862V802.803L1602.44 797.744V792.685V787.626V782.567V777.508L1607.5 772.449V767.39V762.331V757.272V752.213V747.154V742.095V737.036V731.977V726.917V721.858V716.799V711.74L1602.44 706.681V701.622V696.563V691.504V686.445V681.386V676.327V671.268V666.209V661.15V656.091V651.032L1597.38 645.973V640.914V635.855V630.796V625.737V620.678V615.619V610.56V605.501V600.442V595.383L1592.33 590.324V585.265V580.206V575.147V570.088V565.029V559.97V554.911V549.852V544.793V539.734V534.675V529.616V524.557V519.498V514.439V509.38V504.321V499.262V494.203L1587.27 489.143V484.084V479.025V473.966V468.907V463.848L1582.21 458.789V453.73V448.671L1577.15 443.612V438.553V433.494L1572.1 428.435V423.376L1567.04 418.317L1561.98 413.258V408.199L1556.92 403.14L1551.87 398.081L1546.81 393.022L1541.75 387.963V382.904L1536.69 377.845L1531.64 372.786V367.727L1526.58 362.668L1521.52 357.609V352.55V347.491L1516.47 342.432V337.373V332.314L1511.41 327.255V322.196V317.137V312.078L1506.35 307.019V301.96V296.901V291.842V286.783V281.724V276.665V271.606V266.547V261.488V256.429V251.37V246.31V241.251V236.192V231.133V226.074V221.015L1511.41 215.956V210.897V205.838V200.779L1516.47 195.72V190.661L1521.52 185.602V180.543L1526.58 175.484L1531.64 170.425V165.366L1536.69 160.307H1541.75L1546.81 155.248L1551.87 150.189H1556.92H1561.98H1567.04H1572.1H1577.15H1582.21H1587.27H1592.33L1597.38 155.248H1602.44L1607.5 160.307H1612.56L1617.61 165.366H1622.67L1627.73 170.425H1632.79L1637.84 175.484H1642.9L1647.96 180.543H1653.02L1658.07 185.602H1663.13H1668.19H1673.24H1678.3H1683.36H1688.42L1693.47 180.543H1698.53L1703.59 175.484H1708.65L1713.7 170.425L1718.76 165.366L1723.82 160.307L1728.88 155.248V150.189L1733.93 145.13V140.071L1738.99 135.012V129.953L1744.05 124.894V119.835L1749.11 114.776V109.717V104.658L1754.16 99.5989V94.5399L1759.22 89.4808V84.4218V79.3628L1764.28 74.3038V69.2448L1769.34 64.1857V59.1267L1774.39 54.0677L1779.45 49.0087L1784.51 43.9496L1789.56 38.8906L1794.62 33.8316L1799.68 28.7726H1804.74L1809.79 23.7136H1814.85H1819.91H1824.97L1830.02 18.6545H1835.08H1840.14H1845.2L1850.25 23.7136H1855.31H1860.37H1865.43L1870.48 28.7726H1875.54L1880.6 33.8316L1885.66 38.8906H1890.71L1895.77 43.9496L1900.83 49.0087V54.0677L1905.89 59.1267" stroke="white" stroke-width="5" stroke-linecap="round" stroke-linejoin="round"/>
<path d="M333.083 4.07153L328.026 8.93253L322.968 13.7935L317.911 18.6545H312.853L307.796 23.5155H302.739L297.681 28.3765H292.624H287.566L282.509 33.2375H277.452H272.394H267.337H262.279H257.222H252.165H247.107H242.05H236.992H231.935H226.878H221.82H216.763H211.705H206.648H201.591H196.533H191.476H186.418H181.361H176.304H171.246H166.189L161.131 28.3765H156.074H151.017H145.959H140.902H135.844H130.787H125.73H120.672H115.615H110.557L105.5 23.5155H100.443H95.3852H90.3278H85.2704L80.213 18.6545H75.1556L70.0982 13.7935L65.0408 8.93253H59.9834V4.07153" stroke="white" stroke-width="5" stroke-linecap="round" stroke-linejoin="round"/>
<path d="M883.906 4.07153V9.12956L888.966 14.1876V19.2456L894.027 24.3036V29.3617L899.087 34.4197V39.4777L904.148 44.5357L909.208 49.5938V54.6518L914.268 59.7098L919.329 64.7678V69.8259L924.389 74.8839L929.45 79.9419V84.9999L934.51 90.058L939.57 95.116V100.174L944.631 105.232V110.29L949.691 115.348V120.406L954.752 125.464V130.522L959.812 135.58V140.638L964.872 145.696V150.754L969.933 155.812V160.87L974.993 165.928V170.986L980.053 176.044V181.102L985.114 186.16L990.174 191.218V196.276L995.235 201.335V206.393L1000.3 211.451L1005.36 216.509V221.567L1010.42 226.625V231.683L1015.48 236.741V241.799L1020.54 246.857V251.915L1025.6 256.973V262.031V267.089L1030.66 272.147V277.205V282.263V287.321L1035.72 292.379V297.437V302.495V307.553V312.611V317.669V322.727L1030.66 327.785V332.843V337.901V342.959L1025.6 348.017V353.075L1020.54 358.133V363.191L1015.48 368.249L1010.42 373.307L1005.36 378.365L1000.3 383.423V388.481L995.235 393.539L990.174 398.597L985.114 403.655V408.714V413.772L980.053 418.83V423.888V428.946V434.004L974.993 439.062V444.12V449.178V454.236V459.294V464.352V469.41V474.468V479.526V484.584V489.642V494.7V499.758V504.816V509.874V514.932V519.99V525.048V530.106V535.164V540.222V545.28V550.338V555.396V560.454V565.512V570.57V575.628V580.686V585.744V590.802V595.86V600.918V605.976V611.035V616.093V621.151L980.053 626.209V631.267V636.325V641.383V646.441V651.499V656.557V661.615V666.673V671.731V676.789V681.847V686.905V691.963V697.021V702.079V707.137V712.195V717.253V722.311V727.369V732.427V737.485V742.543V747.601L974.993 752.659V757.717L969.933 762.775L964.872 767.833L959.812 772.891L954.752 777.949L949.691 783.007L944.631 788.065H939.57L934.51 793.123H929.45H924.389H919.329L914.268 798.181H909.208H904.148H899.087H894.027H888.966H883.906H878.846H873.785H868.725H863.664H858.604H853.544H848.483H843.423H838.362H833.302L828.242 793.123H823.181L818.121 788.065L813.061 783.007V777.949L808 772.891V767.833L802.94 762.775V757.717L797.879 752.659V747.601L792.819 742.543V737.485L787.759 732.427L782.698 727.369L777.638 722.311L772.577 717.253L767.517 712.195L762.457 707.137L757.396 702.079L752.336 697.021H747.275L742.215 691.963L737.155 686.905H732.094L727.034 681.847L721.973 676.789L716.913 671.731L711.853 666.673L706.792 661.615L701.732 656.557L696.671 651.499L691.611 646.441V641.383L686.551 636.325L681.49 631.267V626.209L676.43 621.151V616.093L671.369 611.035V605.976V600.918L666.309 595.86V590.802V585.744L661.249 580.686V575.628V570.57V565.512L656.188 560.454V555.396V550.338V545.28V540.222L651.128 535.164V530.106V525.048V519.99L646.068 514.932V509.874V504.816V499.758L641.007 494.7V489.642V484.584V479.526L635.947 474.468V469.41V464.352V459.294L630.886 454.236V449.178V444.12V439.062V434.004L625.826 428.946V423.888V418.83V413.772V408.714V403.655L620.766 398.597V393.539V388.481V383.423V378.365V373.307V368.249V363.191V358.133V353.075V348.017V342.959V337.901V332.843V327.785L625.826 322.727V317.669V312.611V307.553V302.495V297.437V292.379V287.321V282.263V277.205V272.147V267.089V262.031V256.973V251.915L630.886 246.857V241.799V236.741V231.683V226.625V221.567V216.509L635.947 211.451V206.393V201.335V196.276V191.218L641.007 186.16V181.102V176.044L646.068 170.986V165.928V160.87V155.812L651.128 150.754V145.696V140.638L656.188 135.58V130.522V125.464L661.249 120.406V115.348V110.29V105.232V100.174V95.116V90.058V84.9999V79.9419V74.8839V69.8259V64.7678V59.7098L656.188 54.6518V49.5938V44.5357V39.4777V34.4197L651.128 29.3617V24.3036V19.2456V14.1876V9.12956V4.07153" stroke="white" stroke-width="5" stroke-linecap="round" stroke-linejoin="round"/>
<path d="M934.963 4.07153V9.12504L940.025 14.1786V19.2321L945.086 24.2856V29.3391L950.148 34.3926V39.4461L955.21 44.4996L960.272 49.5531L965.334 54.6066V59.6601L970.396 64.7137L975.458 69.7672L980.519 74.8207V79.8742L985.581 84.9277L990.643 89.9812L995.705 95.0347L1000.77 100.088V105.142L1005.83 110.195V115.249L1010.89 120.302V125.356L1015.95 130.409L1021.01 135.463V140.516L1026.08 145.57V150.623L1031.14 155.677V160.73L1036.2 165.784V170.837L1041.26 175.891V180.944L1046.32 185.998V191.051L1051.39 196.105V201.158L1056.45 206.212V211.265L1061.51 216.319V221.372V226.426L1066.57 231.479V236.533V241.587L1071.63 246.64V251.694V256.747L1076.69 261.801V266.854V271.908V276.961L1081.76 282.015V287.068V292.122V297.175L1086.82 302.229V307.282V312.336V317.389V322.443L1091.88 327.496V332.55V337.603V342.657L1096.94 347.71V352.764V357.817L1102 362.871V367.924V372.978L1107.07 378.031V383.085L1112.13 388.138V393.192L1117.19 398.245L1122.25 403.299L1127.31 408.352L1132.38 413.406L1137.44 418.459L1142.5 423.513H1147.56L1152.62 428.566H1157.68L1162.75 433.62H1167.81L1172.87 438.673H1177.93L1182.99 443.727H1188.06L1193.12 448.78H1198.18L1203.24 453.834L1208.3 458.887H1213.37L1218.43 463.941L1223.49 468.994H1228.55L1233.61 474.048L1238.67 479.101L1243.74 484.155L1248.8 489.209H1253.86L1258.92 494.262H1263.98L1269.05 499.316H1274.11H1279.17L1284.23 504.369H1289.29H1294.35H1299.42L1304.48 509.423H1309.54H1314.6H1319.66H1324.73H1329.79H1334.85H1339.91L1344.97 514.476H1350.04H1355.1H1360.16H1365.22H1370.28H1375.34H1380.41L1385.47 509.423H1390.53H1395.59H1400.65H1405.72H1410.78H1415.84H1420.9H1425.96H1431.03L1436.09 504.369H1441.15H1446.21H1451.27L1456.33 499.316H1461.4L1466.46 494.262L1471.52 489.209H1476.58V484.155L1481.64 479.101L1486.71 474.048V468.994V463.941L1491.77 458.887V453.834V448.78V443.727V438.673V433.62V428.566V423.513V418.459V413.406V408.352V403.299V398.245V393.192V388.138V383.085V378.031V372.978L1486.71 367.924V362.871V357.817V352.764V347.71V342.657V337.603V332.55V327.496V322.443V317.389L1481.64 312.336V307.282V302.229V297.175V292.122V287.068V282.015V276.961V271.908V266.854V261.801V256.747V251.694V246.64V241.587V236.533V231.479V226.426V221.372V216.319V211.265V206.212V201.158V196.105V191.051V185.998V180.944V175.891V170.837V165.784V160.73V155.677V150.623V145.57V140.516V135.463V130.409V125.356V120.302V115.249V110.195L1476.58 105.142V100.088V95.0347V89.9812V84.9277V79.8742V74.8207L1471.52 69.7672V64.7137V59.6601V54.6066L1466.46 49.5531V44.4996V39.4461V34.3926V29.3391L1461.4 24.2856V19.2321V14.1786V9.12504V4.07153" stroke="white" stroke-width="5" stroke-linecap="round" stroke-linejoin="round"/>
<path d="M970.757 4.07153V9.12058L975.814 14.1696V19.2187L980.871 24.2677L985.928 29.3167V34.3658L990.985 39.4148L996.042 44.4639L1001.1 49.5129V54.562L1006.16 59.611L1011.21 64.66L1016.27 69.7091L1021.33 74.7581V79.8072L1026.38 84.8562L1031.44 89.9053L1036.5 94.9543V100.003L1041.55 105.052V110.101L1046.61 115.15V120.2L1051.67 125.249V130.298L1056.72 135.347V140.396L1061.78 145.445V150.494V155.543L1066.84 160.592V165.641L1071.9 170.69V175.739V180.788L1076.95 185.837V190.886V195.935L1082.01 200.984V206.033V211.082L1087.07 216.131V221.18V226.229L1092.12 231.278V236.327V241.377L1097.18 246.426V251.475V256.524L1102.24 261.573V266.622V271.671L1107.29 276.72V281.769V286.818L1112.35 291.867V296.916V301.965L1117.41 307.014V312.063L1122.46 317.112V322.161V327.21L1127.52 332.259L1132.58 337.308V342.357L1137.63 347.406L1142.69 352.455V357.504L1147.75 362.554L1152.81 367.603H1157.86L1162.92 372.652L1167.98 377.701L1173.03 382.75H1178.09L1183.15 387.799H1188.2L1193.26 392.848H1198.32L1203.37 397.897H1208.43L1213.49 402.946H1218.55L1223.6 407.995H1228.66L1233.72 413.044H1238.77L1243.83 418.093L1248.89 423.142L1253.94 428.191L1259 433.24H1264.06L1269.11 438.289L1274.17 443.338L1279.23 448.387L1284.28 453.436H1289.34L1294.4 458.485H1299.46L1304.51 463.534H1309.57L1314.63 468.583H1319.68L1324.74 473.632H1329.8H1334.85H1339.91L1344.97 478.682H1350.02H1355.08H1360.14H1365.19H1370.25H1375.31H1380.37H1385.42L1390.48 473.632H1395.54H1400.59H1405.65L1410.71 468.583H1415.76L1420.82 463.534H1425.88L1430.93 458.485L1435.99 453.436L1441.05 448.387V443.338L1446.11 438.289L1451.16 433.24V428.191V423.142L1456.22 418.093V413.044V407.995V402.946V397.897L1461.28 392.848V387.799V382.75V377.701V372.652V367.603V362.554V357.504V352.455V347.406V342.357V337.308V332.259V327.21V322.161V317.112V312.063V307.014V301.965V296.916V291.867V286.818V281.769V276.72V271.671V266.622V261.573V256.524V251.475V246.426V241.377V236.327V231.278V226.229V221.18L1456.22 216.131V211.082V206.033V200.984V195.935V190.886L1451.16 185.837V180.788V175.739L1446.11 170.69V165.641V160.592L1441.05 155.543V150.494V145.445L1435.99 140.396V135.347L1430.93 130.298V125.249L1425.88 120.2V115.15L1420.82 110.101V105.052L1415.76 100.003V94.9543V89.9053L1410.71 84.8562V79.8072V74.7581V69.7091L1405.65 64.66V59.611V54.562V49.5129L1400.59 44.4639V39.4148V34.3658V29.3167V24.2677V19.2187L1395.54 14.1696V9.12058V4.07153" stroke="white" stroke-width="5" stroke-linecap="round" stroke-linejoin="round"/>
<path d="M999.923 4.07153V9.13063L1004.99 14.1897L1010.05 19.2488V24.3079L1015.11 29.367L1020.17 34.4261L1025.23 39.4852V44.5443L1030.29 49.6034L1035.36 54.6625L1040.42 59.7216L1045.48 64.7806V69.8397L1050.54 74.8988L1055.6 79.9579V85.017L1060.67 90.0761V95.1352L1065.73 100.194V105.253L1070.79 110.312V115.372V120.431L1075.85 125.49V130.549V135.608L1080.91 140.667V145.726V150.785L1085.97 155.844V160.903V165.962L1091.04 171.022V176.081V181.14L1096.1 186.199V191.258V196.317L1101.16 201.376V206.435V211.494L1106.22 216.553V221.613V226.672L1111.28 231.731V236.79V241.849L1116.35 246.908V251.967L1121.41 257.026V262.085V267.144L1126.47 272.203V277.263L1131.53 282.322V287.381V292.44L1136.59 297.499V302.558L1141.66 307.617L1146.72 312.676V317.735L1151.78 322.794L1156.84 327.853L1161.9 332.913V337.972H1166.96L1172.03 343.031L1177.09 348.09L1182.15 353.149H1187.21L1192.27 358.208L1197.34 363.267H1202.4L1207.46 368.326H1212.52L1217.58 373.385H1222.65H1227.71L1232.77 378.444L1237.83 383.503H1242.89L1247.95 388.563H1253.02L1258.08 393.622H1263.14L1268.2 398.681L1273.26 403.74H1278.33L1283.39 408.799L1288.45 413.858H1293.51L1298.57 418.917L1303.64 423.976H1308.7L1313.76 429.035L1318.82 434.094H1323.88L1328.94 439.153H1334.01H1339.07L1344.13 444.213H1349.19H1354.25H1359.32H1364.38H1369.44H1374.5H1379.56L1384.62 439.153H1389.69L1394.75 434.094H1399.81L1404.87 429.035L1409.93 423.976L1415 418.917V413.858L1420.06 408.799V403.74L1425.12 398.681V393.622L1430.18 388.563V383.503V378.444L1435.24 373.385V368.326V363.267V358.208L1440.31 353.149V348.09V343.031V337.972V332.913V327.853V322.794V317.735L1445.37 312.676V307.617V302.558V297.499V292.44V287.381V282.322V277.263V272.203V267.144V262.085L1440.31 257.026V251.967V246.908V241.849V236.79V231.731V226.672L1435.24 221.613V216.553V211.494V206.435L1430.18 201.376V196.317V191.258L1425.12 186.199V181.14L1420.06 176.081V171.022L1415 165.962V160.903L1409.93 155.844L1404.87 150.785V145.726L1399.81 140.667L1394.75 135.608V130.549L1389.69 125.49L1384.62 120.431V115.372L1379.56 110.312V105.253V100.194L1374.5 95.1352V90.0761V85.017L1369.44 79.9579V74.8988V69.8397V64.7806L1364.38 59.7216V54.6625V49.6034V44.5443V39.4852L1359.32 34.4261V29.367V24.3079V19.2488V14.1897V9.13063V4.07153" stroke="white" stroke-width="5" stroke-linecap="round" stroke-linejoin="round"/>
<path d="M1030.41 4.07153V9.12272L1035.48 14.1739L1040.54 19.2251L1045.61 24.2763V29.3275L1050.67 34.3786L1055.74 39.4298L1060.8 44.481V49.5322L1065.87 54.5834L1070.93 59.6346V64.6857L1076 69.7369V74.7881V79.8393L1081.06 84.8905V89.9417L1086.13 94.9928V100.044V105.095V110.146L1091.19 115.198V120.249V125.3V130.351L1096.26 135.402V140.454V145.505L1101.32 150.556V155.607V160.658L1106.39 165.709V170.761V175.812L1111.45 180.863V185.914V190.965L1116.52 196.017V201.068V206.119L1121.58 211.17V216.221L1126.65 221.272V226.324V231.375L1131.71 236.426V241.477L1136.78 246.528V251.58L1141.84 256.631V261.682L1146.91 266.733V271.784V276.835L1151.97 281.887L1157.04 286.938V291.989L1162.1 297.04L1167.17 302.091V307.143L1172.23 312.194L1177.3 317.245L1182.36 322.296H1187.43L1192.49 327.347L1197.56 332.399H1202.62L1207.69 337.45H1212.75L1217.82 342.501H1222.88L1227.95 347.552H1233.01L1238.08 352.603H1243.14L1248.21 357.654H1253.27L1258.34 362.706H1263.4L1268.47 367.757L1273.53 372.808H1278.6L1283.66 377.859H1288.73L1293.79 382.91H1298.86L1303.92 387.962H1308.99L1314.05 393.013H1319.12L1324.18 398.064H1329.25H1334.31H1339.38L1344.44 403.115H1349.51H1354.57H1359.64H1364.7H1369.77L1374.83 398.064H1379.9L1384.96 393.013H1390.03L1395.09 387.962L1400.16 382.91V377.859L1405.22 372.808V367.757L1410.29 362.706V357.654L1415.35 352.603V347.552V342.501L1420.42 337.45V332.399V327.347V322.296L1425.48 317.245V312.194V307.143V302.091V297.04V291.989V286.938V281.887V276.835V271.784V266.733V261.682V256.631V251.58V246.528L1420.42 241.477V236.426V231.375V226.324L1415.35 221.272V216.221V211.17L1410.29 206.119V201.068L1405.22 196.017V190.965L1400.16 185.914L1395.09 180.863V175.812L1390.03 170.761L1384.96 165.709L1379.9 160.658V155.607L1374.83 150.556L1369.77 145.505L1364.7 140.454V135.402L1359.64 130.351V125.3L1354.57 120.249V115.198V110.146L1349.51 105.095V100.044V94.9928V89.9417L1344.44 84.8905V79.8393V74.7881V69.7369V64.6857L1339.38 59.6346V54.5834V49.5322V44.481V39.4298V34.3786V29.3275L1334.31 24.2763V19.2251V14.1739V9.12272V4.07153" stroke="white" stroke-width="5" stroke-linecap="round" stroke-linejoin="round"/>
<path d="M1066.21 4.07153V9.11666V14.1618L1071.28 19.2069L1076.34 24.252V29.2972L1081.41 34.3423V39.3874V44.4325L1086.47 49.4777V54.5228L1091.54 59.5679V64.613V69.6582L1096.6 74.7033V79.7484V84.7935L1101.67 89.8387V94.8838V99.9289V104.974L1106.73 110.019V115.064V120.109V125.155L1111.8 130.2V135.245V140.29V145.335L1116.86 150.38V155.425V160.47L1121.93 165.516V170.561V175.606L1127 180.651V185.696V190.741L1132.06 195.786V200.831L1137.13 205.877V210.922L1142.19 215.967V221.012L1147.26 226.057V231.102L1152.32 236.147V241.192L1157.39 246.238V251.283L1162.45 256.328V261.373L1167.52 266.418L1172.58 271.463V276.508L1177.65 281.553L1182.72 286.599L1187.78 291.644L1192.85 296.689L1197.91 301.734L1202.98 306.779H1208.04L1213.11 311.824H1218.17L1223.24 316.869H1228.3L1233.37 321.914H1238.44L1243.5 326.96H1248.57L1253.63 332.005H1258.7L1263.76 337.05H1268.83L1273.89 342.095H1278.96L1284.02 347.14H1289.09L1294.16 352.185H1299.22L1304.29 357.23H1309.35H1314.42L1319.48 362.275H1324.55H1329.61H1334.68L1339.74 367.32H1344.81H1349.88H1354.94L1360.01 362.275H1365.07H1370.14L1375.2 357.23L1380.27 352.185H1385.33V347.14L1390.4 342.095L1395.46 337.05V332.005V326.96L1400.53 321.914V316.869V311.824L1405.6 306.779V301.734V296.689V291.644V286.599V281.553V276.508V271.463V266.418V261.373V256.328V251.283V246.238L1400.53 241.192V236.147V231.102L1395.46 226.057V221.012L1390.4 215.967V210.922L1385.33 205.877V200.831L1380.27 195.786L1375.2 190.741L1370.14 185.696L1365.07 180.651V175.606L1360.01 170.561L1354.94 165.516L1349.88 160.47V155.425L1344.81 150.38V145.335L1339.74 140.29V135.245V130.2L1334.68 125.155V120.109V115.064V110.019L1329.61 104.974V99.9289V94.8838V89.8387V84.7935L1324.55 79.7484V74.7033V69.6582V64.613V59.5679V54.5228V49.4777L1319.48 44.4325V39.3874V34.3423V29.2972V24.252L1314.42 19.2069V14.1618V9.11666V4.07153" stroke="white" stroke-width="5" stroke-linecap="round" stroke-linejoin="round"/>
<path d="M1091.4 4.07153V9.12586L1096.45 14.1802V19.2345V24.2889L1101.5 29.3432V34.3975V39.4518V44.5062L1106.55 49.5605V54.6148V59.6692L1111.6 64.7235V69.7778V74.8322V79.8865V84.9408L1116.66 89.9952V95.0495V100.104V105.158V110.212L1121.71 115.267V120.321V125.375V130.43L1126.76 135.484V140.538V145.593L1131.81 150.647V155.701V160.756L1136.86 165.81V170.864V175.919L1141.91 180.973V186.027L1146.96 191.082V196.136L1152.02 201.19V206.245L1157.07 211.299V216.353L1162.12 221.408V226.462L1167.17 231.516L1172.22 236.571V241.625L1177.27 246.679L1182.32 251.734V256.788L1187.38 261.842L1192.43 266.897L1197.48 271.951L1202.53 277.005L1207.58 282.06H1212.63L1217.69 287.114H1222.74L1227.79 292.168H1232.84L1237.89 297.223H1242.94L1247.99 302.277H1253.05L1258.1 307.331H1263.15L1268.2 312.386H1273.25L1278.3 317.44H1283.35H1288.41L1293.46 322.494H1298.51H1303.56L1308.61 327.549H1313.66H1318.71H1323.77H1328.82H1333.87H1338.92H1343.97H1349.02H1354.07L1359.13 322.494L1364.18 317.44H1369.23V312.386L1374.28 307.331V302.277L1379.33 297.223V292.168V287.114V282.06L1384.38 277.005V271.951V266.897L1379.33 261.842V256.788V251.734V246.679L1374.28 241.625V236.571L1369.23 231.516V226.462L1364.18 221.408L1359.13 216.353V211.299L1354.07 206.245L1349.02 201.19L1343.97 196.136V191.082L1338.92 186.027V180.973L1333.87 175.919V170.864L1328.82 165.81V160.756L1323.77 155.701V150.647V145.593L1318.71 140.538V135.484V130.43V125.375L1313.66 120.321V115.267V110.212V105.158V100.104V95.0495V89.9952L1308.61 84.9408V79.8865V74.8322V69.7778V64.7235V59.6692L1303.56 54.6148V49.5605V44.5062V39.4518V34.3975L1298.51 29.3432V24.2889V19.2345V14.1802V9.12586L1293.46 4.07153" stroke="white" stroke-width="5" stroke-linecap="round" stroke-linejoin="round"/>
<path d="M1116.59 4.07153V9.1334V14.1953V19.2571L1121.65 24.319V29.3808V34.4427V39.5046V44.5664V49.6283L1126.71 54.6902V59.752V64.8139V69.8758V74.9376V79.9995V85.0613L1131.77 90.1232V95.1851V100.247V105.309V110.371L1136.83 115.433V120.494V125.556V130.618L1141.9 135.68V140.742V145.804L1146.96 150.866V155.927V160.989L1152.02 166.051V171.113L1157.08 176.175V181.237L1162.14 186.299V191.36L1167.21 196.422V201.484L1172.27 206.546V211.608L1177.33 216.67L1182.39 221.732L1187.45 226.794L1192.52 231.855L1197.58 236.917L1202.64 241.979L1207.7 247.041L1212.76 252.103H1217.82L1222.89 257.165H1227.95L1233.01 262.227H1238.07L1243.13 267.288H1248.2L1253.26 272.35H1258.32H1263.38L1268.44 277.412H1273.5H1278.57L1283.63 282.474H1288.69H1293.75H1298.81H1303.88H1308.94H1314H1319.06H1324.12L1329.19 277.412H1334.25V272.35L1339.31 267.288V262.227V257.165V252.103L1334.25 247.041V241.979V236.917L1329.19 231.855V226.794L1324.12 221.732V216.67V211.608L1319.06 206.546V201.484L1314 196.422V191.36V186.299L1308.94 181.237V176.175V171.113V166.051L1303.88 160.989V155.927V150.866V145.804V140.742V135.68L1298.81 130.618V125.556V120.494V115.433V110.371V105.309V100.247V95.1851L1293.75 90.1232V85.0613V79.9995V74.9376V69.8758V64.8139L1288.69 59.752V54.6902V49.6283V44.5664V39.5046L1283.63 34.4427V29.3808V24.319L1278.57 19.2571V14.1953V9.1334V4.07153" stroke="white" stroke-width="5" stroke-linecap="round" stroke-linejoin="round"/>
<path d="M1141.78 4.07153V9.1334V14.1953V19.2571V24.319V29.3809V34.4427V39.5046V44.5664V49.6283V54.6902V59.752V64.8139V69.8758V74.9376L1146.84 79.9995V85.0613V90.1232V95.1851V100.247V105.309V110.371L1151.91 115.433V120.494V125.556V130.618L1156.97 135.68V140.742V145.804L1162.04 150.866V155.927L1167.11 160.989V166.051L1172.17 171.113V176.175L1177.24 181.237V186.299L1182.31 191.36L1187.37 196.422L1192.44 201.484L1197.5 206.546L1202.57 211.608L1207.64 216.67H1212.7L1217.77 221.732H1222.83H1227.9L1232.97 226.794H1238.03H1243.1H1248.17H1253.23H1258.3H1263.36H1268.43L1273.5 221.732L1278.56 216.67V211.608L1283.63 206.546V201.484V196.422V191.36V186.299V181.237V176.175V171.113V166.051V160.989V155.927V150.866V145.804V140.742V135.68V130.618V125.556V120.494V115.433V110.371V105.309L1278.56 100.247V95.1851V90.1232V85.0613V79.9995V74.9376V69.8758L1273.5 64.8139V59.752V54.6902V49.6283L1268.43 44.5664V39.5046V34.4427L1263.36 29.3809V24.319V19.2571L1258.3 14.1953V9.1334V4.07153" stroke="white" stroke-width="5" stroke-linecap="round" stroke-linejoin="round"/>
<path d="M1178.1 4.07153L1173.06 9.11666V14.1618V19.2069L1168.03 24.252V29.2972V34.3423V39.3874L1162.99 44.4325V49.4777V54.5228V59.5679V64.613V69.6582V74.7033V79.7484V84.7935V89.8387V94.8838V99.9289L1168.03 104.974V110.019V115.064V120.109L1173.06 125.155V130.2V135.245L1178.1 140.29V145.335L1183.14 150.38V155.425L1188.18 160.47V165.516L1193.21 170.561L1198.25 175.606L1203.29 180.651H1208.33L1213.37 185.696H1218.4H1223.44H1228.48H1233.52H1238.55H1243.59L1248.63 180.651L1253.67 175.606V170.561L1258.7 165.516V160.47V155.425L1263.74 150.38V145.335V140.29V135.245V130.2V125.155V120.109V115.064V110.019V104.974V99.9289V94.8838V89.8387V84.7935L1258.7 79.7484V74.7033V69.6582V64.613L1253.67 59.5679V54.5228V49.4777L1248.63 44.4325V39.3874L1243.59 34.3423V29.2972L1238.55 24.252V19.2069L1233.52 14.1618V9.11666V4.07153" stroke="white" stroke-width="5" stroke-linecap="round" stroke-linejoin="round"/>
</g>
<rect x="0.325729" y="974.503" width="1911.7" height="283.705" fill="url(#paint0_linear_42_80)"/>
</g>
<rect width="1911.7" height="331.432" transform="matrix(1 0 0 -1 1.65146 331.526)" fill="url(#paint1_linear_42_80)"/>
<defs>
<linearGradient id="paint0_linear_42_80" x1="956.174" y1="974.503" x2="956.174" y2="1258.21" gradientUnits="userSpaceOnUse">
<stop stop-color="#ECE3CE" stop-opacity="0"/>
<stop offset="0.739583" stop-color="#ECE3CE"/>
</linearGradient>
<linearGradient id="paint1_linear_42_80" x1="955.849" y1="0" x2="955.849" y2="331.432" gradientUnits="userSpaceOnUse">
<stop stop-color="#ECE3CE" stop-opacity="0"/>
<stop offset="0.739583" stop-color="#ECE3CE"/>
</linearGradient>
<clipPath id="clip0_42_80">
<rect width="1917" height="1248.83" fill="white" transform="translate(-1 4.07153)"/>
</clipPath>
</defs>
</svg>
