<svg width="1916" height="1253" viewBox="0 0 1446 945" fill="none" xmlns="http://www.w3.org/2000/svg">
<g clip-path="url(#clip0_200_288)">
<g opacity="0.3">
<path d="M0 888L3.83333 891.857V895.714L7.66667 899.571L11.5 903.429V907.286L15.3333 911.143V915V918.857V922.714L19.1667 926.571V930.429V934.286V938.143L23 942" stroke="#ECE3CE" stroke-width="5" stroke-linecap="round" stroke-linejoin="round"/>
<path d="M996 942V938.174V934.348V930.522L999.8 926.696V922.87V919.043V915.217V911.391V907.565L1003.6 903.739V899.913V896.087V892.261L1007.4 888.435V884.609V880.783L1011.2 876.957V873.13L1015 869.304L1018.8 865.478V861.652L1022.6 857.826H1026.4L1030.2 854H1034H1037.8L1041.6 857.826L1045.4 861.652L1049.2 865.478L1053 869.304L1056.8 873.13V876.957L1060.6 880.783V884.609V888.435L1064.4 892.261V896.087V899.913L1068.2 903.739V907.565V911.391V915.217V919.043V922.87L1072 926.696V930.522V934.348V938.174V942" stroke="#ECE3CE" stroke-width="5" stroke-linecap="round" stroke-linejoin="round"/>
<path d="M1366 945V941.185L1362.19 937.37L1358.38 933.556L1354.56 929.741L1350.75 925.926V922.111L1346.94 918.296L1343.12 914.481L1339.31 910.667V906.852L1335.5 903.037L1331.69 899.222L1327.88 895.407L1324.06 891.593L1320.25 887.778L1316.44 883.963L1312.62 880.148L1308.81 876.333L1305 872.519L1301.19 868.704L1297.38 864.889H1293.56L1289.75 861.074L1285.94 857.259L1282.12 853.444H1278.31L1274.5 849.63H1270.69H1266.88L1263.06 845.815H1259.25H1255.44L1251.62 842H1247.81H1244H1240.19H1236.38H1232.56H1228.75H1224.94H1221.12H1217.31L1213.5 845.815H1209.69L1205.88 849.63L1202.06 853.444V857.259L1198.25 861.074V864.889V868.704L1194.44 872.519V876.333V880.148V883.963L1190.62 887.778V891.593V895.407V899.222V903.037V906.852L1186.81 910.667V914.481V918.296V922.111L1183 925.926V929.741V933.556V937.37V941.185" stroke="#ECE3CE" stroke-width="5" stroke-linecap="round" stroke-linejoin="round"/>
<path d="M0 823L3.8125 826.839H7.625H11.4375L15.25 830.677H19.0625L22.875 834.516H26.6875L30.5 838.355L34.3125 842.194L38.125 846.032L41.9375 849.871V853.71L45.75 857.548V861.387L49.5625 865.226V869.065V872.903L53.375 876.742V880.581V884.419V888.258L57.1875 892.097V895.935V899.774V903.613V907.452V911.29V915.129L61 918.968V922.806V926.645V930.484V934.323V938.161V942" stroke="#ECE3CE" stroke-width="5" stroke-linecap="round" stroke-linejoin="round"/>
<path d="M675.452 762L679.29 765.84H683.129H686.968L690.806 769.68L694.645 773.52L698.484 777.36L702.323 781.2L706.161 785.04V788.88L710 792.72V796.56V800.4V804.24V808.08V811.92V815.76V819.6L706.161 823.44V827.28L702.323 831.12L698.484 834.96L694.645 838.8L690.806 842.64L686.968 846.48H683.129L679.29 850.32H675.452H671.613L667.774 854.16H663.935H660.097H656.258H652.419H648.581L644.742 858H640.903H637.065H633.226H629.387H625.548H621.71H617.871H614.032L610.194 854.16H606.355L602.516 850.32L598.677 846.48L594.839 842.64V838.8L591 834.96V831.12V827.28V823.44V819.6V815.76V811.92V808.08V804.24V800.4L594.839 796.56V792.72V788.88L598.677 785.04L602.516 781.2L606.355 777.36L610.194 773.52L614.032 769.68L617.871 765.84H621.71H625.548L629.387 762H633.226H637.065H640.903H644.742H648.581H652.419H656.258H660.097H663.935H667.774H671.613H675.452Z" stroke="#ECE3CE" stroke-width="5" stroke-linecap="round" stroke-linejoin="round"/>
<path d="M1431 945V941.182L1427.19 937.364L1423.37 933.545V929.727L1419.56 925.909V922.091L1415.74 918.273V914.455L1411.93 910.636V906.818L1408.11 903V899.182V895.364L1404.3 891.545V887.727L1400.48 883.909V880.091L1396.67 876.273V872.455L1392.85 868.636V864.818L1389.04 861L1385.22 857.182V853.364L1381.41 849.545L1377.59 845.727L1373.78 841.909L1369.96 838.091V834.273L1366.15 830.455L1362.33 826.636L1358.52 822.818L1354.7 819L1350.89 815.182L1347.07 811.364L1343.26 807.545L1339.44 803.727L1335.63 799.909L1331.81 796.091L1328 792.273L1324.19 788.455H1320.37L1316.56 784.636H1312.74L1308.93 780.818H1305.11L1301.3 777H1297.48L1293.67 773.182H1289.85H1286.04L1282.22 769.364H1278.41H1274.59L1270.78 765.545H1266.96H1263.15H1259.33L1255.52 761.727H1251.7H1247.89L1244.07 757.909H1240.26H1236.44H1232.63L1228.81 754.091H1225L1221.19 750.273H1217.37H1213.56L1209.74 746.455H1205.93H1202.11L1198.3 742.636H1194.48H1190.67L1186.85 738.818H1183.04H1179.22H1175.41L1171.59 735H1167.78H1163.96H1160.15H1156.33L1152.52 738.818H1148.7L1144.89 742.636H1141.07V746.455L1137.26 750.273L1133.44 754.091V757.909L1129.63 761.727V765.545L1125.81 769.364V773.182V777L1122 780.818V784.636V788.455V792.273V796.091V799.909V803.727V807.545V811.364V815.182V819V822.818V826.636V830.455V834.273V838.091V841.909L1125.81 845.727V849.545V853.364V857.182V861V864.818V868.636V872.455L1129.63 876.273V880.091V883.909V887.727V891.545V895.364V899.182V903V906.818V910.636L1133.44 914.455V918.273V922.091V925.909V929.727V933.545V937.364V941.182" stroke="#ECE3CE" stroke-width="5" stroke-linecap="round" stroke-linejoin="round"/>
<path d="M934.774 942V938.179L938.581 934.357V930.536V926.714V922.893V919.071L942.387 915.25V911.429V907.607V903.786V899.964V896.143V892.321L946.194 888.5V884.679V880.857V877.036V873.214V869.393V865.571V861.75V857.929V854.107L950 850.286V846.464V842.643V838.821V835V831.179V827.357V823.536V819.714V815.893V812.071V808.25V804.429V800.607L946.194 796.786V792.964V789.143V785.321V781.5V777.679L942.387 773.857V770.036V766.214L938.581 762.393V758.571L934.774 754.75V750.929L930.968 747.107L927.161 743.286L923.355 739.464L919.548 735.643L915.742 731.821H911.935H908.129L904.323 728H900.516H896.71H892.903H889.097H885.29H881.484H877.677L873.871 731.821H870.065H866.258L862.452 735.643H858.645L854.839 739.464L851.032 743.286H847.226L843.419 747.107V750.929L839.613 754.75L835.806 758.571V762.393L832 766.214V770.036V773.857V777.679V781.5V785.321V789.143V792.964V796.786V800.607V804.429L835.806 808.25V812.071V815.893L839.613 819.714V823.536V827.357L843.419 831.179V835L847.226 838.821V842.643V846.464L851.032 850.286V854.107L854.839 857.929V861.75V865.571L858.645 869.393V873.214V877.036L862.452 880.857V884.679V888.5L866.258 892.321V896.143V899.964L870.065 903.786V907.607V911.429V915.25L873.871 919.071V922.893V926.714V930.536L877.677 934.357V938.179V942" stroke="#ECE3CE" stroke-width="5" stroke-linecap="round" stroke-linejoin="round"/>
<path d="M537.9 942L534.083 938.169L530.267 934.339L526.45 930.508V926.678L522.633 922.847V919.017L518.817 915.186V911.356V907.525V903.695L515 899.864V896.034V892.203V888.373V884.542V880.712V876.881V873.051V869.22V865.39V861.559V857.729V853.898V850.068V846.237V842.407L518.817 838.576V834.746V830.915V827.085V823.254L522.633 819.424V815.593V811.763L526.45 807.932V804.102V800.271V796.441L530.267 792.61V788.78V784.949L534.083 781.119V777.288V773.458L537.9 769.627V765.797L541.717 761.966V758.136L545.533 754.305V750.475L549.35 746.644V742.814L553.167 738.983V735.153L556.983 731.322L560.8 727.492L564.617 723.661L568.433 719.831H572.25L576.067 716H579.883H583.7H587.517H591.333H595.15H598.967H602.783H606.6L610.417 719.831H614.233H618.05H621.867L625.683 723.661H629.5H633.317H637.133H640.95L644.767 727.492H648.583H652.4H656.217H660.033L663.85 731.322H667.667H671.483H675.3H679.117L682.933 735.153H686.75H690.567L694.383 738.983H698.2H702.017L705.833 742.814H709.65L713.467 746.644L717.283 750.475L721.1 754.305L724.917 758.136L728.733 761.966L732.55 765.797L736.367 769.627V773.458L740.183 777.288V781.119V784.949L744 788.78V792.61V796.441V800.271V804.102V807.932V811.763V815.593V819.424V823.254V827.085V830.915V834.746V838.576V842.407V846.237V850.068L740.183 853.898V857.729L736.367 861.559V865.39L732.55 869.22L728.733 873.051L724.917 876.881L721.1 880.712H717.283L713.467 884.542H709.65H705.833L702.017 888.373H698.2H694.383H690.567L686.75 892.203H682.933H679.117H675.3L671.483 896.034H667.667H663.85L660.033 899.864H656.217L652.4 903.695H648.583L644.767 907.525H640.95L637.133 911.356L633.317 915.186L629.5 919.017H625.683L621.867 922.847L618.05 926.678L614.233 930.508L610.417 934.339L606.6 938.169H602.783L598.967 942" stroke="#ECE3CE" stroke-width="5" stroke-linecap="round" stroke-linejoin="round"/>
<path d="M484.124 942L480.299 938.176V934.353L476.474 930.529V926.706V922.882L472.649 919.059V915.235V911.412V907.588V903.765L468.825 899.941V896.118V892.294V888.471V884.647L465 880.824V877V873.176V869.353V865.529V861.706V857.882V854.059V850.235V846.412V842.588V838.765V834.941V831.118V827.294L468.825 823.471V819.647V815.824V812L472.649 808.176V804.353L476.474 800.529V796.706V792.882L480.299 789.059L484.124 785.235V781.412L487.948 777.588V773.765L491.773 769.941L495.598 766.118V762.294L499.423 758.471V754.647L503.247 750.824V747L507.072 743.176V739.353L510.897 735.529V731.706L514.722 727.882V724.059L518.546 720.235V716.412V712.588L522.371 708.765V704.941L526.196 701.118V697.294V693.471L530.021 689.647V685.824V682V678.176L533.845 674.353V670.529L537.67 666.706V662.882V659.059L541.495 655.235V651.412L545.32 647.588L549.144 643.765L552.969 639.941L556.794 636.118L560.619 632.294L564.443 628.471L568.268 624.647H572.093L575.918 620.824H579.742H583.567H587.392L591.216 617H595.041H598.866L602.691 620.824H606.515L610.34 624.647L614.165 628.471V632.294L617.99 636.118V639.941L621.814 643.765V647.588V651.412L625.639 655.235V659.059V662.882L629.464 666.706V670.529L633.289 674.353L637.113 678.176V682L640.938 685.824L644.763 689.647H648.588L652.412 693.471H656.237L660.062 697.294H663.887L667.711 701.118H671.536H675.361H679.186H683.01L686.835 704.941H690.66H694.485H698.309L702.134 708.765H705.959H709.784H713.608L717.433 712.588H721.258H725.082L728.907 716.412H732.732L736.557 720.235H740.381L744.206 724.059L748.031 727.882L751.856 731.706L755.68 735.529L759.505 739.353V743.176L763.33 747V750.824L767.155 754.647V758.471V762.294L770.979 766.118V769.941V773.765L774.804 777.588V781.412V785.235V789.059V792.882V796.706L778.629 800.529V804.353V808.176V812L782.454 815.824V819.647V823.471V827.294L786.278 831.118V834.941L790.103 838.765V842.588L793.928 846.412V850.235L797.753 854.059L801.577 857.882V861.706L805.402 865.529L809.227 869.353V873.176L813.052 877L816.876 880.824V884.647L820.701 888.471V892.294L824.526 896.118V899.941V903.765L828.351 907.588V911.412V915.235L832.175 919.059V922.882V926.706V930.529L836 934.353V938.176V942" stroke="#ECE3CE" stroke-width="5" stroke-linecap="round" stroke-linejoin="round"/>
<path d="M0 751H3.825H7.65H11.475H15.3H19.125H22.95H26.775H30.6H34.425H38.25H42.075H45.9H49.725L53.55 747.167H57.375H61.2H65.025H68.85H72.675H76.5H80.325H84.15L87.975 743.333H91.8H95.625H99.45H103.275L107.1 739.5H110.925H114.75L118.575 735.667H122.4H126.225L130.05 731.833H133.875L137.7 728L141.525 724.167L145.35 720.333L149.175 716.5V712.667L153 708.833V705V701.167V697.333V693.5V689.667V685.833V682V678.167V674.333L149.175 670.5V666.667L145.35 662.833L141.525 659L137.7 655.167H133.875L130.05 651.333L126.225 647.5H122.4H118.575L114.75 643.667H110.925H107.1L103.275 639.833H99.45H95.625H91.8H87.975L84.15 636H80.325H76.5H72.675H68.85L65.025 632.167H61.2H57.375H53.55L49.725 628.333H45.9H42.075L38.25 624.5H34.425H30.6L26.775 620.667H22.95L19.125 616.833H15.3H11.475L7.65 613H3.825H0" stroke="#ECE3CE" stroke-width="5" stroke-linecap="round" stroke-linejoin="round"/>
<path d="M1446 606H1442.33L1438.67 602.143V598.286L1435 594.429V590.571V586.714V582.857V579V575.143V571.286V567.429V563.571L1438.67 559.714V555.857L1442.33 552H1446" stroke="#ECE3CE" stroke-width="5" stroke-linecap="round" stroke-linejoin="round"/>
<path d="M335.905 529H332.095L328.286 532.867H324.476H320.667H316.857L313.048 536.733H309.238L305.429 540.6L301.619 544.467L297.81 548.333V552.2L294 556.067V559.933V563.8L297.81 567.667V571.533L301.619 575.4L305.429 579.267H309.238L313.048 583.133H316.857H320.667L324.476 587H328.286H332.095H335.905H339.714H343.524H347.333L351.143 583.133H354.952H358.762L362.571 579.267L366.381 575.4L370.19 571.533V567.667L374 563.8V559.933V556.067L370.19 552.2V548.333L366.381 544.467V540.6H362.571L358.762 536.733H354.952L351.143 532.867H347.333H343.524H339.714L335.905 529Z" stroke="#ECE3CE" stroke-width="5" stroke-linecap="round" stroke-linejoin="round"/>
<path d="M373.925 506H370.1H366.275H362.45H358.625H354.8H350.975H347.15H343.325H339.5H335.675H331.85H328.025H324.2H320.375H316.55L312.725 509.821H308.9H305.075L301.25 513.643H297.425L293.6 517.464H289.775L285.95 521.286L282.125 525.107L278.3 528.929L274.475 532.75L270.65 536.571L266.825 540.393V544.214L263 548.036V551.857V555.679V559.5V563.321V567.143V570.964V574.786V578.607L266.825 582.429L270.65 586.25V590.071L274.475 593.893H278.3L282.125 597.714L285.95 601.536H289.775H293.6L297.425 605.357H301.25H305.075L308.9 609.179H312.725H316.55H320.375H324.2H328.025H331.85L335.675 613H339.5H343.325H347.15H350.975H354.8H358.625H362.45H366.275H370.1H373.925H377.75H381.575H385.4H389.225H393.05H396.875H400.7L404.525 609.179H408.35L412.175 605.357V601.536L416 597.714V593.893V590.071V586.25V582.429V578.607V574.786V570.964V567.143V563.321V559.5V555.679V551.857V548.036L412.175 544.214V540.393L408.35 536.571V532.75L404.525 528.929V525.107L400.7 521.286L396.875 517.464H393.05L389.225 513.643H385.4L381.575 509.821H377.75L373.925 506Z" stroke="#ECE3CE" stroke-width="5" stroke-linecap="round" stroke-linejoin="round"/>
<path d="M419.769 476H415.954H412.138H408.323H404.508H400.692H396.877H393.062H389.246H385.431H381.615H377.8H373.985L370.169 479.823H366.354H362.538H358.723H354.908H351.092H347.277L343.462 483.645H339.646H335.831H332.015H328.2H324.385L320.569 487.468H316.754H312.938H309.123L305.308 491.29H301.492H297.677L293.862 495.113H290.046L286.231 498.935H282.415L278.6 502.758H274.785L270.969 506.581L267.154 510.403H263.338L259.523 514.226L255.708 518.048L251.892 521.871L248.077 525.694L244.262 529.516V533.339L240.446 537.161L236.631 540.984V544.806L232.815 548.629V552.452V556.274L229 560.097V563.919V567.742V571.565V575.387V579.21V583.032V586.855V590.677L232.815 594.5V598.323L236.631 602.145V605.968L240.446 609.79L244.262 613.613H248.077L251.892 617.435H255.708L259.523 621.258H263.338L267.154 625.081H270.969H274.785H278.6H282.415L286.231 628.903H290.046H293.862H297.677H301.492H305.308L309.123 632.726H312.938H316.754H320.569H324.385H328.2H332.015H335.831L339.646 636.548H343.462H347.277H351.092L354.908 640.371H358.723H362.538L366.354 644.194H370.169L373.985 648.016L377.8 651.839H381.615L385.431 655.661L389.246 659.484L393.062 663.306V667.129L396.877 670.952L400.692 674.774V678.597L404.508 682.419V686.242L408.323 690.065L412.138 693.887V697.71L415.954 701.532L419.769 705.355H423.585L427.4 709.177H431.215L435.031 713H438.846L442.662 709.177H446.477H450.292L454.108 705.355L457.923 701.532L461.738 697.71L465.554 693.887V690.065L469.369 686.242V682.419V678.597L473.185 674.774V670.952V667.129V663.306V659.484L477 655.661V651.839V648.016V644.194V640.371V636.548V632.726V628.903V625.081V621.258V617.435V613.613V609.79V605.968V602.145V598.323V594.5V590.677V586.855L473.185 583.032V579.21V575.387V571.565V567.742L469.369 563.919V560.097V556.274V552.452L465.554 548.629V544.806V540.984L461.738 537.161V533.339L457.923 529.516V525.694V521.871L454.108 518.048V514.226L450.292 510.403V506.581L446.477 502.758V498.935L442.662 495.113L438.846 491.29L435.031 487.468L431.215 483.645L427.4 479.823H423.585L419.769 476Z" stroke="#ECE3CE" stroke-width="5" stroke-linecap="round" stroke-linejoin="round"/>
<path d="M965.188 942L969.016 938.181V934.362V930.543V926.725V922.906V919.087V915.268V911.449L972.844 907.63V903.812V899.993V896.174V892.355V888.536V884.717L976.672 880.899V877.08V873.261V869.442V865.623V861.804L980.5 857.985V854.167V850.348V846.529V842.71L984.328 838.891V835.072V831.254V827.435L988.156 823.616V819.797V815.978V812.159V808.341V804.522L991.984 800.703V796.884V793.065V789.246V785.428V781.609V777.79V773.971V770.152V766.333V762.514L988.156 758.696V754.877V751.058V747.239V743.42V739.601L984.328 735.783V731.964V728.145V724.326L980.5 720.507V716.688V712.87L976.672 709.051V705.232V701.413L972.844 697.594V693.775V689.957L969.016 686.138V682.319L965.188 678.5V674.681L961.359 670.862V667.043L957.531 663.225L953.703 659.406V655.587L949.875 651.768L946.047 647.949H942.219L938.391 644.13L934.562 640.312H930.734L926.906 636.493H923.078L919.25 632.674H915.422L911.594 628.855H907.766H903.938L900.109 625.036H896.281L892.453 621.217H888.625L884.797 617.399L880.969 613.58H877.141L873.312 609.761L869.484 605.942L865.656 602.123V598.304L861.828 594.486V590.667L858 586.848V583.029V579.21V575.391V571.572V567.754V563.935V560.116V556.297L861.828 552.478V548.659L865.656 544.841V541.022L869.484 537.203V533.384L873.312 529.565L877.141 525.746L880.969 521.928V518.109L884.797 514.29L888.625 510.471L892.453 506.652L896.281 502.833L900.109 499.014L903.938 495.196L907.766 491.377L911.594 487.558L915.422 483.739H919.25L923.078 479.92L926.906 476.101L930.734 472.283L934.562 468.464L938.391 464.645L942.219 460.826V457.007L946.047 453.188L949.875 449.37L953.703 445.551L957.531 441.732L961.359 437.913L965.188 434.094H969.016L972.844 430.275L976.672 426.457H980.5L984.328 422.638H988.156H991.984H995.812L999.641 418.819H1003.47H1007.3H1011.12H1014.95H1018.78L1022.61 415H1026.44H1030.27H1034.09H1037.92H1041.75H1045.58L1049.41 418.819H1053.23H1057.06H1060.89H1064.72L1068.55 422.638H1072.38L1076.2 426.457H1080.03L1083.86 430.275L1087.69 434.094L1091.52 437.913L1095.34 441.732V445.551L1099.17 449.37V453.188L1103 457.007V460.826V464.645V468.464V472.283V476.101V479.92V483.739V487.558V491.377V495.196L1099.17 499.014V502.833V506.652V510.471V514.29L1095.34 518.109V521.928V525.746V529.565L1091.52 533.384V537.203V541.022V544.841L1087.69 548.659V552.478V556.297V560.116V563.935V567.754V571.572V575.391V579.21V583.029L1091.52 586.848V590.667V594.486V598.304V602.123V605.942V609.761V613.58V617.399V621.217L1095.34 625.036V628.855V632.674V636.493V640.312V644.13V647.949V651.768V655.587V659.406V663.225V667.043V670.862V674.681V678.5L1091.52 682.319V686.138V689.957V693.775V697.594L1087.69 701.413V705.232V709.051V712.87L1083.86 716.688V720.507V724.326V728.145L1080.03 731.964V735.783V739.601V743.42V747.239V751.058L1076.2 754.877V758.696V762.514V766.333V770.152V773.971V777.79V781.609V785.428V789.246V793.065V796.884V800.703L1080.03 804.522V808.341V812.159V815.978V819.797L1083.86 823.616V827.435V831.254V835.072L1087.69 838.891V842.71V846.529V850.348L1091.52 854.167V857.985V861.804V865.623L1095.34 869.442V873.261V877.08V880.899L1099.17 884.717V888.536V892.355V896.174V899.993V903.812V907.63V911.449L1103 915.268V919.087V922.906V926.725V930.543V934.362V938.181V942" stroke="#ECE3CE" stroke-width="5" stroke-linecap="round" stroke-linejoin="round"/>
<path d="M1396.4 400H1392.6H1388.8H1385H1381.2H1377.4L1373.6 403.81H1369.8L1366 407.619H1362.2L1358.4 411.429V415.238L1354.6 419.048L1350.8 422.857V426.667V430.476V434.286L1347 438.095V441.905V445.714L1350.8 449.524V453.333V457.143L1354.6 460.952V464.762L1358.4 468.571L1362.2 472.381L1366 476.19H1369.8L1373.6 480H1377.4H1381.2H1385H1388.8H1392.6H1396.4L1400.2 476.19L1404 472.381H1407.8L1411.6 468.571L1415.4 464.762L1419.2 460.952V457.143L1423 453.333V449.524V445.714V441.905V438.095V434.286V430.476V426.667V422.857L1419.2 419.048V415.238L1415.4 411.429L1411.6 407.619H1407.8L1404 403.81H1400.2L1396.4 400Z" stroke="#ECE3CE" stroke-width="5" stroke-linecap="round" stroke-linejoin="round"/>
<path d="M301.688 942H297.87L294.051 938.177H290.232L286.413 934.354L282.594 930.531H278.775L274.957 926.707L271.138 922.884L267.319 919.061L263.5 915.238L259.681 911.415V907.592L255.862 903.769V899.946L252.043 896.122V892.299V888.476L248.225 884.653V880.83V877.007V873.184V869.361L252.043 865.537V861.714V857.891V854.068V850.245L255.862 846.422V842.599V838.776L259.681 834.952V831.129V827.306V823.483L263.5 819.66V815.837V812.014V808.19V804.367V800.544V796.721V792.898V789.075V785.252L259.681 781.429V777.605V773.782L255.862 769.959V766.136V762.313L252.043 758.49V754.667V750.844L248.225 747.02V743.197V739.374V735.551L244.406 731.728V727.905V724.082V720.258V716.435V712.612V708.789V704.966V701.143V697.32V693.497V689.673V685.85L248.225 682.027V678.204L252.043 674.381L255.862 670.558L259.681 666.735L263.5 662.912H267.319L271.138 659.088H274.957H278.775L282.594 655.265H286.413H290.232H294.051H297.87H301.688H305.507H309.326H313.145H316.964H320.783H324.601H328.42L332.239 659.088H336.058H339.877L343.696 662.912H347.514L351.333 666.735L355.152 670.558L358.971 674.381L362.79 678.204V682.027L366.609 685.85V689.673L370.428 693.497V697.32L374.246 701.143V704.966L378.065 708.789V712.612V716.435L381.884 720.258V724.082L385.703 727.905V731.728L389.522 735.551V739.374L393.341 743.197V747.02L397.159 750.844L400.978 754.667H404.797L408.616 758.49H412.435L416.254 762.313H420.072H423.891H427.71H431.529H435.348H439.167L442.985 758.49H446.804L450.623 754.667H454.442L458.261 750.844L462.08 747.02H465.899L469.717 743.197L473.536 739.374V735.551L477.355 731.728L481.174 727.905L484.993 724.082V720.258L488.812 716.435V712.612L492.63 708.789V704.966L496.449 701.143V697.32V693.497L500.268 689.673V685.85V682.027V678.204L504.087 674.381V670.558V666.735V662.912L507.906 659.088V655.265V651.442V647.619L511.725 643.796V639.973V636.15V632.327L515.543 628.503V624.68V620.857V617.034L519.362 613.211V609.388V605.565L523.181 601.741V597.918V594.095V590.272L527 586.449V582.626V578.803V574.98V571.156V567.333V563.51V559.687L523.181 555.864V552.041V548.218L519.362 544.395V540.571L515.543 536.748L511.725 532.925V529.102L507.906 525.279L504.087 521.456V517.633L500.268 513.81V509.986L496.449 506.163V502.34L492.63 498.517L488.812 494.694V490.871V487.048L484.993 483.224V479.401L481.174 475.578V471.755L477.355 467.932V464.109V460.286L473.536 456.463V452.639V448.816L469.717 444.993V441.17V437.347L465.899 433.524V429.701V425.878L462.08 422.054V418.231L458.261 414.408V410.585V406.762L454.442 402.939L450.623 399.116V395.293L446.804 391.469L442.985 387.646L439.167 383.823H435.348L431.529 380H427.71H423.891H420.072L416.254 383.823H412.435L408.616 387.646L404.797 391.469L400.978 395.293L397.159 399.116L393.341 402.939V406.762L389.522 410.585L385.703 414.408V418.231L381.884 422.054L378.065 425.878V429.701L374.246 433.524L370.428 437.347L366.609 441.17L362.79 444.993H358.971L355.152 448.816L351.333 452.639H347.514H343.696L339.877 456.463H336.058H332.239L328.42 460.286H324.601H320.783L316.964 464.109H313.145H309.326H305.507L301.688 467.932H297.87L294.051 471.755H290.232H286.413L282.594 475.578H278.775L274.957 479.401H271.138L267.319 483.224H263.5L259.681 487.048H255.862L252.043 490.871L248.225 494.694H244.406L240.587 498.517L236.768 502.34L232.949 506.163H229.13L225.312 509.986L221.493 513.81L217.674 517.633L213.855 521.456L210.036 525.279L206.217 529.102H202.399L198.58 532.925L194.761 536.748L190.942 540.571L187.123 544.395L183.304 548.218L179.486 552.041L175.667 555.864L171.848 559.687L168.029 563.51L164.21 567.333L160.391 571.156L156.572 574.98L152.754 578.803H148.935L145.116 582.626H141.297L137.478 586.449H133.659H129.841H126.022L122.203 590.272H118.384H114.565H110.746H106.928H103.109H99.2899H95.471H91.6522H87.8333H84.0145H80.1957H76.3768L72.558 586.449H68.7391H64.9203L61.1014 582.626H57.2826L53.4638 578.803H49.6449L45.8261 574.98L42.0072 571.156L38.1884 567.333L34.3696 563.51L30.5507 559.687L26.7319 555.864L22.913 552.041L19.0942 548.218L15.2754 544.395V540.571L11.4565 536.748L7.63768 532.925L3.81884 529.102L0 525.279V521.456" stroke="#ECE3CE" stroke-width="5" stroke-linecap="round" stroke-linejoin="round"/>
<path d="M832.037 369H828.222H824.407H820.593H816.778H812.963L809.148 372.829H805.333H801.519L797.704 376.657L793.889 380.486H790.074V384.314L786.259 388.143L782.444 391.971V395.8L778.63 399.629V403.457L774.815 407.286V411.114V414.943V418.771L771 422.6V426.429V430.257V434.086V437.914V441.743V445.571V449.4V453.229V457.057V460.886L774.815 464.714V468.543V472.371V476.2L778.63 480.029V483.857L782.444 487.686V491.514L786.259 495.343L790.074 499.171L793.889 503H797.704H801.519H805.333H809.148H812.963H816.778L820.593 499.171H824.407L828.222 495.343L832.037 491.514H835.852L839.667 487.686L843.481 483.857L847.296 480.029L851.111 476.2L854.926 472.371V468.543L858.741 464.714L862.556 460.886V457.057L866.37 453.229L870.185 449.4V445.571V441.743L874 437.914V434.086V430.257V426.429V422.6V418.771V414.943V411.114V407.286L870.185 403.457V399.629L866.37 395.8V391.971L862.556 388.143L858.741 384.314L854.926 380.486L851.111 376.657H847.296L843.481 372.829H839.667H835.852L832.037 369Z" stroke="#ECE3CE" stroke-width="5" stroke-linecap="round" stroke-linejoin="round"/>
<path d="M1442 373.111L1438.19 369.289L1434.39 365.467H1430.58L1426.78 361.644H1422.97H1419.17L1415.36 357.822H1411.56H1407.75H1403.94H1400.14L1396.33 354H1392.53H1388.72H1384.92H1381.11H1377.31H1373.5L1369.69 357.822H1365.89H1362.08H1358.28L1354.47 361.644H1350.67L1346.86 365.467H1343.06L1339.25 369.289H1335.44L1331.64 373.111L1327.83 376.933L1324.03 380.756L1320.22 384.578V388.4L1316.42 392.222V396.044L1312.61 399.867V403.689V407.511L1308.81 411.333V415.156V418.978V422.8L1305 426.622V430.444V434.267V438.089V441.911V445.733V449.556V453.378L1308.81 457.2V461.022V464.844V468.667V472.489L1312.61 476.311V480.133V483.956L1316.42 487.778V491.6L1320.22 495.422L1324.03 499.244V503.067L1327.83 506.889L1331.64 510.711L1335.44 514.533H1339.25L1343.06 518.356H1346.86L1350.67 522.178H1354.47H1358.28L1362.08 526H1365.89H1369.69H1373.5H1377.31H1381.11H1384.92H1388.72L1392.53 522.178H1396.33H1400.14L1403.94 518.356H1407.75L1411.56 514.533H1415.36L1419.17 510.711L1422.97 506.889L1426.78 503.067H1430.58L1434.39 499.244L1438.19 495.422L1442 491.6" stroke="#ECE3CE" stroke-width="5" stroke-linecap="round" stroke-linejoin="round"/>
<path d="M1194.33 193L1198.17 196.857L1202 200.714V204.571V208.429V212.286L1198.17 216.143L1194.33 220H1190.5L1186.67 216.143L1182.83 212.286L1179 208.429V204.571V200.714L1182.83 196.857L1186.67 193H1190.5H1194.33Z" stroke="#ECE3CE" stroke-width="5" stroke-linecap="round" stroke-linejoin="round"/>
<path d="M4 148L7.8 151.794L11.6 155.588L15.4 159.382L19.2 163.176L23 166.971L26.8 170.765V174.559L30.6 178.353L34.4 182.147V185.941L38.2 189.735V193.529L42 197.324V201.118V204.912V208.706V212.5V216.294V220.088V223.882V227.676V231.471V235.265V239.059L38.2 242.853V246.647V250.441L34.4 254.235L30.6 258.029V261.824L26.8 265.618L23 269.412H19.2L15.4 273.206H11.6L7.8 277H4" stroke="#ECE3CE" stroke-width="5" stroke-linecap="round" stroke-linejoin="round"/>
<path d="M602.86 132L606.68 135.82H610.5H614.32L618.14 139.64L621.96 143.46L625.78 147.28V151.1L629.6 154.92V158.74V162.56L633.42 166.38V170.2V174.02V177.84V181.66L637.24 185.48V189.3V193.12V196.94V200.76V204.58V208.4V212.22V216.04V219.86V223.68V227.5V231.32V235.14V238.96V242.78V246.6L633.42 250.42V254.24V258.06V261.88V265.7V269.52V273.34V277.16V280.98V284.8V288.62V292.44V296.26V300.08V303.9V307.72V311.54L637.24 315.36V319.18V323L641.06 326.82V330.64L644.88 334.46V338.28L648.7 342.1L652.52 345.92L656.34 349.74L660.16 353.56L663.98 357.38L667.8 361.2L671.62 365.02L675.44 368.84L679.26 372.66L683.08 376.48L686.9 380.3L690.72 384.12V387.94L694.54 391.76V395.58L698.36 399.4V403.22V407.04L702.18 410.86V414.68V418.5V422.32L706 426.14V429.96V433.78V437.6V441.42V445.24V449.06V452.88V456.7V460.52L702.18 464.34V468.16V471.98V475.8V479.62L698.36 483.44V487.26V491.08L694.54 494.9V498.72L690.72 502.54L686.9 506.36L683.08 510.18L679.26 514H675.44H671.62H667.8H663.98H660.16H656.34H652.52H648.7H644.88H641.06L637.24 510.18H633.42H629.6L625.78 506.36H621.96L618.14 502.54H614.32H610.5L606.68 498.72H602.86L599.04 494.9H595.22L591.4 491.08H587.58L583.76 487.26H579.94L576.12 483.44H572.3L568.48 479.62L564.66 475.8H560.84L557.02 471.98L553.2 468.16L549.38 464.34L545.56 460.52L541.74 456.7V452.88L537.92 449.06V445.24L534.1 441.42V437.6V433.78L530.28 429.96V426.14V422.32V418.5L526.46 414.68V410.86V407.04V403.22V399.4V395.58V391.76V387.94L522.64 384.12V380.3V376.48V372.66V368.84V365.02V361.2V357.38V353.56V349.74V345.92V342.1V338.28V334.46V330.64V326.82L518.82 323V319.18V315.36V311.54V307.72V303.9V300.08V296.26V292.44V288.62V284.8V280.98V277.16V273.34L515 269.52V265.7V261.88V258.06V254.24V250.42V246.6V242.78V238.96L518.82 235.14V231.32V227.5V223.68V219.86V216.04V212.22V208.4V204.58V200.76L522.64 196.94V193.12V189.3V185.48L526.46 181.66V177.84L530.28 174.02V170.2L534.1 166.38V162.56L537.92 158.74L541.74 154.92L545.56 151.1L549.38 147.28L553.2 143.46H557.02L560.84 139.64H564.66L568.48 135.82H572.3H576.12H579.94L583.76 132H587.58H591.4H595.22H599.04H602.86Z" stroke="#ECE3CE" stroke-width="5" stroke-linecap="round" stroke-linejoin="round"/>
<path d="M4 45H7.81579L11.6316 48.8145L15.4474 52.629L19.2632 56.4435V60.2581L23.0789 64.0726V67.8871L26.8947 71.7016V75.5161L30.7105 79.3306V83.1452L34.5263 86.9597V90.7742L38.3421 94.5887V98.4032L42.1579 102.218L45.9737 106.032L49.7895 109.847V113.661L53.6053 117.476L57.4211 121.29L61.2368 125.105L65.0526 128.919L68.8684 132.734L72.6842 136.548L76.5 140.363H80.3158L84.1316 144.177H87.9474L91.7632 147.992H95.5789H99.3947L103.211 151.806H107.026H110.842H114.658H118.474H122.289H126.105H129.921L133.737 147.992H137.553H141.368H145.184H149L152.816 144.177H156.632H160.447H164.263H168.079L171.895 140.363H175.711H179.526H183.342H187.158H190.974H194.789H198.605H202.421H206.237H210.053L213.868 144.177H217.684H221.5H225.316L229.132 147.992H232.947L236.763 151.806H240.579L244.395 155.621L248.211 159.435L252.026 163.25L255.842 167.065L259.658 170.879V174.694L263.474 178.508V182.323L267.289 186.137V189.952V193.766V197.581V201.395V205.21V209.024V212.839L263.474 216.653V220.468V224.282L259.658 228.097L255.842 231.911V235.726L252.026 239.54L248.211 243.355H244.395L240.579 247.169L236.763 250.984H232.947L229.132 254.798H225.316L221.5 258.613H217.684L213.868 262.427H210.053H206.237L202.421 266.242H198.605L194.789 270.056H190.974H187.158L183.342 273.871H179.526L175.711 277.685L171.895 281.5H168.079L164.263 285.315L160.447 289.129L156.632 292.944V296.758L152.816 300.573V304.387V308.202L149 312.016V315.831V319.645V323.46V327.274L152.816 331.089V334.903L156.632 338.718V342.532L160.447 346.347L164.263 350.161L168.079 353.976L171.895 357.79L175.711 361.605H179.526L183.342 365.419H187.158L190.974 369.234H194.789L198.605 373.048H202.421H206.237H210.053L213.868 376.863H217.684H221.5H225.316H229.132L232.947 380.677H236.763H240.579H244.395H248.211L252.026 384.492H255.842H259.658H263.474L267.289 388.306H271.105H274.921L278.737 392.121L282.553 395.935H286.368L290.184 399.75V403.565L294 407.379V411.194V415.008V418.823L290.184 422.637L286.368 426.452V430.266L282.553 434.081L278.737 437.895H274.921L271.105 441.71L267.289 445.524L263.474 449.339H259.658L255.842 453.153L252.026 456.968H248.211L244.395 460.782H240.579L236.763 464.597H232.947L229.132 468.411L225.316 472.226H221.5L217.684 476.04H213.868L210.053 479.855H206.237L202.421 483.669H198.605L194.789 487.484H190.974H187.158L183.342 491.298H179.526L175.711 495.113H171.895L168.079 498.927H164.263H160.447L156.632 502.742H152.816L149 506.556H145.184H141.368L137.553 510.371H133.737H129.921L126.105 514.185H122.289H118.474H114.658H110.842H107.026H103.211L99.3947 518L95.5789 514.185H91.7632H87.9474H84.1316L80.3158 510.371H76.5L72.6842 506.556L68.8684 502.742L65.0526 498.927L61.2368 495.113V491.298L57.4211 487.484L53.6053 483.669V479.855L49.7895 476.04L45.9737 472.226V468.411L42.1579 464.597V460.782L38.3421 456.968L34.5263 453.153V449.339L30.7105 445.524V441.71L26.8947 437.895L23.0789 434.081V430.266L19.2632 426.452L15.4474 422.637L11.6316 418.823V415.008L7.81579 411.194L4 407.379V403.565" stroke="#ECE3CE" stroke-width="5" stroke-linecap="round" stroke-linejoin="round"/>
<path d="M916 33H912.2H908.4L904.6 36.8L900.8 40.6V44.4L897 48.2V52V55.8V59.6V63.4V67.2V71V74.8V78.6V82.4V86.2L900.8 90V93.8L904.6 97.6V101.4L908.4 105.2L912.2 109H916H919.8H923.6L927.4 105.2L931.2 101.4L935 97.6V93.8V90V86.2V82.4V78.6V74.8V71V67.2V63.4V59.6L931.2 55.8V52V48.2L927.4 44.4L923.6 40.6L919.8 36.8L916 33Z" stroke="#ECE3CE" stroke-width="5" stroke-linecap="round" stroke-linejoin="round"/>
<path d="M1446 823H1442.19L1438.37 819.184V815.368V811.552V807.736L1434.56 803.92V800.104L1430.74 796.288V792.472L1426.93 788.656V784.84L1423.11 781.024V777.208L1419.3 773.391L1415.48 769.575V765.759L1411.67 761.943L1407.85 758.127L1404.04 754.311H1400.22L1396.41 750.495L1392.59 746.679H1388.78L1384.96 742.863H1381.15H1377.33L1373.52 739.047H1369.7L1365.89 735.231H1362.07H1358.26H1354.44L1350.63 731.415H1346.81H1343H1339.19L1335.37 727.599H1331.56H1327.74H1323.93H1320.11L1316.3 723.783H1312.48H1308.67H1304.85H1301.04L1297.22 719.967H1293.41H1289.59H1285.78H1281.96L1278.15 716.151H1274.33H1270.52H1266.7L1262.89 712.335H1259.07H1255.26L1251.44 708.519H1247.63L1243.81 704.703H1240L1236.19 700.887L1232.37 697.071L1228.56 693.255L1224.74 689.439L1220.93 685.623L1217.11 681.807L1213.3 677.991L1209.48 674.175V670.358V666.542L1205.67 662.726V658.91V655.094V651.278V647.462L1201.85 643.646V639.83V636.014V632.198L1205.67 628.382V624.566V620.75V616.934V613.118V609.302V605.486L1209.48 601.67V597.854V594.038V590.222V586.406L1213.3 582.59V578.774V574.958V571.141V567.325V563.509V559.693V555.877V552.061V548.245V544.429V540.613V536.797L1209.48 532.981V529.165V525.349V521.533V517.717V513.901V510.085V506.269V502.453V498.637V494.821V491.005L1205.67 487.189V483.373V479.557V475.741V471.925V468.108V464.292V460.476V456.66V452.844V449.028L1201.85 445.212V441.396V437.58V433.764V429.948V426.132V422.316V418.5V414.684V410.868V407.052V403.236V399.42V395.604V391.788V387.972V384.156V380.34V376.524V372.708L1198.04 368.892V365.075V361.259V357.443V353.627V349.811L1194.22 345.995V342.179V338.363L1190.41 334.547V330.731V326.915L1186.59 323.099V319.283L1182.78 315.467L1178.96 311.651V307.835L1175.15 304.019L1171.33 300.203L1167.52 296.387L1163.7 292.571V288.755L1159.89 284.939L1156.07 281.123V277.307L1152.26 273.491L1148.44 269.675V265.858V262.042L1144.63 258.226V254.41V250.594L1140.81 246.778V242.962V239.146V235.33L1137 231.514V227.698V223.882V220.066V216.25V212.434V208.618V204.802V200.986V197.17V193.354V189.538V185.722V181.906V178.09V174.274V170.458V166.642L1140.81 162.825V159.009V155.193V151.377L1144.63 147.561V143.745L1148.44 139.929V136.113L1152.26 132.297L1156.07 128.481V124.665L1159.89 120.849H1163.7L1167.52 117.033L1171.33 113.217H1175.15H1178.96H1182.78H1186.59H1190.41H1194.22H1198.04H1201.85L1205.67 117.033H1209.48L1213.3 120.849H1217.11L1220.93 124.665H1224.74L1228.56 128.481H1232.37L1236.19 132.297H1240L1243.81 136.113H1247.63L1251.44 139.929H1255.26H1259.07H1262.89H1266.7H1270.52H1274.33L1278.15 136.113H1281.96L1285.78 132.297H1289.59L1293.41 128.481L1297.22 124.665L1301.04 120.849L1304.85 117.033V113.217L1308.67 109.401V105.585L1312.48 101.769V97.9528L1316.3 94.1368V90.3208L1320.11 86.5047V82.6887V78.8726L1323.93 75.0566V71.2406L1327.74 67.4245V63.6085V59.7925L1331.56 55.9764V52.1604L1335.37 48.3443V44.5283L1339.19 40.7123L1343 36.8962L1346.81 33.0802L1350.63 29.2642L1354.44 25.4481L1358.26 21.6321H1362.07L1365.89 17.816H1369.7H1373.52H1377.33L1381.15 14H1384.96H1388.78H1392.59L1396.41 17.816H1400.22H1404.04H1407.85L1411.67 21.6321H1415.48L1419.3 25.4481L1423.11 29.2642H1426.93L1430.74 33.0802L1434.56 36.8962V40.7123L1438.37 44.5283" stroke="#ECE3CE" stroke-width="5" stroke-linecap="round" stroke-linejoin="round"/>
<path d="M252 3L248.185 6.66667L244.37 10.3333L240.556 14H236.741L232.926 17.6667H229.111L225.296 21.3333H221.481H217.667L213.852 25H210.037H206.222H202.407H198.593H194.778H190.963H187.148H183.333H179.519H175.704H171.889H168.074H164.259H160.444H156.63H152.815H149H145.185H141.37H137.556H133.741H129.926H126.111L122.296 21.3333H118.481H114.667H110.852H107.037H103.222H99.4074H95.5926H91.7778H87.963H84.1481L80.3333 17.6667H76.5185H72.7037H68.8889H65.0741L61.2593 14H57.4444L53.6296 10.3333L49.8148 6.66667H46V3" stroke="#ECE3CE" stroke-width="5" stroke-linecap="round" stroke-linejoin="round"/>
<path d="M667.488 3V6.81529L671.305 10.6306V14.4459L675.122 18.2611V22.0764L678.939 25.8917V29.707L682.756 33.5223L686.573 37.3376V41.1529L690.39 44.9682L694.207 48.7834V52.5987L698.024 56.414L701.841 60.2293V64.0446L705.659 67.8599L709.476 71.6752V75.4904L713.293 79.3057V83.121L717.11 86.9363V90.7516L720.927 94.5669V98.3822L724.744 102.197V106.013L728.561 109.828V113.643L732.378 117.459V121.274L736.195 125.089V128.904L740.012 132.72V136.535L743.829 140.35L747.646 144.166V147.981L751.463 151.796V155.611L755.28 159.427L759.098 163.242V167.057L762.915 170.873V174.688L766.732 178.503V182.318L770.549 186.134V189.949L774.366 193.764V197.58V201.395L778.183 205.21V209.025V212.841V216.656L782 220.471V224.287V228.102V231.917V235.732V239.548V243.363L778.183 247.178V250.994V254.809V258.624L774.366 262.439V266.255L770.549 270.07V273.885L766.732 277.701L762.915 281.516L759.098 285.331L755.28 289.146V292.962L751.463 296.777L747.646 300.592L743.829 304.408V308.223V312.038L740.012 315.854V319.669V323.484V327.299L736.195 331.115V334.93V338.745V342.561V346.376V350.191V354.006V357.822V361.637V365.452V369.268V373.083V376.898V380.713V384.529V388.344V392.159V395.975V399.79V403.605V407.42V411.236V415.051V418.866V422.682V426.497V430.312V434.127V437.943V441.758V445.573V449.389V453.204V457.019V460.834V464.65V468.465L740.012 472.28V476.096V479.911V483.726V487.541V491.357V495.172V498.987V502.803V506.618V510.433V514.248V518.064V521.879V525.694V529.51V533.325V537.14V540.955V544.771V548.586V552.401V556.217V560.032V563.847L736.195 567.662V571.478L732.378 575.293L728.561 579.108L724.744 582.924L720.927 586.739L717.11 590.554L713.293 594.369H709.476L705.659 598.185H701.841H698.024H694.207L690.39 602H686.573H682.756H678.939H675.122H671.305H667.488H663.671H659.854H656.037H652.22H648.402H644.585H640.768H636.951H633.134H629.317L625.5 598.185H621.683L617.866 594.369L614.049 590.554V586.739L610.232 582.924V579.108L606.415 575.293V571.478L602.598 567.662V563.847L598.78 560.032V556.217L594.963 552.401L591.146 548.586L587.329 544.771L583.512 540.955L579.695 537.14L575.878 533.325L572.061 529.51L568.244 525.694H564.427L560.61 521.879L556.793 518.064H552.976L549.159 514.248L545.341 510.433L541.524 506.618L537.707 502.803L533.89 498.987L530.073 495.172L526.256 491.357L522.439 487.541V483.726L518.622 479.911L514.805 476.096V472.28L510.988 468.465V464.65L507.171 460.834V457.019V453.204L503.354 449.389V445.573V441.758L499.537 437.943V434.127V430.312V426.497L495.72 422.682V418.866V415.051V411.236V407.42L491.902 403.605V399.79V395.975V392.159L488.085 388.344V384.529V380.713V376.898L484.268 373.083V369.268V365.452V361.637L480.451 357.822V354.006V350.191V346.376L476.634 342.561V338.745V334.93V331.115V327.299L472.817 323.484V319.669V315.854V312.038V308.223V304.408L469 300.592V296.777V292.962V289.146V285.331V281.516V277.701V273.885V270.07V266.255V262.439V258.624V254.809V250.994V247.178L472.817 243.363V239.548V235.732V231.917V228.102V224.287V220.471V216.656V212.841V209.025V205.21V201.395V197.58V193.764V189.949L476.634 186.134V182.318V178.503V174.688V170.873V167.057V163.242L480.451 159.427V155.611V151.796V147.981V144.166L484.268 140.35V136.535V132.72L488.085 128.904V125.089V121.274V117.459L491.902 113.643V109.828V106.013L495.72 102.197V98.3822V94.5669L499.537 90.7516V86.9363V83.121V79.3057V75.4904V71.6752V67.8599V64.0446V60.2293V56.414V52.5987V48.7834V44.9682L495.72 41.1529V37.3376V33.5223V29.707V25.8917L491.902 22.0764V18.2611V14.4459V10.6306V6.81529V3" stroke="#ECE3CE" stroke-width="5" stroke-linecap="round" stroke-linejoin="round"/>
<path d="M706 3V6.81188L709.818 10.6238V14.4356L713.636 18.2475V22.0594L717.455 25.8713V29.6832L721.273 33.4951L725.091 37.3069L728.909 41.1188V44.9307L732.727 48.7426L736.545 52.5545L740.364 56.3663V60.1782L744.182 63.9901L748 67.802L751.818 71.6139L755.636 75.4257V79.2376L759.455 83.0495V86.8614L763.273 90.6733V94.4852L767.091 98.297L770.909 102.109V105.921L774.727 109.733V113.545L778.545 117.356V121.168L782.364 124.98V128.792L786.182 132.604V136.416L790 140.228V144.04L793.818 147.851V151.663L797.636 155.475V159.287L801.455 163.099V166.911V170.723L805.273 174.535V178.347V182.158L809.091 185.97V189.782V193.594L812.909 197.406V201.218V205.03V208.842L816.727 212.653V216.465V220.277V224.089L820.545 227.901V231.713V235.525V239.337V243.149L824.364 246.96V250.772V254.584V258.396L828.182 262.208V266.02V269.832L832 273.644V277.455V281.267L835.818 285.079V288.891L839.636 292.703V296.515L843.455 300.327L847.273 304.139L851.091 307.951L854.909 311.762L858.727 315.574L862.545 319.386H866.364L870.182 323.198H874L877.818 327.01H881.636L885.455 330.822H889.273L893.091 334.634H896.909L900.727 338.446H904.545L908.364 342.257L912.182 346.069H916L919.818 349.881L923.636 353.693H927.455L931.273 357.505L935.091 361.317L938.909 365.129L942.727 368.941H946.545L950.364 372.752H954.182L958 376.564H961.818H965.636L969.455 380.376H973.273H977.091H980.909L984.727 384.188H988.545H992.364H996.182H1000H1003.82H1007.64H1011.45L1015.27 388H1019.09H1022.91H1026.73H1030.55H1034.36H1038.18H1042L1045.82 384.188H1049.64H1053.45H1057.27H1061.09H1064.91H1068.73H1072.55H1076.36H1080.18L1084 380.376H1087.82H1091.64H1095.45L1099.27 376.564H1103.09L1106.91 372.752L1110.73 368.941H1114.55V365.129L1118.36 361.317L1122.18 357.505V353.693V349.881L1126 346.069V342.257V338.446V334.634V330.822V327.01V323.198V319.386V315.574V311.762V307.951V304.139V300.327V296.515V292.703V288.891V285.079V281.267L1122.18 277.455V273.644V269.832V266.02V262.208V258.396V254.584V250.772V246.96V243.149V239.337L1118.36 235.525V231.713V227.901V224.089V220.277V216.465V212.653V208.842V205.03V201.218V197.406V193.594V189.782V185.97V182.158V178.347V174.535V170.723V166.911V163.099V159.287V155.475V151.663V147.851V144.04V140.228V136.416V132.604V128.792V124.98V121.168V117.356V113.545V109.733V105.921V102.109V98.297V94.4852V90.6733V86.8614V83.0495L1114.55 79.2376V75.4257V71.6139V67.802V63.9901V60.1782V56.3663L1110.73 52.5545V48.7426V44.9307V41.1188L1106.91 37.3069V33.4951V29.6832V25.8713V22.0594L1103.09 18.2475V14.4356V10.6238V6.81188V3" stroke="#ECE3CE" stroke-width="5" stroke-linecap="round" stroke-linejoin="round"/>
<path d="M733 3V6.80851L736.814 10.617V14.4255L740.629 18.234L744.443 22.0426V25.8511L748.258 29.6596L752.072 33.4681L755.887 37.2766V41.0851L759.701 44.8936L763.515 48.7021L767.33 52.5106L771.144 56.3191V60.1277L774.959 63.9362L778.773 67.7447L782.588 71.5532V75.3617L786.402 79.1702V82.9787L790.216 86.7872V90.5957L794.031 94.4043V98.2128L797.845 102.021V105.83L801.66 109.638V113.447V117.255L805.474 121.064V124.872L809.289 128.681V132.489V136.298L813.103 140.106V143.915V147.723L816.918 151.532V155.34V159.149L820.732 162.957V166.766V170.574L824.546 174.383V178.191V182L828.361 185.809V189.617V193.426L832.175 197.234V201.043V204.851L835.99 208.66V212.468V216.277L839.804 220.085V223.894V227.702L843.619 231.511V235.319L847.433 239.128V242.936V246.745L851.247 250.553L855.062 254.362V258.17L858.876 261.979L862.691 265.787V269.596L866.505 273.404L870.32 277.213H874.134L877.948 281.021L881.763 284.83L885.577 288.638H889.392L893.206 292.447H897.021L900.835 296.255H904.649L908.464 300.064H912.278L916.093 303.872H919.907L923.722 307.681H927.536L931.351 311.489H935.165L938.979 315.298L942.794 319.106L946.608 322.915L950.423 326.723H954.237L958.052 330.532L961.866 334.34L965.68 338.149L969.495 341.957H973.309L977.124 345.766H980.938L984.753 349.574H988.567L992.381 353.383H996.196L1000.01 357.191H1003.82H1007.64H1011.45L1015.27 361H1019.08H1022.9H1026.71H1030.53H1034.34H1038.15H1041.97H1045.78L1049.6 357.191H1053.41H1057.23H1061.04L1064.86 353.383H1068.67L1072.48 349.574H1076.3L1080.11 345.766L1083.93 341.957L1087.74 338.149V334.34L1091.56 330.532L1095.37 326.723V322.915V319.106L1099.19 315.298V311.489V307.681V303.872V300.064L1103 296.255V292.447V288.638V284.83V281.021V277.213V273.404V269.596V265.787V261.979V258.17V254.362V250.553V246.745V242.936V239.128V235.319V231.511V227.702V223.894V220.085V216.277V212.468V208.66V204.851V201.043V197.234V193.426V189.617V185.809V182V178.191V174.383V170.574V166.766L1099.19 162.957V159.149V155.34V151.532V147.723V143.915L1095.37 140.106V136.298V132.489L1091.56 128.681V124.872V121.064L1087.74 117.255V113.447V109.638L1083.93 105.83V102.021L1080.11 98.2128V94.4043L1076.3 90.5957V86.7872L1072.48 82.9787V79.1702L1068.67 75.3617V71.5532V67.7447L1064.86 63.9362V60.1277V56.3191V52.5106L1061.04 48.7021V44.8936V41.0851V37.2766L1057.23 33.4681V29.6596V25.8511V22.0426V18.234V14.4255L1053.41 10.617V6.80851V3" stroke="#ECE3CE" stroke-width="5" stroke-linecap="round" stroke-linejoin="round"/>
<path d="M755 3V6.81609L758.818 10.6322L762.636 14.4483V18.2644L766.455 22.0805L770.273 25.8966L774.091 29.7126V33.5287L777.909 37.3448L781.727 41.1609L785.545 44.977L789.364 48.7931V52.6092L793.182 56.4253L797 60.2414V64.0575L800.818 67.8736V71.6897L804.636 75.5057V79.3218L808.455 83.1379V86.954V90.7701L812.273 94.5862V98.4023V102.218L816.091 106.034V109.851V113.667L819.909 117.483V121.299V125.115L823.727 128.931V132.747V136.563L827.545 140.379V144.195V148.011L831.364 151.828V155.644V159.46L835.182 163.276V167.092V170.908L839 174.724V178.54V182.356L842.818 186.172V189.989L846.636 193.805V197.621V201.437L850.455 205.253V209.069L854.273 212.885V216.701V220.517L858.091 224.333V228.149L861.909 231.966L865.727 235.782V239.598L869.545 243.414L873.364 247.23L877.182 251.046V254.862H881L884.818 258.678L888.636 262.494L892.455 266.31H896.273L900.091 270.126L903.909 273.943H907.727L911.545 277.759H915.364L919.182 281.575H923H926.818L930.636 285.391L934.455 289.207H938.273L942.091 293.023H945.909L949.727 296.839H953.545L957.364 300.655L961.182 304.471H965L968.818 308.287L972.636 312.103H976.455L980.273 315.92L984.091 319.736H987.909L991.727 323.552L995.545 327.368H999.364L1003.18 331.184H1007H1010.82L1014.64 335H1018.45H1022.27H1026.09H1029.91H1033.73H1037.55H1041.36L1045.18 331.184H1049L1052.82 327.368H1056.64L1060.45 323.552L1064.27 319.736L1068.09 315.92V312.103L1071.91 308.287V304.471L1075.73 300.655V296.839L1079.55 293.023V289.207V285.391L1083.36 281.575V277.759V273.943V270.126L1087.18 266.31V262.494V258.678V254.862V251.046V247.23V243.414V239.598L1091 235.782V231.966V228.149V224.333V220.517V216.701V212.885V209.069V205.253V201.437V197.621L1087.18 193.805V189.989V186.172V182.356V178.54V174.724V170.908L1083.36 167.092V163.276V159.46V155.644L1079.55 151.828V148.011V144.195L1075.73 140.379V136.563L1071.91 132.747V128.931L1068.09 125.115V121.299L1064.27 117.483L1060.45 113.667V109.851L1056.64 106.034L1052.82 102.218V98.4023L1049 94.5862L1045.18 90.7701V86.954L1041.36 83.1379V79.3218V75.5057L1037.55 71.6897V67.8736V64.0575L1033.73 60.2414V56.4253V52.6092V48.7931L1029.91 44.977V41.1609V37.3448V33.5287V29.7126L1026.09 25.8966V22.0805V18.2644V14.4483V10.6322V6.81609V3" stroke="#ECE3CE" stroke-width="5" stroke-linecap="round" stroke-linejoin="round"/>
<path d="M778 3V6.81013L781.821 10.6203L785.641 14.4304L789.462 18.2405V22.0506L793.282 25.8608L797.103 29.6709L800.923 33.481V37.2911L804.744 41.1013L808.564 44.9114V48.7215L812.385 52.5316V56.3418V60.1519L816.205 63.962V67.7722L820.026 71.5823V75.3924V79.2025V83.0127L823.846 86.8228V90.6329V94.443V98.2532L827.667 102.063V105.873V109.684L831.487 113.494V117.304V121.114L835.308 124.924V128.734V132.544L839.128 136.354V140.165V143.975L842.949 147.785V151.595V155.405L846.769 159.215V163.025L850.59 166.835V170.646V174.456L854.41 178.266V182.076L858.231 185.886V189.696L862.051 193.506V197.316L865.872 201.127V204.937V208.747L869.692 212.557L873.513 216.367V220.177L877.333 223.987L881.154 227.797V231.608L884.974 235.418L888.795 239.228L892.615 243.038H896.436L900.256 246.848L904.077 250.658H907.897L911.718 254.468H915.538L919.359 258.278H923.179L927 262.089H930.821L934.641 265.899H938.462L942.282 269.709H946.103L949.923 273.519H953.744L957.564 277.329L961.385 281.139H965.205L969.026 284.949H972.846L976.667 288.759H980.487L984.308 292.57H988.128L991.949 296.38H995.769L999.59 300.19H1003.41H1007.23H1011.05L1014.87 304H1018.69H1022.51H1026.33H1030.15H1033.97L1037.79 300.19H1041.62L1045.44 296.38H1049.26L1053.08 292.57L1056.9 288.759V284.949L1060.72 281.139V277.329L1064.54 273.519V269.709L1068.36 265.899V262.089V258.278L1072.18 254.468V250.658V246.848V243.038L1076 239.228V235.418V231.608V227.797V223.987V220.177V216.367V212.557V208.747V204.937V201.127V197.316V193.506V189.696V185.886L1072.18 182.076V178.266V174.456V170.646L1068.36 166.835V163.025V159.215L1064.54 155.405V151.595L1060.72 147.785V143.975L1056.9 140.165L1053.08 136.354V132.544L1049.26 128.734L1045.44 124.924L1041.62 121.114V117.304L1037.79 113.494L1033.97 109.684L1030.15 105.873V102.063L1026.33 98.2532V94.443L1022.51 90.6329V86.8228V83.0127L1018.69 79.2025V75.3924V71.5823V67.7722L1014.87 63.962V60.1519V56.3418V52.5316V48.7215L1011.05 44.9114V41.1013V37.2911V33.481V29.6709V25.8608V22.0506L1007.23 18.2405V14.4304V10.6203V6.81013V3" stroke="#ECE3CE" stroke-width="5" stroke-linecap="round" stroke-linejoin="round"/>
<path d="M805 3V6.80556V10.6111L808.821 14.4167L812.642 18.2222V22.0278L816.463 25.8333V29.6389V33.4444L820.284 37.25V41.0556L824.104 44.8611V48.6667V52.4722L827.925 56.2778V60.0833V63.8889L831.746 67.6944V71.5V75.3056V79.1111L835.567 82.9167V86.7222V90.5278V94.3333L839.388 98.1389V101.944V105.75V109.556L843.209 113.361V117.167V120.972L847.03 124.778V128.583V132.389L850.851 136.194V140V143.806L854.672 147.611V151.417L858.493 155.222V159.028L862.313 162.833V166.639L866.134 170.444V174.25L869.955 178.056V181.861L873.776 185.667V189.472L877.597 193.278V197.083L881.418 200.889L885.239 204.694V208.5L889.06 212.306L892.881 216.111L896.701 219.917L900.522 223.722L904.343 227.528L908.164 231.333H911.985L915.806 235.139H919.627L923.448 238.944H927.269L931.09 242.75H934.91L938.731 246.556H942.552L946.373 250.361H950.194L954.015 254.167H957.836L961.657 257.972H965.478L969.299 261.778H973.119L976.94 265.583H980.761L984.582 269.389H988.403H992.224L996.045 273.194H999.866H1003.69H1007.51L1011.33 277H1015.15H1018.97H1022.79L1026.61 273.194H1030.43H1034.25L1038.07 269.389L1041.9 265.583H1045.72V261.778L1049.54 257.972L1053.36 254.167V250.361V246.556L1057.18 242.75V238.944V235.139L1061 231.333V227.528V223.722V219.917V216.111V212.306V208.5V204.694V200.889V197.083V193.278V189.472V185.667L1057.18 181.861V178.056V174.25L1053.36 170.444V166.639L1049.54 162.833V159.028L1045.72 155.222V151.417L1041.9 147.611L1038.07 143.806L1034.25 140L1030.43 136.194V132.389L1026.61 128.583L1022.79 124.778L1018.97 120.972V117.167L1015.15 113.361V109.556L1011.33 105.75V101.944V98.1389L1007.51 94.3333V90.5278V86.7222V82.9167L1003.69 79.1111V75.3056V71.5V67.6944V63.8889L999.866 60.0833V56.2778V52.4722V48.6667V44.8611V41.0556V37.25L996.045 33.4444V29.6389V25.8333V22.0278V18.2222L992.224 14.4167V10.6111V6.80556V3" stroke="#ECE3CE" stroke-width="5" stroke-linecap="round" stroke-linejoin="round"/>
<path d="M824 3V6.8125L827.81 10.625V14.4375V18.25L831.621 22.0625V25.875V29.6875V33.5L835.431 37.3125V41.125V44.9375L839.241 48.75V52.5625V56.375V60.1875V64L843.052 67.8125V71.625V75.4375V79.25V83.0625L846.862 86.875V90.6875V94.5V98.3125L850.672 102.125V105.938V109.75L854.483 113.562V117.375V121.188L858.293 125V128.812V132.625L862.103 136.438V140.25L865.914 144.062V147.875L869.724 151.688V155.5L873.534 159.312V163.125L877.345 166.938V170.75L881.155 174.562L884.966 178.375V182.188L888.776 186L892.586 189.812V193.625L896.397 197.438L900.207 201.25L904.017 205.062L907.828 208.875L911.638 212.688H915.448L919.259 216.5H923.069L926.879 220.312H930.69L934.5 224.125H938.31L942.121 227.938H945.931L949.741 231.75H953.552L957.362 235.562H961.172L964.983 239.375H968.793H972.603L976.414 243.188H980.224H984.034L987.845 247H991.655H995.466H999.276H1003.09H1006.9H1010.71H1014.52H1018.33H1022.14L1025.95 243.188L1029.76 239.375H1033.57V235.562L1037.38 231.75V227.938L1041.19 224.125V220.312V216.5V212.688L1045 208.875V205.062V201.25L1041.19 197.438V193.625V189.812V186L1037.38 182.188V178.375L1033.57 174.562V170.75L1029.76 166.938L1025.95 163.125V159.312L1022.14 155.5L1018.33 151.688L1014.52 147.875V144.062L1010.71 140.25V136.438L1006.9 132.625V128.812L1003.09 125V121.188L999.276 117.375V113.562V109.75L995.466 105.938V102.125V98.3125V94.5L991.655 90.6875V86.875V83.0625V79.25V75.4375V71.625V67.8125L987.845 64V60.1875V56.375V52.5625V48.75V44.9375L984.034 41.125V37.3125V33.5V29.6875V25.875L980.224 22.0625V18.25V14.4375V10.625V6.8125L976.414 3" stroke="#ECE3CE" stroke-width="5" stroke-linecap="round" stroke-linejoin="round"/>
<path d="M843 3V6.81818V10.6364V14.4545L846.818 18.2727V22.0909V25.9091V29.7273V33.5455V37.3636L850.636 41.1818V45V48.8182V52.6364V56.4545V60.2727V64.0909L854.455 67.9091V71.7273V75.5455V79.3636V83.1818L858.273 87V90.8182V94.6364V98.4545L862.091 102.273V106.091V109.909L865.909 113.727V117.545V121.364L869.727 125.182V129L873.545 132.818V136.636L877.364 140.455V144.273L881.182 148.091V151.909L885 155.727V159.545L888.818 163.364L892.636 167.182L896.455 171L900.273 174.818L904.091 178.636L907.909 182.455L911.727 186.273L915.545 190.091H919.364L923.182 193.909H927L930.818 197.727H934.636L938.455 201.545H942.273L946.091 205.364H949.909H953.727L957.545 209.182H961.364H965.182L969 213H972.818H976.636H980.455H984.273H988.091H991.909H995.727H999.545L1003.36 209.182H1007.18V205.364L1011 201.545V197.727V193.909V190.091L1007.18 186.273V182.455V178.636L1003.36 174.818V171L999.545 167.182V163.364V159.545L995.727 155.727V151.909L991.909 148.091V144.273V140.455L988.091 136.636V132.818V129V125.182L984.273 121.364V117.545V113.727V109.909V106.091V102.273L980.455 98.4545V94.6364V90.8182V87V83.1818V79.3636V75.5455V71.7273L976.636 67.9091V64.0909V60.2727V56.4545V52.6364V48.8182L972.818 45V41.1818V37.3636V33.5455V29.7273L969 25.9091V22.0909V18.2727L965.182 14.4545V10.6364V6.81818V3" stroke="#ECE3CE" stroke-width="5" stroke-linecap="round" stroke-linejoin="round"/>
<path d="M862 3V6.81818V10.6364V14.4545V18.2727V22.0909V25.9091V29.7273V33.5455V37.3636V41.1818V45V48.8182V52.6364V56.4545L865.821 60.2727V64.0909V67.9091V71.7273V75.5455V79.3636V83.1818L869.643 87V90.8182V94.6364V98.4545L873.464 102.273V106.091V109.909L877.286 113.727V117.545L881.107 121.364V125.182L884.929 129V132.818L888.75 136.636V140.455L892.571 144.273L896.393 148.091L900.214 151.909L904.036 155.727L907.857 159.545L911.679 163.364H915.5L919.321 167.182H923.143H926.964L930.786 171H934.607H938.429H942.25H946.071H949.893H953.714H957.536L961.357 167.182L965.179 163.364V159.545L969 155.727V151.909V148.091V144.273V140.455V136.636V132.818V129V125.182V121.364V117.545V113.727V109.909V106.091V102.273V98.4545V94.6364V90.8182V87V83.1818V79.3636L965.179 75.5455V71.7273V67.9091V64.0909V60.2727V56.4545V52.6364L961.357 48.8182V45V41.1818V37.3636L957.536 33.5455V29.7273V25.9091L953.714 22.0909V18.2727V14.4545L949.893 10.6364V6.81818V3" stroke="#ECE3CE" stroke-width="5" stroke-linecap="round" stroke-linejoin="round"/>
<path d="M889.4 3L885.6 6.80556V10.6111V14.4167L881.8 18.2222V22.0278V25.8333V29.6389L878 33.4444V37.25V41.0556V44.8611V48.6667V52.4722V56.2778V60.0833V63.8889V67.6944V71.5V75.3056L881.8 79.1111V82.9167V86.7222V90.5278L885.6 94.3333V98.1389V101.944L889.4 105.75V109.556L893.2 113.361V117.167L897 120.972V124.778L900.8 128.583L904.6 132.389L908.4 136.194H912.2L916 140H919.8H923.6H927.4H931.2H935H938.8L942.6 136.194L946.4 132.389V128.583L950.2 124.778V120.972V117.167L954 113.361V109.556V105.75V101.944V98.1389V94.3333V90.5278V86.7222V82.9167V79.1111V75.3056V71.5V67.6944V63.8889L950.2 60.0833V56.2778V52.4722V48.6667L946.4 44.8611V41.0556V37.25L942.6 33.4444V29.6389L938.8 25.8333V22.0278L935 18.2222V14.4167L931.2 10.6111V6.80556V3" stroke="#ECE3CE" stroke-width="5" stroke-linecap="round" stroke-linejoin="round"/>
</g>
<rect x="1" y="735" width="1911.7" height="283.705" fill="url(#paint0_linear_200_288)"/>
</g>
<rect width="1911.7" height="331.432" transform="matrix(1 0 0 -1 2 250)" fill="url(#paint1_linear_200_288)"/>
<defs>
<linearGradient id="paint0_linear_200_288" x1="722" y1="735" x2="722" y2="949" gradientUnits="userSpaceOnUse">
<stop stop-color="#292929" stop-opacity="0"/>
<stop offset="0.739583" stop-color="#292929"/>
</linearGradient>
<linearGradient id="paint1_linear_200_288" x1="721" y1="0" x2="721" y2="250" gradientUnits="userSpaceOnUse">
<stop stop-color="#292929" stop-opacity="0"/>
<stop offset="0.739583" stop-color="#292929"/>
</linearGradient>
<clipPath id="clip0_200_288">
<rect width="1917" height="1248.83" fill="white" transform="translate(0 3)"/>
</clipPath>
</defs>
</svg>
